<svg xmlns="http://www.w3.org/2000/svg" viewBox="0 0 520 520"><circle cx="360" cy="370" r="30" fill="#fff"/><circle cx="150" cy="160" r="20" fill="#fff"/><circle cx="160" cy="360" r="130" fill="#a7c7fc"/><circle cx="365" cy="155" r="125" fill="#fff"/><circle cx="470" cy="420" r="10" fill="#4d80c9"/><circle cx="430" cy="470" r="10" fill="#4d80c9"/><path fill="#4d80c9" d="M410.25 129.28h25.71v84.39h-25.71zM410.25 96.33h25.71v23.31h-25.71z"/><circle cx="410" cy="320" r="10" fill="#4d80c9"/><path fill="#4d80c9" d="m359.46 99.55 41.62 114.12h-27l-8.84-25.56h-35.52l-8.68 25.56h-27l41.63-114.12h23.79zm1.44 70.4-13.34-40.35-13.66 40.35h27zM241.17 381.38c1.18 2.57 1.77 5.62 1.77 9.16 0 8.36-3.11 15-9.33 19.93-6.21 4.931-14.62 7.391-25.23 7.391-7.18 0-14.25-1.15-21.22-3.45-6.96-2.3-12.86-5.65-17.68-10.05l9.16-15.75c5.15 3.54 10.16 6.27 15.03 8.199 4.88 1.931 9.57 2.891 14.07 2.891 3.32 0 5.89-.59 7.71-1.771 1.82-1.17 2.73-2.89 2.73-5.14s-1.15-4.04-3.45-5.39c-2.31-1.33-6.35-2.75-12.14-4.261-5.68-1.6-10.47-3.149-14.38-4.659-3.92-1.49-7.1-3.16-9.57-4.98-2.46-1.82-4.23-3.91-5.3-6.27-1.07-2.351-1.61-5.141-1.61-8.36 0-4.28.86-8.19 2.57-11.73 1.72-3.529 4.08-6.529 7.08-9 3-2.46 6.56-4.39 10.68-5.79 4.13-1.39 8.6-2.09 13.43-2.09 6.32 0 12.24.86 17.76 2.58 5.52 1.71 10.85 4.82 15.99 9.32l-9.97 15.43c-4.82-3.32-9.1-5.729-12.85-7.229-3.76-1.5-7.4-2.25-10.93-2.25-2.79 0-5.15.559-7.08 1.68-1.92 1.13-2.89 2.92-2.89 5.39 0 2.36 1.05 4.12 3.14 5.301 2.08 1.18 5.97 2.47 11.65 3.859 6 1.61 11.06 3.21 15.19 4.82 4.12 1.609 7.47 3.399 10.04 5.39 2.58 1.979 4.45 4.249 5.63 6.829z"/><circle cx="200" cy="100" r="10" fill="#4d80c9"/><path fill="#4d80c9" d="M163.06 340.71c0 5.04-.89 9.86-2.66 14.47-1.77 4.61-4.23 8.73-7.39 12.37-3.16 3.65-6.99 6.54-11.49 8.681-4.5 2.149-9.49 3.22-14.95 3.22h-23.15v36.81H77.06V302.14h48.71c5.46 0 10.47 1.12 15.02 3.37 4.56 2.25 8.47 5.2 11.74 8.84 3.26 3.65 5.84 7.77 7.71 12.381 1.88 4.609 2.82 9.269 2.82 13.979zM133 352.45c2.25-2.681 3.37-6.59 3.37-11.74 0-2.67-.35-4.979-1.04-6.91-.7-1.93-1.64-3.54-2.81-4.819-1.18-1.29-2.52-2.221-4.02-2.811-1.5-.59-3-.89-4.5-.89h-20.58v31.18h21.54c3.11 0 5.79-1.34 8.04-4.01z"/><circle cx="90" cy="40" r="10" fill="#4d80c9"/><circle cx="90" cy="180" r="10" fill="#4d80c9"/><circle cx="50" cy="80" r="10" fill="#4d80c9"/><path fill="#4d80c9" d="M160 500c-77.196 0-140-62.804-140-140s62.804-140 140-140 140 62.804 140 140-62.804 140-140 140zm0-260c-66.169 0-120 53.832-120 120s53.831 120 120 120 120-53.832 120-120-53.832-120-120-120z"/><path fill="#4d80c9" d="M365 290c-74.44 0-135-60.561-135-135S290.56 20 365 20s135 60.561 135 135-60.561 135-135 135zm0-250c-63.411 0-115 51.589-115 115s51.589 115 115 115 115-51.589 115-115S428.411 40 365 40zM260 500c-5.523 0-10-4.478-10-10s4.477-10 10-10c121.309 0 220-98.691 220-220 0-5.523 4.477-10 10-10 5.522 0 10 4.477 10 10 0 64.108-24.964 124.379-70.293 169.707C384.379 475.036 324.108 500 260 500zM30 270c-5.523 0-10-4.478-10-10 0-64.108 24.964-124.378 70.293-169.707C135.622 44.964 195.892 20 260 20c5.522 0 10 4.477 10 10s-4.478 10-10 10C138.691 40 40 138.691 40 260c0 5.522-4.477 10-10 10z"/><path fill="#4d80c9" d="M150 190c-16.542 0-30-13.458-30-30s13.458-30 30-30 30 13.458 30 30-13.458 30-30 30zm0-40c-5.514 0-10 4.486-10 10s4.486 10 10 10 10-4.486 10-10-4.486-10-10-10zm210 260c-22.056 0-40-17.944-40-40s17.944-40 40-40 40 17.944 40 40-17.944 40-40 40zm0-60c-11.028 0-20 8.972-20 20s8.972 20 20 20 20-8.972 20-20-8.972-20-20-20z"/></svg>