<svg xmlns="http://www.w3.org/2000/svg" fill="none" viewBox="0 0 24 24">
    <path stroke="#563560" stroke-linejoin="round"
        d="M12 4H11H9C7.89543 4 7 4.89543 7 6C7 7.10457 7.89543 8 9 8H11H12M12 4H13H15C16.1046 4 17 4.89543 17 6C17 7.10457 16.1046 8 15 8H13H12M12 4V8M17 12C17 13.1046 16.1046 14 15 14C13.8954 14 13 13.1046 13 12C13 10.8954 13.8954 10 15 10C16.1046 10 17 10.8954 17 12ZM9 14C7.89543 14 7 13.1046 7 12C7 10.8954 7.89543 10 9 10H11V14H9ZM11 18C11 19.1046 10.1046 20 9 20C7.89543 20 7 19.1046 7 18C7 16.8954 7.89543 16 9 16H11V18Z" />
</svg>