<svg xmlns="http://www.w3.org/2000/svg" data-name="Layer 1" viewBox="0 0 168 168" width="256" height="256">
<path fill="#a783b2" d="M40.99738,77H64.99817a2.00011,2.00011,0,0,0,2.00006-2V51a2.00011,2.00011,0,0,0-2.00006-2H40.99738a2.00015,2.00015,0,0,0-2.00006,2V75A2.00015,2.00015,0,0,0,40.99738,77Zm2.00006-24H62.99811V73H42.99744Z" class="color0bceb2 svgShape"></path>
<path fill="#563560" d="M108.29828 115.78589a4.00013 4.00013 0 00-3.18909-2.68427l-.654-.09991-.32922-.70123a4.00015 4.00015 0 00-7.24213-.00012l-.32922.70136-.654.09991a3.99993 3.99993 0 00-2.259 6.7475l.59021.60492-.14716.902a4.00013 4.00013 0 005.88318 4.14471l.537-.29681.53693.29681a4.0001 4.0001 0 005.88318-4.14465l-.14709-.902.59021-.60492A3.99987 3.99987 0 00108.29828 115.78589zM102.97711 122l-2.47217-1.36658L98.03265 122l.47217-2.89441-2.00006-2.04987 2.764-.4223L100.50494 114l1.236 2.63342 2.7641.4223-2.00006 2.04987zM85.10852 113.10162l-.65405-.09991-.32916-.70136A4.00032 4.00032 0 0080.50427 110h-.00006a4 4 0 00-3.621 2.30042l-.32916.70129-.65411.09991a4 4 0 00-2.25891 6.7475l.59021.60492-.14709.902a4.00013 4.00013 0 005.88318 4.14465l.537-.29681.537.29681a4.00008 4.00008 0 005.88312-4.14471l-.14709-.902.59021-.60492a3.99993 3.99993 0 00-2.259-6.7475zM82.97644 122l-2.47217-1.36658L78.032 122l.47217-2.89441-2.00006-2.04987 2.764-.4223L80.50427 114l1.23608 2.63342 2.764.4223-2.00006 2.04987z" class="color2d4356 svgShape"></path>
<path fill="#a783b2" d="M86.88348 129.30035l-.32916.70136-.654.09991a4 4 0 00-2.259 6.7475l.59027.60492-.14716.902a4.00013 4.00013 0 005.88318 4.14471l.537-.29681.53693.29681a4.00012 4.00012 0 005.88324-4.14465l-.14709-.902.59021-.60492a4 4 0 00-2.259-6.7475l-.65405-.09991-.32916-.70123a4.0002 4.0002 0 00-7.24219-.00012zm7.62122 4.75537l-2.00006 2.04987L92.97675 139l-2.47217-1.36658L88.03235 139l.47217-2.89441-2.00006-2.04987 2.764-.4223L90.50458 131l1.23608 2.63342zM82.88177 49h-9.8833a2 2 0 100 4h3.99316A27.9385 27.9385 0 0182.88177 49z" class="color0bceb2 svgShape"></path>
<path fill="#563560" d="M72.99847,57a2.00011,2.00011,0,0,0-2.00006,2,1.97841,1.97841,0,0,0,.26611.97906A27.82591,27.82591,0,0,1,73.25934,57Z" class="color2d4356 svgShape"></path>
<path fill="#a783b2" d="M40.99738,85H69.75018a27.66454,27.66454,0,0,1-1.35736-4H40.99738a2,2,0,1,0,0,4Z" class="color0bceb2 svgShape"></path>
<path fill="#563560" d="M40.99738,89a2,2,0,1,0,0,4H74.944a28.0643,28.0643,0,0,1-3.08295-4Z" class="color2d4356 svgShape"></path>
<path fill="#a783b2" d="M40.99738,97a2,2,0,1,0,0,4H88.07318a27.6664,27.6664,0,0,1-8.5368-4Z" class="color0bceb2 svgShape"></path>
<path fill="#563560" d="M123.15564,92.08508a7.11937,7.11937,0,0,0-8.45111-1.21143l-1.12476-1.12476a23.61274,23.61274,0,1,0-2.85,2.8064l1.1496,1.14954a7.1276,7.1276,0,0,0,1.20819,8.44794l11.76263,11.76215a7.119,7.119,0,1,0,10.06793-10.06769Zm-13.50836-3.94293a20,20,0,1,1,0-28.2843A19.9384,19.9384,0,0,1,109.64728,88.14215Zm22.44238,22.94434a3.11907,3.11907,0,0,1-4.41095,0L115.91614,99.32434a3.119,3.119,0,0,1,4.41095-4.41083l11.76257,11.76215A3.11892,3.11892,0,0,1,132.08966,111.08649Z" class="color2d4356 svgShape"></path>
<path fill="#563560" d="M95.50476,90a15.98673,15.98673,0,0,0,5.54028-1H89.96448A15.98673,15.98673,0,0,0,95.50476,90Z" class="color2d4356 svgShape"></path>
<path fill="#a783b2" d="M106.99957,81h-25.866a15.89915,15.89915,0,0,0,2.77234,4h23.09369c.03918,0,.07581-.00934.11444-.01154a15.98586,15.98586,0,0,0,1.84949-2.34662A1.99754,1.99754,0,0,0,106.99957,81Z" class="color0bceb2 svgShape"></path>
<path fill="#563560" d="M106.99957,73H79.55945a16.11912,16.11912,0,0,0,.23639,4h27.20374a2,2,0,1,0,0-4Z" class="color2d4356 svgShape"></path>
<path fill="#a783b2" d="M106.99957,65H82.28522a15.85527,15.85527,0,0,0-1.9613,4h26.67566a2,2,0,1,0,0-4Z" class="color0bceb2 svgShape"></path>
<path fill="#563560" d="M95.50476 58a15.87159 15.87159 0 00-9.30554 3H104.8103A15.87173 15.87173 0 0095.50476 58zM82.58782 10.19658a3 3 0 10-3-3A3.00344 3.00344 0 0082.58782 10.19658zm0-4.5a1.5 1.5 0 11-1.5 1.5A1.50148 1.50148 0 0182.58782 5.69658zM35.25448 3a2 2 0 102 2A2.00229 2.00229 0 0035.25448 3zm0 3a1 1 0 111-1A1.001 1.001 0 0135.25448 6zM135.7003 3.86325a2 2 0 102 2A2.00229 2.00229 0 00135.7003 3.86325zm0 3a1 1 0 111-1A1.001 1.001 0 01135.7003 6.86325zM113.53363 16.18517a2 2 0 102 2A2.00229 2.00229 0 00113.53363 16.18517zm0 3a1 1 0 111-1A1.001 1.001 0 01113.53363 19.18517zM21.42115 51a2 2 0 10-2 2A2.00229 2.00229 0 0021.42115 51zm-3 0a1 1 0 111 1A1.001 1.001 0 0118.42115 51z" class="color2d4356 svgShape"></path>
<polygon fill="#a783b2" points="58.17 19.239 59.657 17.284 58.718 16.752 57.763 18.942 57.732 18.942 56.762 16.767 55.807 17.315 57.278 19.224 57.278 19.255 54.977 18.958 54.977 20.022 57.293 19.725 57.293 19.756 55.807 21.664 56.698 22.228 57.716 20.022 57.747 20.022 58.686 22.212 59.672 21.649 58.17 19.771 58.17 19.74 60.532 20.022 60.532 18.958 58.17 19.271 58.17 19.239" class="color0bceb2 svgShape"></polygon>
<polygon fill="#a783b2" points="4.963 26.153 4.107 27.252 4.621 27.577 5.207 26.306 5.225 26.306 5.765 27.568 6.333 27.243 5.468 26.162 5.468 26.144 6.828 26.306 6.828 25.694 5.468 25.874 5.468 25.856 6.324 24.73 5.784 24.423 5.234 25.684 5.216 25.684 4.658 24.432 4.107 24.747 4.955 25.847 4.955 25.865 3.63 25.694 3.63 26.306 4.963 26.135 4.963 26.153" class="color0bceb2 svgShape"></polygon>
<polygon fill="#a783b2" points="141.149 46.521 141.149 45.478 138.832 45.785 138.832 45.754 140.29 43.836 139.369 43.314 138.433 45.462 138.402 45.462 137.451 43.329 136.514 43.867 137.957 45.739 137.957 45.77 135.7 45.478 135.7 46.521 137.972 46.23 137.972 46.261 136.514 48.133 137.389 48.686 138.387 46.521 138.417 46.521 139.338 48.67 140.305 48.118 138.832 46.276 138.832 46.245 141.149 46.521" class="color0bceb2 svgShape"></polygon>
<polygon fill="#a783b2" points="160.773 20.151 162.03 18.497 161.236 18.047 160.429 19.899 160.402 19.899 159.581 18.059 158.773 18.523 160.018 20.138 160.018 20.165 158.071 19.913 158.071 20.813 160.031 20.562 160.031 20.588 158.773 22.203 159.528 22.68 160.389 20.813 160.415 20.813 161.209 22.666 162.043 22.19 160.773 20.601 160.773 20.575 162.771 20.813 162.771 19.913 160.773 20.178 160.773 20.151" class="color0bceb2 svgShape"></polygon>
<circle cx="2" cy="149" r="2" fill="#563560" class="color2d4356 svgShape"></circle>
<path fill="#563560" d="M11 147H8a2 2 0 000 4h3a2 2 0 000-4zM160 147h-3a2 2 0 000 4h3a2 2 0 000-4z" class="color2d4356 svgShape"></path>
<circle cx="166" cy="149" r="2" fill="#563560" class="color2d4356 svgShape"></circle>
<path fill="#a783b2" d="M118.15387 155h-8.30774a2.00641 2.00641 0 000 4h8.30774a2.00641 2.00641 0 000-4zM58.15387 155H49.84613a2.00641 2.00641 0 000 4h8.30774a2.00641 2.00641 0 000-4zM104 155H64a2 2 0 000 4H79.94v2H72a2 2 0 000 4H97a2 2 0 000-4H88.06v-2H104a2 2 0 000-4z" class="color0bceb2 svgShape"></path>
<path fill="#563560" d="M150.72131,147H116.65277a5.96038,5.96038,0,0,0,.35-2V111.72443l-4.00012-4V145a2.00262,2.00262,0,0,1-2.00006,2H37.00018a2.00266,2.00266,0,0,1-2.00006-2V127h8.00024v.74622c-.00006.00995-.00293.01917-.00293.02917v9.46289c0,.01007.00287.01935.00293.02936V139h-2.546a2,2,0,1,0,0,4h4.54608a1.99354,1.99354,0,0,0,1.97607-1.762c.12561.00183.254.003.38647.003.41064,0,.85114-.00806,1.27777-.016.283-.00531.559-.01068.81134-.01257a5.986,5.986,0,0,0,1.37061.61481,4.00193,4.00193,0,0,0,1.1438.16809c.00177,0,.3623.00018.49982.00134.035.00092.06989.00134.1051.00134h2.25531l2.17.002.55139-.00043q.10547-.00027.20807-.00433v.00281h3.80151a5.43142,5.43142,0,0,0,5.38544-5.43848,5.49512,5.49512,0,0,0,.85626-2.95544q0-.15994-.00891-.3183a5.49418,5.49418,0,0,0,.65424-2.60846q0-.2363-.02-.46918a5.4703,5.4703,0,0,0,.57355-2.44293,5.19785,5.19785,0,0,0-5.3866-5.23932l-2.158-.002a5.30518,5.30518,0,0,0,.00055-.858c-.14789-1.50525-.53943-5.489-3.77966-7.08a5.47632,5.47632,0,0,0-2.4494-.586q-.14,0-.28015.00751a5.41155,5.41155,0,0,0-3.30286,1.39484,6.22479,6.22479,0,0,0-1.86444,5.24438c.00537.11713.01215.2337.01215.34747v.33838c-.272.59351-.84271,1.62714-1.3,2.43671l-1.50867.00616c-.12939.00055-.25146.027-.37762.03949A1.99126,1.99126,0,0,0,45.00049,123H35.00012V37a2.00266,2.00266,0,0,1,2.00006-2H52.00067v4a6.00669,6.00669,0,0,0,6.00024,6H90.002a6.00664,6.00664,0,0,0,6.00018-6V35h15.00049a2.00262,2.00262,0,0,1,2.00006,2V52.14368a28.4732,28.4732,0,0,1,2.3009,2.05707c.59857.59851,1.16235,1.22241,1.69922,1.864V37a6.00664,6.00664,0,0,0-6.00018-6H90.002V29a6.00668,6.00668,0,0,0-6.00018-6H64.0011a6.00664,6.00664,0,0,0-6.00018,6v2H37.00018A6.00664,6.00664,0,0,0,31,37V145a5.96038,5.96038,0,0,0,.35,2H17.27869a2.017,2.017,0,1,0,0,4H150.72131a2.017,2.017,0,1,0,0-4ZM47.00055,127.77539l3.30743-.01349h.00275a.90133.90133,0,0,0,.7572-.4389c.70825-1.25415,2.72217-4.64331,2.72217-5.40259v-.92621c0-.91376-.2251-1.94739.50494-2.598a1.45042,1.45042,0,0,1,.86578-.39453c.02155-.00116.043-.00171.06445-.00171a1.55425,1.55425,0,0,1,.68628.17645c1.17914.579,1.44324,2.6734,1.56134,3.87524a21.93767,21.93767,0,0,1-.76562,3.86981c-.16626.59412.64856.59869.64856.59869l6.25592.00574a1.24181,1.24181,0,0,1,1.38641,1.23932,1.43941,1.43941,0,0,1-1.32043,1.46283c-.08185.00543-.13324.068-.02374.12732a1.49968,1.49968,0,0,1,.79065,1.322,1.42806,1.42806,0,0,1-1.38751,1.465s-.20032.06085-.03387.14679a1.46931,1.46931,0,0,1,.77606,1.315,1.426,1.426,0,0,1-1.38287,1.46661h-.13361c-.05365,0-.112.01563-.12134.08081a.092.092,0,0,0,.04175.086,1.51035,1.51035,0,0,1,.73987,1.29553,1.42573,1.42573,0,0,1-1.38538,1.465H57.75623c0,.00146-.32538.002-.75946.002-.868,0-2.17-.002-2.17-.002H52.57147c.00507-.00214-.60126-.00269-.60126-.00269-.48206-.14435-.84521-.52643-1.30652-.70825a4.02464,4.02464,0,0,0-1.03534-.07532c-.66071,0-1.51587.02924-2.26532.02924-.12421,0-.24542-.00085-.36249-.00275ZM62.001,29a2.00262,2.00262,0,0,1,2.00006-2H84.00177a2.00266,2.00266,0,0,1,2.00006,2v2H62.001Zm-6.00018,6H92.002v4A2.00266,2.00266,0,0,1,90.002,41h-32.001a2.00262,2.00262,0,0,1-2.00006-2Z" class="color2d4356 svgShape"></path></svg>