<svg xmlns="http://www.w3.org/2000/svg" data-name="Layer 1" viewBox="0 0 168 168">
    <path fill="#a783b2"
        d="M39 119H37a2 2 0 000 4h2a2 2 0 000-4zM55 81a2.0001 2.0001 0 002-2V77a2 2 0 00-4 0v2A2.0001 2.0001 0 0055 81zM71 115a2.0001 2.0001 0 00-2 2v2a2 2 0 004 0v-2A2.0001 2.0001 0 0071 115zM105.36377 70.6084l-.66406 4.06934A2.00017 2.00017 0 00107.6416 76.75L111 74.89355 114.35839 76.75a2.06873 2.06873 0 002.11963-.11523 2.00051 2.00051 0 00.82227-1.957l-.66406-4.06934 2.79541-2.86426a1.99961 1.99961 0 00-1.12939-3.373L114.52 63.793l-1.70947-3.64258a2 2 0 00-3.62109 0L107.48 63.793l-3.78223.57813a1.99961 1.99961 0 00-1.12939 3.373zm3.77539-3.02344a1.99958 1.99958 0 001.5083-1.127L111 65.707l.35254.751a1.99958 1.99958 0 001.5083 1.127l.98926.15137-.78174.80176a1.9998 1.9998 0 00-.54248 1.71875l.16357 1-.72168-.39844a1.99817 1.99817 0 00-1.93555 0l-.72168.39844.16357-1a1.9998 1.9998 0 00-.54248-1.71875l-.78174-.80176zM26.36377 90.6084l-.66406 4.06934A2.00017 2.00017 0 0028.6416 96.75L32 94.89355 35.35839 96.75a2.06139 2.06139 0 002.11964-.11523 2.00051 2.00051 0 00.82227-1.957l-.66406-4.06934 2.79541-2.86426a1.99961 1.99961 0 00-1.12939-3.373L35.52 83.793l-1.70947-3.64258a2 2 0 00-3.62109 0L28.48 83.793l-3.78223.57813a1.99961 1.99961 0 00-1.12939 3.373zM30.13916 87.585a1.99958 1.99958 0 001.5083-1.127L32 85.707l.35254.751a1.99958 1.99958 0 001.5083 1.127l.98926.15137-.78174.80176a1.9998 1.9998 0 00-.54248 1.71875l.16357 1-.72168-.39844a1.99817 1.99817 0 00-1.93555 0l-.72168.39844.16357-1a1.9998 1.9998 0 00-.54248-1.71875l-.78174-.80176z" />
    <path fill="#563560"
        d="M82.58782 22.19658a3 3 0 10-3-3A3.00344 3.00344 0 0082.58782 22.19658zm0-4.5a1.5 1.5 0 11-1.5 1.5A1.50148 1.50148 0 0182.58782 17.69658zM35.25448 15a2 2 0 102 2A2.00229 2.00229 0 0035.25448 15zm0 3a1 1 0 111-1A1.001 1.001 0 0135.25448 18zM135.7003 15.86325a2 2 0 102 2A2.00229 2.00229 0 00135.7003 15.86325zm0 3a1 1 0 111-1A1.001 1.001 0 01135.7003 18.86325zM108.1499 36.44658a2 2 0 102 2A2.00229 2.00229 0 00108.1499 36.44658zm0 3a1 1 0 111-1A1.001 1.001 0 01108.1499 39.44658zM23.42115 56.36325a2 2 0 10-2 2A2.00229 2.00229 0 0023.42115 56.36325zm-3 0a1 1 0 111 1A1.001 1.001 0 0120.42115 56.36325z" />
    <polygon fill="#a783b2"
        points="55.393 44.36 56.879 42.404 55.94 41.872 54.986 44.062 54.954 44.062 53.985 41.887 53.029 42.435 54.501 44.344 54.501 44.375 52.2 44.078 52.2 45.142 54.516 44.845 54.516 44.876 53.029 46.785 53.921 47.348 54.939 45.142 54.97 45.142 55.909 47.332 56.895 46.769 55.393 44.891 55.393 44.86 57.754 45.142 57.754 44.078 55.393 44.391 55.393 44.36" />
    <polygon fill="#a783b2"
        points="6.563 28.482 5.707 29.581 6.22 29.905 6.806 28.634 6.824 28.634 7.365 29.896 7.933 29.572 7.068 28.49 7.068 28.472 8.428 28.634 8.428 28.022 7.068 28.202 7.068 28.184 7.924 27.058 7.383 26.752 6.834 28.013 6.815 28.013 6.257 26.76 5.707 27.076 6.554 28.175 6.554 28.193 5.229 28.022 5.229 28.634 6.563 28.463 6.563 28.482" />
    <polygon fill="#a783b2"
        points="141.149 54.164 141.149 53.121 138.832 53.427 138.832 53.397 140.29 51.479 139.369 50.957 138.433 53.105 138.402 53.105 137.451 50.972 136.514 51.509 137.957 53.382 137.957 53.412 135.7 53.121 135.7 54.164 137.972 53.873 137.972 53.903 136.514 55.775 137.389 56.328 138.387 54.164 138.417 54.164 139.338 56.313 140.305 55.76 138.832 53.918 138.832 53.888 141.149 54.164" />
    <polygon fill="#a783b2"
        points="160.773 32.151 162.03 30.497 161.236 30.047 160.429 31.899 160.402 31.899 159.581 30.059 158.773 30.523 160.018 32.138 160.018 32.165 158.071 31.913 158.071 32.813 160.031 32.562 160.031 32.588 158.773 34.203 159.528 34.68 160.389 32.813 160.415 32.813 161.209 34.666 162.043 34.19 160.773 32.601 160.773 32.575 162.771 32.813 162.771 31.913 160.773 32.178 160.773 32.151" />
    <circle cx="2" cy="137" r="2" fill="#563560" />
    <path fill="#563560"
        d="M11 135H8a2 2 0 000 4h3a2 2 0 000-4zM160 135h-3a2 2 0 000 4h3a2 2 0 000-4z" />
    <circle cx="166" cy="137" r="2" fill="#563560" />
    <path fill="#a783b2"
        d="M118.15387 143h-8.30774a2.00641 2.00641 0 000 4h8.30774a2.00641 2.00641 0 000-4zM58.15387 143H49.84613a2.00641 2.00641 0 000 4h8.30774a2.00641 2.00641 0 000-4zM104 143H64a2 2 0 000 4H79.94v2H72a2 2 0 000 4H97a2 2 0 000-4H88.06v-2H104a2 2 0 000-4z" />
    <path fill="#563560"
        d="M150.72131,135H148v-4a4.00427,4.00427,0,0,0-4-4h-2.35a5.96038,5.96038,0,0,0,.35-2v-6a5.96879,5.96879,0,0,0-1.54047-4A5.96879,5.96879,0,0,0,142,111v-6a6.00656,6.00656,0,0,0-6-6h-1.35a5.96038,5.96038,0,0,0,.35-2V91a6.00656,6.00656,0,0,0-6-6H91a6.00656,6.00656,0,0,0-6,6v6a6.00656,6.00656,0,0,0,6,6h1.35a5.96038,5.96038,0,0,0-.35,2v6a5.96879,5.96879,0,0,0,1.54047,4A5.96879,5.96879,0,0,0,92,119v6a5.96038,5.96038,0,0,0,.35,2H80.65a5.96038,5.96038,0,0,0,.35-2V71a6.00656,6.00656,0,0,0-6-6H67a5.96879,5.96879,0,0,0-4,1.54047A5.96879,5.96879,0,0,0,59,65H51a6.00656,6.00656,0,0,0-6,6v40H31a6.00656,6.00656,0,0,0-6,6v8a5.96038,5.96038,0,0,0,.35,2H24a4.00427,4.00427,0,0,0-4,4v4H17.27869a2.017,2.017,0,1,0,0,4H150.72131a2.017,2.017,0,1,0,0-4ZM132,103h4a2.00229,2.00229,0,0,1,2,2v6a2.00229,2.00229,0,0,1-2,2h-4Zm0,14h4a2.00229,2.00229,0,0,1,2,2v6a2.00229,2.00229,0,0,1-2,2h-4Zm-7-28h4a2.00229,2.00229,0,0,1,2,2v6a2.00229,2.00229,0,0,1-2,2h-4Zm-1,14h4v10h-4Zm0,14h4v10h-4Zm-7-28h4V99h-4ZM98,113a2.00229,2.00229,0,0,1-2-2v-6a2.00229,2.00229,0,0,1,2-2h22v10Zm22,4v10H98a2.00229,2.00229,0,0,1-2-2v-6a2.00229,2.00229,0,0,1,2-2ZM91,99a2.00229,2.00229,0,0,1-2-2V91a2.00229,2.00229,0,0,1,2-2h22V99ZM65,71a2.00229,2.00229,0,0,1,2-2h8a2.00229,2.00229,0,0,1,2,2v6H65Zm0,10H77v4H65Zm0,8H77v36a2.00229,2.00229,0,0,1-2,2H67a2.00229,2.00229,0,0,1-2-2ZM49,71a2.00229,2.00229,0,0,1,2-2h8a2.00229,2.00229,0,0,1,2,2v36H49Zm0,40H61v4H49Zm0,8H61v6a2.00229,2.00229,0,0,1-2,2H51a2.00229,2.00229,0,0,1-2-2Zm-20-2a2.00229,2.00229,0,0,1,2-2H45v10a5.96038,5.96038,0,0,0,.35,2H31a2.00229,2.00229,0,0,1-2-2Zm-5,18v-4H144l.00244,4Z" />
</svg>