<svg xmlns="http://www.w3.org/2000/svg" viewBox="0 0 64 64">
    <path fill="#563560"
        d="M56.323,8.815L34.128,1.346c-1.373-.462-2.884-.462-4.257,0L7.677,8.815c-3.155,1.062-5.056,4.327-4.424,7.594l6.557,33.87c.405,2.09,1.797,3.875,3.725,4.777l15.638,7.313c.898,.42,1.863,.631,2.827,.631s1.929-.211,2.827-.631l15.638-7.313c1.928-.902,3.321-2.687,3.725-4.777l6.557-33.87c.633-3.267-1.269-6.532-4.424-7.594Z" />
    <path fill="#F3E7FA"
        d="M58.721,16.017l-6.557,33.869c-.279,1.444-1.241,2.678-2.574,3.3l-15.638,7.313c-1.241,.58-2.665,.58-3.907,0l-15.638-7.313c-1.332-.623-2.294-1.856-2.574-3.3L5.279,16.017c-.437-2.257,.877-4.513,3.056-5.246L30.53,3.302c.474-.16,.972-.239,1.47-.239s.996,.08,1.47,.239l22.195,7.469c2.179,.734,3.493,2.989,3.056,5.246Z" />
    <path fill="#563560"
        d="M34.31,12.194c-.275-.722-.945-1.168-1.724-1.173-.772,.009-1.438,.485-1.696,1.213l-11.662,32.921c-.316,.891-.266,1.852,.141,2.705,.406,.853,1.122,1.497,2.013,1.813,.891,.316,1.851,.266,2.706-.141,.853-.407,1.497-1.122,1.813-2.013l3.189-9.001h7.668l3.465,9.099c.337,.884,.997,1.583,1.859,1.97,.463,.208,.954,.312,1.447,.312,.425,0,.852-.078,1.261-.234h0c.884-.337,1.583-.997,1.97-1.86,.387-.863,.414-1.825,.078-2.708L34.31,12.194Z" />
    <path fill="#fff"
        d="M44.877,46.96c-.161,.36-.453,.635-.822,.776-.368,.141-.769,.128-1.129-.033-.36-.161-.635-.453-.775-.822l-3.718-9.763c-.152-.4-.536-.665-.964-.665h-9.108c-.437,0-.827,.275-.972,.687l-3.432,9.688c-.132,.371-.4,.67-.756,.84-.354,.169-.754,.192-1.128,.059-.371-.132-.67-.4-.839-.756s-.191-.756-.059-1.128L32.615,13.543l12.294,32.288c.141,.369,.129,.769-.033,1.129Z" />
    <path fill="#563560"
        d="M33.714,24.726c-.152-.4-.537-.665-.964-.665h-.012c-.432,.005-.816,.279-.96,.687l-2.613,7.376c-.112,.316-.064,.667,.13,.94,.193,.273,.507,.436,.843,.436h5.421c.339,0,.657-.167,.85-.446,.193-.279,.236-.636,.115-.953l-2.809-7.376Z" />
    <polygon fill="#F3E7FA" points="31.597 31.438 32.785 28.085 34.062 31.438 31.597 31.438" />
</svg>