<svg xmlns="http://www.w3.org/2000/svg" fill="none" viewBox="0 0 40 40">
    <path fill="#563560" fill-rule="evenodd"
        d="M5.23224 6.35925C5.42224 6.1316 5.70347 6 5.99999 6H34C34.2965 6 34.5777 6.1316 34.7677 6.35925C34.9577 6.58691 35.0369 6.88715 34.9839 7.17889L30.9839 29.1789C30.9223 29.5175 30.6909 29.8007 30.3714 29.9285L20.3714 33.9285C20.133 34.0238 19.867 34.0238 19.6286 33.9285L9.6286 29.9285C9.30905 29.8007 9.07768 29.5175 9.01612 29.1789L5.01612 7.17889C4.96308 6.88714 5.04224 6.58691 5.23224 6.35925ZM7.19821 8L10.8849 28.2769L20 31.923L29.1151 28.2769L32.8018 8H7.19821ZM12 12C12 11.4477 12.4477 11 13 11H27C27.4638 11 27.8667 11.3189 27.9732 11.7702C28.0798 12.2216 27.862 12.687 27.4472 12.8944L19.2361 17H26C26.3138 17 26.6094 17.1473 26.7983 17.3978C26.9873 17.6483 27.0477 17.973 26.9615 18.2747L24.9615 25.2747C24.8845 25.5442 24.6979 25.7691 24.4472 25.8944L20.4472 27.8944C20.1657 28.0352 19.8343 28.0352 19.5528 27.8944L15.5528 25.8944C15.3156 25.7758 15.1352 25.5678 15.0513 25.3162L14.0513 22.3162C13.8767 21.7923 14.1598 21.226 14.6838 21.0513C15.2077 20.8767 15.774 21.1598 15.9487 21.6838L16.8177 24.2908L20 25.882L23.1593 24.3023L24.6743 19H15C14.5362 19 14.1333 18.6811 14.0267 18.2298C13.9202 17.7784 14.138 17.313 14.5528 17.1056L22.7639 13H13C12.4477 13 12 12.5523 12 12Z"
        clip-rule="evenodd" />
</svg>