<svg xmlns="http://www.w3.org/2000/svg" data-name="Layer 1" viewBox="0 0 168 168" width="256"
    height="256">
    <circle cx="2" cy="150" r="2" fill="#563560" class="color2d4356 svgShape"></circle>
    <path fill="#563560"
        d="M11 148H8a2 2 0 0 0 0 4h3a2 2 0 0 0 0-4zm149 0h-3a2 2 0 0 0 0 4h3a2 2 0 0 0 0-4z"
        class="color2d4356 svgShape"></path>
    <circle cx="166" cy="150" r="2" fill="#563560" class="color2d4356 svgShape"></circle>
    <path fill="#a783b2"
        d="M118.154 156h-8.308a2.006 2.006 0 0 0 0 4h8.308a2.006 2.006 0 0 0 0-4zm-60 0h-8.308a2.006 2.006 0 0 0 0 4h8.308a2.006 2.006 0 0 0 0-4zM104 156H64a2 2 0 0 0 0 4h15.94v2H72a2 2 0 0 0 0 4h25a2 2 0 0 0 0-4h-8.94v-2H104a2 2 0 0 0 0-4zm5-68a25 25 0 1 0-25 25 25.028 25.028 0 0 0 25-25zm-46 0a21 21 0 1 1 21 21 21.024 21.024 0 0 1-21-21z"
        class="color0bceb2 svgShape"></path>
    <path fill="#563560"
        d="M150.721 148H90.607c3.606-4.7 6.392-13.174 8.306-23.459 2.549 1.77 5.038 3.382 7.433 4.795 5.679 3.35 12.622 6.65 17.933 6.65a7.692 7.692 0 0 0 5.665-2.042c2.11-2.11 2.4-5.331 1.67-8.96a6.987 6.987 0 0 0-5.22-12.79 83.583 83.583 0 0 0-1.058-1.848c-1.413-2.395-3.025-4.884-4.795-7.433C136.423 99.958 148 94.925 148 88s-11.577-11.958-27.459-14.913c1.77-2.549 3.382-5.038 4.795-7.433.355-.602.708-1.22 1.057-1.847a6.99 6.99 0 0 0 5.221-12.79c.73-3.63.44-6.851-1.67-8.961-4.84-4.841-15.505-.166-23.598 4.608-2.397 1.413-4.887 3.027-7.437 4.798-.691-3.71-1.497-7.178-2.412-10.326a6.975 6.975 0 0 0 1.646-1.219 7.068 7.068 0 0 0 0-9.9 7.3 7.3 0 0 0-7.276-1.648C88.84 25.591 86.55 24 84 24c-6.925 0-11.958 11.577-14.913 27.459-2.549-1.77-5.038-3.382-7.433-4.795-8.093-4.773-18.759-9.451-23.598-4.608-2.11 2.11-2.4 5.331-1.67 8.96a6.987 6.987 0 0 0 5.22 12.79c.35.629.703 1.246 1.058 1.848 1.413 2.395 3.025 4.884 4.795 7.433C31.577 76.042 20 81.075 20 88s11.577 11.958 27.459 14.913c-1.77 2.549-3.382 5.038-4.795 7.433-.355.602-.708 1.22-1.057 1.847a6.99 6.99 0 0 0-5.221 12.79c-.73 3.63-.44 6.851 1.67 8.961a7.691 7.691 0 0 0 5.665 2.041c5.31 0 12.255-3.3 17.933-6.65 2.397-1.412 4.887-3.026 7.437-4.797.691 3.71 1.497 7.178 2.412 10.326a6.986 6.986 0 0 0-3.695 6.169A7.198 7.198 0 0 0 74.195 148H17.279a2.017 2.017 0 1 0 0 4H150.72a2.017 2.017 0 1 0 0-4zM128 116a3 3 0 1 1-3 3 3.003 3.003 0 0 1 3-3zm3-59a3 3 0 1 1-3-3 3.003 3.003 0 0 1 3 3zM91.071 32.846a3 3 0 1 1 0 4.243 3.03 3.03 0 0 1 0-4.243zM40 60a3 3 0 1 1 3-3 3.003 3.003 0 0 1-3 3zm-3 59a3 3 0 1 1 3 3 3.003 3.003 0 0 1-3-3zm34.503-4.835a29.017 29.017 0 0 1-4.274-2.529q.469 4.394 1.12 8.537c-3.007 2.148-5.933 4.07-8.726 5.718-11.114 6.553-16.966 6.994-18.739 5.225-.81-.81-1.14-2.495-.65-5.128a6.984 6.984 0 0 0 4.838-11.799c.327-.587.67-1.189 1.037-1.811 1.647-2.792 3.567-5.715 5.713-8.721 2.758.429 5.615.802 8.542 1.114a29.015 29.015 0 0 1-2.529-4.274c-1.147-.14-2.263-.291-3.358-.448.678-.894 1.366-1.792 2.08-2.697a28.725 28.725 0 0 1-1.211-4.88q-2.832 3.477-5.337 6.87C33.425 96.457 24 91.755 24 88s9.425-8.456 26.01-11.343q2.497 3.386 5.336 6.872a28.725 28.725 0 0 1 1.21-4.881 175.673 175.673 0 0 1-2.079-2.697c1.095-.157 2.211-.308 3.358-.448a29.02 29.02 0 0 1 2.529-4.274c-2.927.312-5.784.685-8.542 1.114-2.146-3.006-4.066-5.929-5.713-8.72a85.367 85.367 0 0 1-1.037-1.812 6.984 6.984 0 0 0-4.837-11.8c-.49-2.632-.161-4.317.65-5.127a4.018 4.018 0 0 1 2.906-.893c3.052 0 8.202 1.62 15.832 6.118 2.791 1.647 5.714 3.567 8.72 5.713a179.738 179.738 0 0 0-1.114 8.542 29.017 29.017 0 0 1 4.274-2.529c.14-1.147.291-2.263.448-3.357.894.677 1.792 1.365 2.697 2.078a28.726 28.726 0 0 1 4.88-1.21q-3.477-2.833-6.87-5.337C75.543 37.425 80.245 28 84 28c1.163 0 2.418.915 3.68 2.66a6.989 6.989 0 0 0 4.906 11.275 109.086 109.086 0 0 1 2.75 12.079q-3.382 2.496-6.865 5.332a28.726 28.726 0 0 1 4.881 1.21c.906-.713 1.804-1.402 2.699-2.08q.235 1.64.446 3.359a29.02 29.02 0 0 1 4.274 2.529q-.469-4.394-1.12-8.537c3.007-2.148 5.933-4.07 8.726-5.718 7.63-4.5 12.78-6.118 15.832-6.118a4.023 4.023 0 0 1 2.907.893c.81.81 1.14 2.495.649 5.128a6.984 6.984 0 0 0-4.837 11.799 85.28 85.28 0 0 1-1.037 1.811c-1.647 2.792-3.567 5.715-5.713 8.721a179.729 179.729 0 0 0-8.542-1.114 29.02 29.02 0 0 1 2.529 4.274c1.147.14 2.263.291 3.358.448-.678.894-1.366 1.792-2.08 2.697a28.725 28.725 0 0 1 1.211 4.88q2.832-3.477 5.337-6.871C134.575 79.544 144 84.246 144 88s-9.425 8.456-26.01 11.343q-2.497-3.386-5.336-6.872a28.725 28.725 0 0 1-1.21 4.881c.713.905 1.401 1.803 2.079 2.697-1.095.157-2.211.307-3.358.448a29.015 29.015 0 0 1-2.529 4.274c2.927-.312 5.784-.685 8.542-1.114 2.146 3.006 4.066 5.929 5.713 8.72.366.623.71 1.225 1.037 1.812a6.984 6.984 0 0 0 4.837 11.799c.49 2.633.161 4.318-.65 5.128-1.772 1.772-7.624 1.327-18.738-5.225-2.791-1.647-5.714-3.567-8.72-5.713.429-2.758.802-5.615 1.114-8.542a29.02 29.02 0 0 1-4.274 2.529c-.14 1.147-.291 2.263-.448 3.357a175.512 175.512 0 0 1-2.697-2.078 28.726 28.726 0 0 1-4.88 1.21q3.477 2.833 6.87 5.337C92.457 138.575 87.755 148 84 148c-1.163 0-2.418-.915-3.68-2.66a6.99 6.99 0 0 0-.562-9.257 6.967 6.967 0 0 0-4.344-2.018 109.07 109.07 0 0 1-2.75-12.079q3.382-2.496 6.865-5.332a28.726 28.726 0 0 1-4.881-1.21c-.906.713-1.804 1.402-2.699 2.08q-.235-1.64-.446-3.359zm.305 26.868a3 3 0 0 1 6 0 2.98 2.98 0 0 1-.88 2.121 3.058 3.058 0 0 1-5.12-2.12zm5.325 6.598c.095.13.193.244.29.369h-2.236a7.047 7.047 0 0 0 1.946-.37zM8.482 16.96a3 3 0 1 0-2.994-3.007 3.003 3.003 0 0 0 2.994 3.006zm.008-4.5a1.5 1.5 0 1 1-1.503 1.496A1.501 1.501 0 0 1 8.49 12.46zm152.026 29.546a2 2 0 1 0 1.996 2.004 2.002 2.002 0 0 0-1.996-2.004zm-.005 3a1 1 0 1 1 1.001-.998 1.001 1.001 0 0 1-1.001.998zM108.83 5.666a2 2 0 1 0 1.996 2.004 2.002 2.002 0 0 0-1.996-2.004zm-.005 3a1 1 0 1 1 1.001-.998 1.001 1.001 0 0 1-1.001.998zM157.094 2a2 2 0 1 0 1.997 2.004A2.002 2.002 0 0 0 157.094 2zm-.005 3a1 1 0 1 1 1.002-.998 1.001 1.001 0 0 1-1.002.998zM52.794 27.88a2 2 0 1 0-2.004 1.996 2.002 2.002 0 0 0 2.004-1.996zm-3-.006a1 1 0 1 1 .998 1.002 1.001 1.001 0 0 1-.998-1.002z"
        class="color2d4356 svgShape"></path>
    <path fill="#a783b2"
        d="m9.057 49.346 1.49-1.953-.938-.534-.958 2.188h-.032l-.965-2.176-.957.546 1.468 1.912v.031l-2.3-.302-.003 1.064 2.317-.293v.032l-1.49 1.905.89.566 1.022-2.205h.031l.935 2.193.987-.562-1.499-1.88.001-.032 2.361.287.002-1.064-2.363.308.001-.031zM65.038 4.489l-.859 1.098.513.325.589-1.269h.017l.539 1.262.568-.323-.863-1.083v-.018l1.36.165.001-.613-1.36.178v-.018l.858-1.125-.54-.307-.552 1.26h-.018l-.556-1.253-.551.314.845 1.101v.018l-1.324-.174-.002.613 1.335-.169v.018zM137.618 21.252l.002-1.044-2.318.303.001-.031 1.462-1.915-.92-.524-.941 2.147-.031-.001-.947-2.134-.938.535 1.44 1.875v.031l-2.256-.296-.003 1.043 2.273-.286v.03l-1.462 1.869.873.555 1.003-2.163.03.001.917 2.15.968-.55-1.47-1.845.001-.031 2.316.281zM107.544 30.312l1.261-1.653-.794-.451-.811 1.851h-.027l-.816-1.841-.81.461 1.242 1.618v.027l-1.946-.256-.002.9 1.96-.247v.026l-1.261 1.612.754.479.865-1.865h.026l.79 1.855.836-.475-1.268-1.591v-.027l1.998.242.002-.9-1.999.261v-.026z"
        class="color0bceb2 svgShape"></path>
</svg>