<svg xmlns="http://www.w3.org/2000/svg" viewBox="0 0 168 168">
<path fill="#a783b2" d="M112,105a19,19,0,1,0,19,19A19.02161,19.02161,0,0,0,112,105Zm0,34a15,15,0,1,1,15-15A15.01672,15.01672,0,0,1,112,139Z"/>
<path fill="#563560" d="M117.2002 125.40039L114 123v-8a2 2 0 00-4 0v9a1.998 1.998 0 00.7998 1.59961l4 3a1.9998 1.9998 0 102.40039-3.19922zM79 123H35a2.00229 2.00229 0 01-2-2V29a2.00229 2.00229 0 012-2H54v2a6.00656 6.00656 0 006 6H80a6.00656 6.00656 0 006-6V27h21a2.00229 2.00229 0 012 2V91a2 2 0 004 0V29a6.00656 6.00656 0 00-6-6H35a6.00656 6.00656 0 00-6 6v92a6.00656 6.00656 0 006 6H79a2 2 0 000-4zM58 27H82v2a2.00229 2.00229 0 01-2 2H60a2.00229 2.00229 0 01-2-2z"/>
<path fill="#a783b2" d="M47,45H95a2,2,0,0,0,0-4H47a2,2,0,0,0,0,4Z"/>
<path fill="#563560" d="M47,53H95a2,2,0,0,0,0-4H47a2,2,0,0,0,0,4Z"/>
<path fill="#a783b2" d="M63 65a8 8 0 108-8A8.00917 8.00917 0 0063 65zm12 0a4 4 0 11-4-4A4.00427 4.00427 0 0175 65zM63 93a8 8 0 108-8A8.00917 8.00917 0 0063 93zm12 0a4 4 0 11-4-4A4.00427 4.00427 0 0175 93zM37 111a8 8 0 108-8A8.00917 8.00917 0 0037 111zm12 0a4 4 0 11-4-4A4.00427 4.00427 0 0149 111z"/>
<path fill="#563560" d="M105 72a9.01015 9.01015 0 00-9-9H85a2 2 0 000 4H96a5 5 0 010 10H46a9 9 0 000 18H57a2 2 0 000-4H46a5 5 0 010-10H96A9.01015 9.01015 0 00105 72zM81 109H73v-2a2 2 0 00-4 0v2H59a2 2 0 000 4H81a2 2 0 000-4zM121 9a3 3 0 10-3-3A3.00344 3.00344 0 00121 9zm0-4.5A1.5 1.5 0 11119.5 6 1.50148 1.50148 0 01121 4.5zM23.16667 25a2 2 0 102 2A2.00229 2.00229 0 0023.16667 25zm0 3a1 1 0 111-1A1.001 1.001 0 0123.16667 28zM49 6a2 2 0 102 2A2.00229 2.00229 0 0049 6zm0 3a1 1 0 111-1A1.001 1.001 0 0149 9zM159 41a2 2 0 102 2A2.00229 2.00229 0 00159 41zm0 3a1 1 0 111-1A1.001 1.001 0 01159 44zM8 9a2 2 0 10-2 2A2.00229 2.00229 0 008 9zM5 9a1 1 0 111 1A1.001 1.001 0 015 9z"/>
<polygon fill="#a783b2" points="84.415 14.535 85.902 12.58 84.963 12.048 84.009 14.238 83.977 14.238 83.008 12.063 82.052 12.611 83.524 14.52 83.524 14.551 81.223 14.254 81.223 15.317 83.539 15.021 83.539 15.052 82.052 16.96 82.944 17.524 83.962 15.317 83.992 15.317 84.931 17.508 85.917 16.945 84.415 15.067 84.415 15.036 86.777 15.317 86.777 14.254 84.415 14.566 84.415 14.535"/>
<polygon fill="#a783b2" points="11.334 52.73 10.478 53.829 10.991 54.154 11.577 52.883 11.595 52.883 12.136 54.144 12.704 53.82 11.839 52.739 11.839 52.721 13.199 52.883 13.199 52.27 11.839 52.45 11.839 52.432 12.695 51.306 12.154 51 11.604 52.261 11.586 52.261 11.028 51.009 10.478 51.324 11.325 52.424 11.325 52.442 10 52.27 10 52.883 11.334 52.712 11.334 52.73"/>
<polygon fill="#a783b2" points="132 30.713 132 29.67 129.683 29.977 129.683 29.946 131.142 28.028 130.221 27.506 129.285 29.654 129.253 29.654 128.302 27.521 127.365 28.059 128.808 29.931 128.808 29.962 126.552 29.67 126.552 30.713 128.823 30.422 128.823 30.453 127.365 32.325 128.24 32.878 129.238 30.713 129.268 30.713 130.189 32.862 131.156 32.31 129.683 30.468 129.683 30.437 132 30.713"/>
<polygon fill="#a783b2" points="157.443 5.586 158.701 3.931 157.907 3.481 157.099 5.334 157.072 5.334 156.252 3.494 155.444 3.958 156.689 5.573 156.689 5.599 154.742 5.348 154.742 6.248 156.702 5.996 156.702 6.023 155.444 7.638 156.198 8.115 157.06 6.248 157.085 6.248 157.88 8.101 158.714 7.625 157.443 6.036 157.443 6.009 159.442 6.248 159.442 5.348 157.443 5.612 157.443 5.586"/>
<circle cx="2" cy="149" r="2" fill="#563560"/>
<path fill="#563560" d="M11 147H8a2 2 0 000 4h3a2 2 0 000-4zM160 147h-3a2 2 0 000 4h3a2 2 0 000-4z"/>
<circle cx="166" cy="149" r="2" fill="#563560"/>
<path fill="#a783b2" d="M118.15387 155h-8.30774a2.00641 2.00641 0 000 4h8.30774a2.00641 2.00641 0 000-4zM58.15387 155H49.84613a2.00641 2.00641 0 000 4h8.30774a2.00641 2.00641 0 000-4zM104 155H64a2 2 0 000 4H79.94v2H72a2 2 0 000 4H97a2 2 0 000-4H88.06v-2H104a2 2 0 000-4z"/>
<path fill="#563560" d="M150.72131,147H126.123A27,27,0,1,0,97.877,147H17.27869a2.017,2.017,0,1,0,0,4H150.72131a2.017,2.017,0,1,0,0-4ZM89,124a23,23,0,1,1,23,23A23.02588,23.02588,0,0,1,89,124Z"/>
</svg>