<svg xmlns="http://www.w3.org/2000/svg" viewBox="0 0 64 64">
<path fill="#563560" d="M3,41H4.82c1.36,0,2.73.06,4.09.19l.18-2C7.67,39.06,6.24,39,4.82,39H4V9h.82A46.54,46.54,0,0,1,25,13.64V35h2V13.64a46.79,46.79,0,0,1,8.26-3.08l-.52-1.93A48.31,48.31,0,0,0,26,11.89,48.6,48.6,0,0,0,4.82,7H3A1,1,0,0,0,2,8V40A1,1,0,0,0,3,41Z"/>
<path fill="#563560" d="M23.38 17.71A48 48 0 0 0 6 14l0 2a46.45 46.45 0 0 1 16.64 3.54zM17.72 23.82l.56-1.92A48.06 48.06 0 0 0 6 20l0 2A46.27 46.27 0 0 1 17.72 23.82zM11.85 28.52l.3-2A48.3 48.3 0 0 0 6 26l0 2A46.2 46.2 0 0 1 11.85 28.52zM48 39h-.82c-1.42 0-2.85.06-4.27.19l.18 2c1.36-.13 2.73-.19 4.09-.19H49a1 1 0 0 0 1-1V33H48zM41 46V38a1 1 0 0 0-1-1H36a1 1 0 0 0-1 1v5.5L31.67 46H29A5 5 0 1 0 23 46h-2.7L17 43.5V38a1 1 0 0 0-1-1H12a1 1 0 0 0-1 1v8a1 1 0 0 0 .4.8L19 52.5V62h2V52a1 1 0 0 0-.4-.8L13 45.5V39h2v5a1 1 0 0 0 .4.8l4 3a1 1 0 0 0 .6.2H32a1 1 0 0 0 .6-.2l4-3A1 1 0 0 0 37 44V39h2v6.5l-7.6 5.7a1 1 0 0 0-.4.8V62h2V52.5l7.6-5.7A1 1 0 0 0 41 46zM26 45a3 3 0 1 1 3-3A3 3 0 0 1 26 45zM48.09 7.05A8.09 8.09 0 0 0 41 14.29a8.21 8.21 0 0 0 1.82 6.08 9.93 9.93 0 0 1 1.91 5.36v1a4.23 4.23 0 1 0 8.46 0V25.57a10 10 0 0 1 2-5.26A8.25 8.25 0 0 0 54.27 9 7.83 7.83 0 0 0 48.09 7.05zm3.14 18.52V26.7a2.23 2.23 0 1 1-4.46 0v-1c0-.23 0-.48 0-.73h4.54A5.66 5.66 0 0 0 51.23 25.57zm1.71-15.06A6.22 6.22 0 0 1 55 15.15a6.29 6.29 0 0 1-1.37 3.91 11.94 11.94 0 0 0-2 3.94H50V19.41l2.71-2.7-1.42-1.42L49 17.59l-2.29-2.3-1.42 1.42L48 19.41V23H46.33a11.66 11.66 0 0 0-1.92-3.9A6.2 6.2 0 0 1 43 14.49 6.08 6.08 0 0 1 48.31 9 5.53 5.53 0 0 1 49 9 5.85 5.85 0 0 1 52.94 10.51z"/>
<rect fill="#563560" width="2" height="3" x="48" y="2"/>
<rect fill="#563560" width="3.16" height="2" x="57.83" y="8.71" transform="rotate(-26.57 59.411 9.713)"/>
<rect fill="#563560" width="2" height="3.16" x="59.12" y="17.32" transform="rotate(-63.43 60.125 18.897)"/>
<rect fill="#563560" width="2" height="3.16" x="37.59" y="8.13" transform="rotate(-63.43 38.592 9.705)"/>
<rect fill="#563560" width="3.16" height="2" x="36.3" y="17.9" transform="rotate(-26.57 37.883 18.893)"/>
</svg>