<svg xmlns="http://www.w3.org/2000/svg" data-name="Layer 1" viewBox="0 0 168 168">
    <circle cx="2" cy="149.107" r="2" fill="#563560" />
    <path fill="#563560"
        d="M11 147.107H8a2 2 0 0 0 0 4h3a2 2 0 0 0 0-4zM160 147.107h-3a2 2 0 0 0 0 4h3a2 2 0 0 0 0-4z" />
    <circle cx="166" cy="149.107" r="2" fill="#563560" />
    <path fill="#a783b2"
        d="M118.15387 155.107h-8.30774a2.00641 2.00641 0 0 0 0 4h8.30774a2.00641 2.00641 0 0 0 0-4zM58.15387 155.107H49.84613a2.00641 2.00641 0 0 0 0 4h8.30774a2.00641 2.00641 0 0 0 0-4zM104 155.107H64a2 2 0 0 0 0 4H79.94v2H72a2 2 0 0 0 0 4H97a2 2 0 0 0 0-4H88.06v-2H104a2 2 0 0 0 0-4z" />
    <path fill="#563560"
        d="M150.72,147.107H85.42a7.81294,7.81294,0,0,0,.87-2.5c1.54-9.22,4.61-27.41,5.78-34.22l-4.37,1.78c-1.36,8.02-3.96,23.45-5.35,31.78a3.79849,3.79849,0,0,1-3.75,3.16c-.1,0-.21,0-.31995-.01a3.80667,3.80667,0,0,1-3.49005-3.78v-29.25l-4-.37v29.62a7.66522,7.66522,0,0,0,1.01,3.79H17.28a2.0172,2.0172,0,1,0,0,4H150.72a2.0172,2.0172,0,1,0,0-4ZM135,89.977v.06a3.56392,3.56392,0,0,1-3,3.51c-6.95,1.12-16.91,2.73-24.31,3.92l-3.9,4.68c7.25-1.17,20.12-3.24,28.85-4.66a7.51737,7.51737,0,0,0,6.36-7.45v-.06a7.65274,7.65274,0,0,0-7.48-7.61c-4.51-.08-12.21-.17-18.58-.2l-.48,3.99c6.54.04,14.49.13,18.99.21A3.60226,3.60226,0,0,1,135,89.977ZM34.9,64.687c2,.31006,4.83.82,7.81995,1.35,5.28.95,11.27,2.02,15.62006,2.57.56995.07,1.14.1,1.65.13a1.69342,1.69342,0,0,0,.23.01c.01.12994.01.25.02.36.03.54.06,1.08.13,1.66a76.13457,76.13457,0,0,0,2.93,14.22c-.04.06-.08.12-.12.19l3.55-2.57a76.55787,76.55787,0,0,1-2.39-12.34c-.2-1.62,0-3.72-.92-4.71-.87-.93005-2.99-.71-4.57-.92-6.75-.86-17.83-3.04-23.33-3.9a2.97406,2.97406,0,0,1-2.48-3.4.12671.12671,0,0,1,.01-.06,2.96716,2.96716,0,0,1,2.93-2.52h2.14c6.45,0,20.33.02,29.65.03h.03a18.4986,18.4986,0,0,0,8.94-2.3,14.99824,14.99824,0,0,0,4.24-3.2,17.52889,17.52889,0,0,0,1.55-1.77c5.37994-7.01,12.04-15.52,14.84-19.23a2.95368,2.95368,0,0,1,4.05-.65l1,.68a3.00437,3.00437,0,0,1,.91,3.93005c-2.65,4.75995-5.27,9.47-7.9,14.17-2.79,5-5.68,9.96-8.37,15.01a8.52377,8.52377,0,0,0-1.05,4.27,16.24134,16.24134,0,0,0,2.62,6.75l4.11-1.02c-2.02-3.02-2.66-4.89-2.74-6a4.62744,4.62744,0,0,1,.59-2.12c1.83-3.43005,3.79-6.89,5.69-10.24005.87994-1.56,1.77-3.13,2.64-4.7,2.14-3.81,4.26-7.63,6.41-11.49005l1.5-2.69a6.96171,6.96171,0,0,0-2.15-9.16l-1-.69a6.9876,6.9876,0,0,0-3.95-1.23,6.87373,6.87373,0,0,0-3.1.74,6.79807,6.79807,0,0,0-2.46,2.03c-1.48,1.96-4.02,5.25-6.97,9.05-.73.94-1.49,1.93-2.26,2.92A14.9958,14.9958,0,1,0,60.6,50.777c-8.27-.01-17.55-.02-22.48-.02H35.97a6.92956,6.92956,0,0,0-6.87,5.9l-.00995.06a6.9683,6.9683,0,0,0,5.81,7.97ZM59,39.107a11,11,0,1,1,19.53,6.94c-.06006.06-.11.13-.17.2-.05.05-.1.1-.15.16a14.30037,14.30037,0,0,1-3.52,2.64A10.9826,10.9826,0,0,1,59,39.107Z" />
    <path fill="#a783b2"
        d="M112.81,77.007a7.84713,7.84713,0,0,0-7.88-6.9c-.3,0-.61.02-.91.05l-11.28,1.27-4.11,1.02-21.9,10.16-3.55,2.57-7.31,14.14a7.72141,7.72141,0,0,0,3.02,10.25,33.791,33.791,0,0,0,11.9,4.13l4,.37c.41.01.83.04,1.25.04a36.423,36.423,0,0,0,11.66-1.94l4.37-1.78a37.18356,37.18356,0,0,0,3.66-2.01l1.18-.74a38.22739,38.22739,0,0,0,6.88-5.49l3.9-4.68a29.8678,29.8678,0,0,0,4.77-11.31l.48-3.99A31.9458,31.9458,0,0,0,112.81,77.007ZM94.78,104.247l-1.18005.74a33.02718,33.02718,0,0,1-17.56,5.12,30.17834,30.17834,0,0,1-15.15-4,3.725,3.725,0,0,1-1.47-4.95l7.31-14.14,24.58-11.4,13.16-1.48a3.56129,3.56129,0,0,1,.46-.03,3.86273,3.86273,0,0,1,3.9,3.34C110.04,88.407,104.7,98.007,94.78,104.247Z" />
    <path fill="#563560"
        d="M62 10.52643a3 3 0 1 0-3-3A3.00344 3.00344 0 0 0 62 10.52643zm0-4.5a1.5 1.5 0 1 1-1.5 1.5A1.50148 1.50148 0 0 1 62 6.02643zM160.30471 48.107a2 2 0 1 0 2 2A2.00229 2.00229 0 0 0 160.30471 48.107zm0 3a1 1 0 1 1 1-1A1.001 1.001 0 0 1 160.30471 51.107zM115.39656 52.142a2 2 0 1 0 2 2A2.00229 2.00229 0 0 0 115.39656 52.142zm0 3a1 1 0 1 1 1-1A1.001 1.001 0 0 1 115.39656 55.142zM158.30471 9.107a2 2 0 1 0 2 2A2.00229 2.00229 0 0 0 158.30471 9.107zm0 3a1 1 0 1 1 1-1A1.001 1.001 0 0 1 158.30471 12.107zM14.27723 67.89543a2 2 0 1 0-2 2A2.00229 2.00229 0 0 0 14.27723 67.89543zm-3 0a1 1 0 1 1 1 1A1.001 1.001 0 0 1 11.27723 67.89543z" />
    <polygon fill="#a783b2"
        points="9.915 12.856 11.402 10.901 10.463 10.369 9.509 12.559 9.477 12.559 8.508 10.384 7.552 10.932 9.024 12.841 9.024 12.872 6.723 12.575 6.723 13.639 9.039 13.342 9.039 13.373 7.552 15.281 8.444 15.845 9.462 13.639 9.492 13.639 10.431 15.829 11.417 15.266 9.915 13.388 9.915 13.357 12.277 13.639 12.277 12.575 9.915 12.888 9.915 12.856" />
    <polygon fill="#a783b2"
        points="42.802 28.26 41.946 29.359 42.459 29.684 43.045 28.413 43.063 28.413 43.604 29.675 44.171 29.35 43.306 28.269 43.306 28.251 44.667 28.413 44.667 27.801 43.306 27.981 43.306 27.963 44.163 26.837 43.622 26.53 43.072 27.791 43.054 27.791 42.496 26.539 41.946 26.854 42.793 27.954 42.793 27.972 41.468 27.801 41.468 28.413 42.802 28.242 42.802 28.26" />
    <polygon fill="#a783b2"
        points="139 26.314 139 25.271 136.683 25.577 136.683 25.547 138.142 23.629 137.221 23.107 136.285 25.255 136.253 25.255 135.302 23.122 134.365 23.659 135.808 25.532 135.808 25.562 133.552 25.271 133.552 26.314 135.823 26.023 135.823 26.054 134.365 27.925 135.24 28.478 136.238 26.314 136.268 26.314 137.189 28.463 138.156 27.91 136.683 26.069 136.683 26.038 139 26.314" />
    <polygon fill="#a783b2"
        points="116.748 4.998 118.006 3.343 117.211 2.893 116.404 4.746 116.377 4.746 115.557 2.906 114.748 3.369 115.993 4.985 115.993 5.011 114.047 4.759 114.047 5.66 116.006 5.408 116.006 5.435 114.748 7.049 115.503 7.526 116.364 5.66 116.39 5.66 117.185 7.513 118.019 7.036 116.748 5.448 116.748 5.421 118.746 5.66 118.746 4.759 116.748 5.024 116.748 4.998" />
</svg>