<svg xmlns="http://www.w3.org/2000/svg" viewBox="0 0 64 64">
    <g fill="#563560" data-name="Photoshop">
        <path
            d="M18.68 41.5a1.5 1.5 0 0 1-1.5-1.5v-7a1.5 1.5 0 0 1 1.5-1.5h8a2.5 2.5 0 0 0 2.5-2.5v-1a2.5 2.5 0 0 0-2.5-2.5H23.2a1.5 1.5 0 0 1 0-3h3.48a5.51 5.51 0 0 1 5.5 5.5v1a5.51 5.51 0 0 1-5.5 5.5h-6.5V40a1.5 1.5 0 0 1-1.5 1.5Z" />
        <path
            d="M42.68 54.18H21.32a1.5 1.5 0 0 1 0-3h21.36a8.51 8.51 0 0 0 8.5-8.5V21.32a8.51 8.51 0 0 0-8.5-8.5H21.32a8.51 8.51 0 0 0-8.5 8.5v21.36a8.46 8.46 0 0 0 2.29 5.81 1.5 1.5 0 0 1-2.19 2 11.47 11.47 0 0 1-3.1-7.86V21.32a11.51 11.51 0 0 1 11.5-11.5h21.36a11.51 11.51 0 0 1 11.5 11.5v21.36a11.51 11.51 0 0 1-11.5 11.5Z" />
        <path
            d="M18.68 34.5a1.5 1.5 0 0 1-1.5-1.5v-9a1.5 1.5 0 0 1 3 0v9a1.5 1.5 0 0 1-1.5 1.5zm22.93 7h-2.89a4.8 4.8 0 0 1-4.8-4.8 1.5 1.5 0 0 1 3 0 1.8 1.8 0 0 0 1.8 1.8h2.89a2.22 2.22 0 0 0 0-4.43h-3.3a4.39 4.39 0 0 1 0-8.78H42a4.78 4.78 0 0 1 4 2.17 1.5 1.5 0 0 1-2.51 1.65 1.78 1.78 0 0 0-1.49-.82h-3.69a1.39 1.39 0 0 0 0 2.78h3.3a5.22 5.22 0 0 1 0 10.43z" />
    </g>
</svg>