<svg xmlns="http://www.w3.org/2000/svg" viewBox="0 0 168 168" width="256" height="256">
<path fill="#a783b2" d="M54 129H53v-1a2 2 0 00-4 0v1H48a2 2 0 000 4h1v1a2 2 0 004 0v-1h1a2 2 0 000-4zM75 128.75739a2 2 0 10-1.41418-.58582A1.99376 1.99376 0 0075 128.75739zM75 137.24268a2 2 0 10-1.41418-.58582A1.99351 1.99351 0 0075 137.24268z" class="color0bceb2 svgShape"></path>
<path fill="#563560" d="M79.24268 133a2 2 0 10-1.41425-.58582A1.99351 1.99351 0 0079.24268 133zM70.75732 133a2 2 0 10-1.41418-.58582A1.99375 1.99375 0 0070.75732 133zM63 134a2.0001 2.0001 0 002-2v-4a2 2 0 00-4 0v4A2.0001 2.0001 0 0063 134zM34 93H26a2.00261 2.00261 0 01-2-2V29a2.00261 2.00261 0 012-2h8a2 2 0 000-4H26a6.00656 6.00656 0 00-6 6V91a6.00656 6.00656 0 006 6h8a2 2 0 000-4zM142 23h-8a2 2 0 000 4h8a2.00261 2.00261 0 012 2V91a2.00261 2.00261 0 01-2 2h-8a2 2 0 000 4h8a6.00656 6.00656 0 006-6V29A6.00656 6.00656 0 00142 23zM70 62a2.0001 2.0001 0 002-2V53h4v7a2 2 0 004 0V40a6 6 0 00-12 0v9H60a2 2 0 000 4v4a1.00068 1.00068 0 01-1 1H55a1.00068 1.00068 0 01-1-1V39a1.00068 1.00068 0 011-1h7a2 2 0 000-4H55a5.00589 5.00589 0 00-5 5V57a5.00589 5.00589 0 005 5h4a5.00589 5.00589 0 005-5V53h4v7A2.0001 2.0001 0 0070 62zm2-22a2 2 0 014 0v9H72z" class="color2d4356 svgShape"></path>
<path fill="#a783b2" d="M116,58h-4a2.00261,2.00261,0,0,1-2-2V50h2a2,2,0,0,0,0-4h-2V40a2.00261,2.00261,0,0,1,2-2h4a2,2,0,0,0,0-4h-4a6.00656,6.00656,0,0,0-6,6v6h-4V36a2.00016,2.00016,0,0,0-3.67969-1.08594L93,43.1416l-5.32031-8.22754A2.00016,2.00016,0,0,0,84,36V60a2,2,0,0,0,4,0V42.77637l3.32031,5.13477a2.00033,2.00033,0,0,0,3.35938,0L98,42.77637V60a2,2,0,0,0,4,0V50h4v6a6.00656,6.00656,0,0,0,6,6h4a2,2,0,0,0,0-4Z" class="color0bceb2 svgShape"></path>
<path fill="#563560" d="M54 73v6a7 7 0 0014 0V73a7 7 0 00-14 0zm10 0v6a3 3 0 01-6 0V73a3 3 0 016 0zM76.09082 84.59668a2.00035 2.00035 0 003.81836 0l5-16a2.00025 2.00025 0 00-3.81836-1.19336L78 77.29492l-3.09082-9.8916a2.00025 2.00025 0 00-3.81836 1.19336zM94 70h2a2 2 0 000-4H94a6.00656 6.00656 0 00-6 6v8a6.00656 6.00656 0 006 6h2a2 2 0 000-4H94a2.00261 2.00261 0 01-2-2V77.76465h1a2 2 0 000-4H92V72A2.00261 2.00261 0 0194 70zM114 72a6 6 0 00-12 0V84a2 2 0 004 0V79.57825l4.4248 5.65417a2 2 0 103.15039-2.46484l-3.91736-5.00574A6.00654 6.00654 0 00114 72zm-6 2h-1.66211A2.02264 2.02264 0 00106 74.02832V72a2 2 0 112 2z" class="color2d4356 svgShape"></path>
<path fill="#a783b2" d="M134 76a2.0001 2.0001 0 00-2-2H120a2 2 0 000 4h12A2.0001 2.0001 0 00134 76zM50 76a2.0001 2.0001 0 00-2-2H36a2 2 0 000 4H48A2.0001 2.0001 0 0050 76z" class="color0bceb2 svgShape"></path>
<path fill="#563560" d="M35.11042 16.72482a3 3 0 10-3-3A3.00344 3.00344 0 0035.11042 16.72482zm0-4.5a1.5 1.5 0 11-1.5 1.5A1.50148 1.50148 0 0135.11042 12.22482zM159.11042 43.61021a2 2 0 102 2A2.00229 2.00229 0 00159.11042 43.61021zm0 3a1 1 0 111-1A1.001 1.001 0 01159.11042 46.61021zM6.88958 6.61021a2 2 0 102 2A2.00229 2.00229 0 006.88958 6.61021zm0 3a1 1 0 111-1A1.001 1.001 0 016.88958 9.61021zM116.55342 3a2 2 0 102 2A2.00229 2.00229 0 00116.55342 3zm0 3a1 1 0 111-1A1.001 1.001 0 01116.55342 6zM93 17.22482a2 2 0 10-2 2A2.00229 2.00229 0 0093 17.22482zm-3 0a1 1 0 111 1A1.001 1.001 0 0190 17.22482z" class="color2d4356 svgShape"></path>
<polygon fill="#a783b2" points="11.305 45.36 12.792 43.404 11.853 42.872 10.898 45.062 10.867 45.062 9.897 42.887 8.942 43.435 10.413 45.344 10.413 45.375 8.112 45.078 8.112 46.142 10.428 45.845 10.428 45.876 8.942 47.785 9.833 48.348 10.851 46.142 10.882 46.142 11.821 48.332 12.807 47.769 11.305 45.891 11.305 45.86 13.667 46.142 13.667 45.078 11.305 45.391 11.305 45.36" class="color0bceb2 svgShape"></polygon>
<polygon fill="#a783b2" points="62.781 7.677 61.925 8.776 62.439 9.1 63.025 7.83 63.043 7.83 63.583 9.091 64.151 8.767 63.286 7.686 63.286 7.668 64.646 7.83 64.646 7.217 63.286 7.397 63.286 7.379 64.142 6.253 63.602 5.947 63.052 7.208 63.034 7.208 62.476 5.956 61.925 6.271 62.773 7.37 62.773 7.388 61.448 7.217 61.448 7.83 62.781 7.659 62.781 7.677" class="color0bceb2 svgShape"></polygon>
<polygon fill="#a783b2" points="137.448 17.746 137.448 16.703 135.132 17.01 135.132 16.979 136.59 15.061 135.669 14.539 134.733 16.687 134.702 16.687 133.751 14.554 132.813 15.091 134.257 16.964 134.257 16.995 132 16.703 132 17.746 134.272 17.455 134.272 17.486 132.813 19.358 133.688 19.911 134.687 17.746 134.717 17.746 135.638 19.895 136.605 19.343 135.132 17.501 135.132 17.47 137.448 17.746" class="color0bceb2 svgShape"></polygon>
<polygon fill="#a783b2" points="158.462 8.398 159.72 6.744 158.925 6.293 158.118 8.146 158.091 8.146 157.271 6.306 156.462 6.77 157.707 8.385 157.707 8.412 155.761 8.16 155.761 9.06 157.72 8.809 157.72 8.835 156.462 10.45 157.217 10.927 158.078 9.06 158.104 9.06 158.898 10.913 159.733 10.437 158.462 8.848 158.462 8.822 160.46 9.06 160.46 8.16 158.462 8.425 158.462 8.398" class="color0bceb2 svgShape"></polygon>
<circle cx="2" cy="149" r="2" fill="#563560" class="color2d4356 svgShape"></circle>
<path fill="#563560" d="M11 147H8a2 2 0 000 4h3a2 2 0 000-4zM160 147h-3a2 2 0 000 4h3a2 2 0 000-4z" class="color2d4356 svgShape"></path>
<circle cx="166" cy="149" r="2" fill="#563560" class="color2d4356 svgShape"></circle>
<path fill="#a783b2" d="M118.15387 155h-8.30774a2.00641 2.00641 0 000 4h8.30774a2.00641 2.00641 0 000-4zM58.15387 155H49.84613a2.00641 2.00641 0 000 4h8.30774a2.00641 2.00641 0 000-4zM104 155H64a2 2 0 000 4H79.94v2H72a2 2 0 000 4H97a2 2 0 000-4H88.06v-2H104a2 2 0 000-4z" class="color0bceb2 svgShape"></path>
<path fill="#563560" d="M150.72131,147H89.17712a7.70682,7.70682,0,0,0,.46643-1.2793c.00977-.03711.01758-.07617.02539-.11426,1.55762-8.38574-2.8877-20.90039-4.87109-25.8916a6.0273,6.0273,0,0,0-4.72949-3.71094l-6.39258-.93848a6.10739,6.10739,0,0,0-4.667,1.23926l-.72168.56934a2.10679,2.10679,0,0,1-1.2998.44727H65V112.25a2.00261,2.00261,0,0,1,2-2H84.93749a6.00655,6.00655,0,0,0,6-6V98.125a2,2,0,1,0-4,0v6.125a2.0026,2.0026,0,0,1-2,2H67a6.00656,6.00656,0,0,0-6,6v5.07129H59.0127a2.107,2.107,0,0,1-1.29883-.44629l-.72363-.57129a6.13875,6.13875,0,0,0-4.666-1.23828l-6.39258.93848a6.0273,6.0273,0,0,0-4.72949,3.71094c-1.9834,4.99121-6.42871,17.50586-4.87109,25.8916.00781.03809.01563.07715.02539.11426A7.70682,7.70682,0,0,0,36.82288,147H17.27869a2.017,2.017,0,1,0,0,4H150.72131a2.017,2.017,0,1,0,0-4ZM44.91895,121.19141a2.02241,2.02241,0,0,1,1.59277-1.23047l6.39258-.93848a2.1103,2.1103,0,0,1,1.6084.42285l.72363.57129a6.13054,6.13054,0,0,0,3.77637,1.30469H66.9873a6.13032,6.13032,0,0,0,3.77734-1.30566l.72168-.56934a2.1041,2.1041,0,0,1,1.60938-.42383l6.39258.93848a2.02241,2.02241,0,0,1,1.59277,1.23047c1.44141,3.62891,6.02539,16.01953,4.6709,23.5957a3.35045,3.35045,0,0,1-1.71387,2.10742c-1.15723.3877-2.99414-.31543-5.10156-1.9375-.28809-.24414-7.15723-5.9668-15.83105-6.35352-.0293-.001-.05957-.002-.08887-.002h-.02441c-.03418-.002-.06543.001-.09766.002-8.67383.38672-15.543,6.10938-15.76074,6.29688-2.17578,1.67773-4.01465,2.38477-5.17187,1.99414A3.3574,3.3574,0,0,1,40.249,144.793C38.8916,137.2168,43.47656,124.82129,44.91895,121.19141ZM63,142.60254c5.186.25348,9.74146,2.87982,11.97046,4.39746H51.01709A24.44151,24.44151,0,0,1,63,142.60254Z" class="color2d4356 svgShape"></path>
</svg>
