<svg xmlns="http://www.w3.org/2000/svg" viewBox="0 0 32 32">
<path fill="#563560" d="M29.37,2.92a2.61,2.61,0,0,0-2-.92H4.63A2.62,2.62,0,0,0,2,5l2.6,17.25a3.6,3.6,0,0,0,1.72,2.57l7.79,4.66a3.65,3.65,0,0,0,3.72,0l7.79-4.66a3.64,3.64,0,0,0,1.73-2.57L28,18.18A1,1,0,0,0,27.15,17a1,1,0,0,0-1.14.84L25.4,22a1.63,1.63,0,0,1-.77,1.14l-7.79,4.66a1.63,1.63,0,0,1-1.68,0L7.37,23.11A1.63,1.63,0,0,1,6.6,22L4,4.71a.59.59,0,0,1,.14-.49A.64.64,0,0,1,4.63,4H27.37a.64.64,0,0,1,.48.22.6.6,0,0,1,.14.5l-1.22,8.13A1,1,0,0,0,27.61,14a1,1,0,0,0,1.14-.84L30,5A2.63,2.63,0,0,0,29.37,2.92Z"/>
<path fill="#563560" d="M10.82 20.29L10 17.68a1 1 0 10-1.9.64l1 3a1 1 0 00.5.57l4 2A1 1 0 0014 24a1 1 0 00.53-.15A1 1 0 0015 23V7a1 1 0 00-1-1H8A1 1 0 008 8h5V21.38zM22.55 9.89a1 1 0 001.34-.44l1-2A1 1 0 0024 6H18a1 1 0 00-1 1v7a1 1 0 001 1h3.85l-.77 5.34-3.53 1.77a1 1 0 00-.44 1.34A1 1 0 0018 24a.93.93 0 00.45-.11l4-2a1 1 0 00.54-.75l1-7a1 1 0 00-.23-.8A1 1 0 0023 13H19V8h3.38l-.27.55A1 1 0 0022.55 9.89z"/></svg>