<svg xmlns="http://www.w3.org/2000/svg" fill="none" viewBox="0 0 40 40">
    <path fill="#563560" fill-rule="evenodd"
        d="M4 7C4 5.34315 5.34315 4 7 4H33C34.6569 4 36 5.34315 36 7V33C36 34.6569 34.6569 36 33 36H7C5.34315 36 4 34.6569 4 33V7ZM7 6C6.44772 6 6 6.44772 6 7V33C6 33.5523 6.44772 34 7 34H33C33.5523 34 34 33.5523 34 33V7C34 6.44772 33.5523 6 33 6H7ZM25.0875 17.8618C25.8501 17.7127 26.6499 17.7127 27.4125 17.8618C28.174 18.0107 28.8935 18.3076 29.4911 18.7437C29.9373 19.0693 30.035 19.6948 29.7094 20.141C29.3839 20.5871 28.7583 20.6848 28.3122 20.3593C27.9789 20.1161 27.5388 19.9244 27.0287 19.8247C26.5196 19.7251 25.9804 19.7251 25.4713 19.8247C24.9612 19.9244 24.5211 20.1161 24.1878 20.3593C23.8549 20.6022 23.658 20.8736 23.5665 21.1229C23.4778 21.3644 23.4778 21.6086 23.5665 21.8501C23.658 22.0994 23.8549 22.3707 24.1878 22.6137C24.5211 22.8569 24.9612 23.0486 25.4713 23.1483L25.498 23.1535L27.4404 23.6444C28.1916 23.795 28.9008 24.09 29.4911 24.5207C30.0891 24.9571 30.5618 25.5319 30.8109 26.2106C31.063 26.8971 31.063 27.6299 30.8109 28.3165C30.5618 28.9951 30.0891 29.5699 29.4911 30.0063C28.8935 30.4424 28.174 30.7393 27.4125 30.8882C26.6499 31.0373 25.8501 31.0373 25.0875 30.8882C24.326 30.7393 23.6065 30.4424 23.0089 30.0063C22.4109 29.5699 21.9382 28.9951 21.6891 28.3165C21.4987 27.798 21.7647 27.2234 22.2831 27.0331C22.8015 26.8427 23.3761 27.1086 23.5665 27.6271C23.658 27.8764 23.8549 28.1477 24.1878 28.3907C24.5211 28.6339 24.9612 28.8256 25.4713 28.9253C25.9804 29.0249 26.5196 29.0249 27.0287 28.9253C27.5388 28.8256 27.9789 28.6339 28.3122 28.3907C28.6451 28.1477 28.8419 27.8764 28.9335 27.6271C29.0222 27.3856 29.0222 27.1414 28.9335 26.8999C28.842 26.6506 28.6451 26.3793 28.3122 26.1363C27.9789 25.8931 27.5388 25.7014 27.0287 25.6017L27.002 25.5965L25.0596 25.1056C24.3084 24.955 23.5992 24.66 23.0089 24.2293C22.4109 23.7929 21.9382 23.2181 21.6891 22.5394C21.437 21.8529 21.437 21.1201 21.6891 20.4335C21.9382 19.7549 22.4109 19.1801 23.0089 18.7437C23.6065 18.3076 24.326 18.0107 25.0875 17.8618ZM13 19C13 18.4477 13.4477 18 14 18H20C20.5523 18 21 18.4477 21 19C21 19.5523 20.5523 20 20 20H18L18 30C18 30.5523 17.5523 31 17 31C16.4477 31 16 30.5523 16 30L16 20H14C13.4477 20 13 19.5523 13 19Z"
        clip-rule="evenodd" />
</svg>