<svg xmlns="http://www.w3.org/2000/svg" data-name="Layer 1" viewBox="0 0 168 168">
    <circle cx="2" cy="149.1" r="2" fill="#563560" />
    <path fill="#563560"
        d="M 11 147.1 H 8 a 2 2 0 0 0 0 4 h 3 a 2 2 0 0 0 0 -4 z M 160 147.1 h -3 a 2 2 0 0 0 0 4 h 3 a 2 2 0 0 0 0 -4 z" />
    <circle cx="166" cy="149.1" r="2" fill="#563560" />
    <path fill="#a783b2"
        d="M 118.2 155.1 h -8.3 a 2 2 0 0 0 0 4 h 8.3 a 2 2 0 0 0 0 -4 z M 58.2 155.1 H 49.8 a 2 2 0 0 0 0 4 h 8.3 a 2 2 0 0 0 0 -4 z M 104 155.1 H 64 a 2 2 0 0 0 0 4 H 79.9 v 2 H 72 a 2 2 0 0 0 0 4 H 97 a 2 2 0 0 0 0 -4 H 88.1 v -2 H 104 a 2 2 0 0 0 0 -4 z" />
    <path fill="#563560"
        d="M 149.7 150.1 H 84.4 C 84.9 149.3 85.1 148.5 85.3 147.6 c 1.5 -9.2 4.6 -27.4 5.8 -34.2 l -4.4 1.8 c -1.4 8 -4 23.4 -5.3 31.8 C 81 148.8 79.5 150.1 77.6 150.1 c -0.1 0 -0.2 0 -0.3 0 C 75.3 149.9 73.8 148.3 73.8 146.3 v -29.3 l -4 -0.4 v 29.6 C 69.8 147.6 70.1 149 70.8 150.1 H 16.3 C 15.5 150 14.7 150.4 14.3 151 C 13.9 151.7 13.9 152.5 14.3 153.2 C 14.7 153.9 15.5 154.2 16.3 154.1 H 149.7 C 150.5 154.2 151.3 153.9 151.7 153.2 C 152.1 152.5 152.1 151.7 151.7 151 C 151.3 150.4 150.5 150 149.7 150.1 Z M 134 93 v 0.1 C 134 94.8 132.7 96.3 131 96.5 c -6.9 1.1 -16.9 2.7 -24.3 3.9 l -3.9 4.7 c 7.3 -1.2 20.1 -3.2 28.8 -4.7 C 135.3 99.9 138 96.8 138 93 v -0.1 C 138 88.8 134.7 85.5 130.5 85.4 c -4.5 -0.1 -12.2 -0.2 -18.6 -0.2 l -0.5 4 c 6.5 0 14.5 0.1 19 0.2 C 132.4 89.4 134 91 134 93 Z M 33.9 67.7 c 2 0.3 4.8 0.8 7.8 1.3 c 5.3 1 11.3 2 15.6 2.6 c 0.6 0.1 1.1 0.1 1.6 0.1 C 59.1 71.7 59.1 71.7 59.2 71.7 c 0 0.1 0 0.3 0 0.4 c 0 0.5 0.1 1.1 0.1 1.7 C 59.9 78.6 60.9 83.4 62.3 88 c 0 0.1 -0.1 0.1 -0.1 0.2 l 3.5 -2.6 C 64.6 81.6 63.8 77.4 63.3 73.3 c -0.2 -1.6 0 -3.7 -0.9 -4.7 c -0.9 -0.9 -3 -0.7 -4.6 -0.9 c -6.8 -0.9 -17.8 -3 -23.3 -3.9 C 33.7 63.6 33 63.2 32.6 62.6 C 32.1 61.9 31.9 61.1 32 60.3 C 32 60.3 32 60.3 32.1 60.3 C 32.3 58.8 33.5 57.8 35 57.8 h 2.1 c 6.5 0 20.3 0 29.6 0 h 0 C 69.9 57.8 73 57 75.7 55.5 C 77.3 54.7 78.8 53.6 80 52.3 C 80.5 51.7 81.1 51.1 81.5 50.5 c 5.4 -7 12 -15.5 14.8 -19.2 C 97.3 30 99.1 29.7 100.4 30.6 l 1 0.7 C 102.7 32.2 103.1 33.9 102.3 35.2 c -2.7 4.8 -5.3 9.5 -7.9 14.2 c -2.8 5 -5.7 10 -8.4 15 C 85.3 65.7 85 67.2 85 68.7 C 85.4 71.1 86.3 73.4 87.6 75.4 l 4.1 -1 c -2 -3 -2.7 -4.9 -2.7 -6 C 89 67.7 89.2 67 89.6 66.3 c 1.8 -3.4 3.8 -6.9 5.7 -10.2 c 0.9 -1.6 1.8 -3.1 2.6 -4.7 c 2.1 -3.8 4.3 -7.6 6.4 -11.5 l 1.5 -2.7 C 107.6 34 106.7 30.1 103.7 28 l -1 -0.7 C 101.5 26.5 100.1 26.1 98.7 26.1 C 97.7 26.1 96.6 26.4 95.6 26.8 C 94.7 27.3 93.8 28 93.2 28.9 c -1.5 2 -4 5.3 -7 9 c -0.7 0.9 -1.5 1.9 -2.3 2.9 C 83.4 34 78.3 28.5 71.5 27.3 C 64.8 26.2 58.1 29.7 55.3 35.9 C 52.5 42.2 54.3 49.5 59.6 53.8 c -8.3 0 -17.6 0 -22.5 0 H 35 C 31.5 53.7 28.6 56.3 28.1 59.7 l 0 0.1 C 27.8 61.5 28.3 63.4 29.3 64.9 C 30.4 66.4 32.1 67.4 33.9 67.7 Z M 58 42.1 C 58 37.3 61.2 33 65.8 31.6 C 70.4 30.2 75.4 31.9 78.1 36 C 80.8 40 80.6 45.3 77.5 49 c -0.1 0.1 -0.1 0.1 -0.2 0.2 c 0 0 -0.1 0.1 -0.2 0.2 C 76.2 50.5 75 51.4 73.7 52 C 70.3 53.7 66.3 53.4 63.1 51.4 C 59.9 49.4 58 45.9 58 42.1 Z" />
    <path fill="#a783b2"
        d="M 112.8 79 C 112.3 75 108.9 72.1 104.9 72.1 c -0.3 0 -0.6 0 -0.9 0 l -11.3 1.3 l -4.1 1 l -21.9 10.2 l -3.5 2.6 l -7.3 14.1 C 54 105 55.3 109.5 58.9 111.6 C 62.6 113.7 66.6 115.1 70.8 115.7 l 4 0.4 c 0.4 0 0.8 0 1.3 0 C 80 116.1 83.9 115.4 87.7 114.2 l 4.4 -1.8 C 93.3 111.8 94.5 111.1 95.7 110.4 l 1.2 -0.7 C 99.4 108.1 101.7 106.2 103.8 104.1 l 3.9 -4.7 C 110 96.1 111.7 92.2 112.5 88.2 l 0.5 -4 C 113 82.4 113 80.7 112.8 79 Z M 94.8 106.2 l -1.2 0.7 C 88.3 110.3 82.3 112.1 76 112.1 C 70.7 112.1 65.5 110.8 60.9 108.1 C 59.2 107.1 58.5 104.9 59.4 103.2 l 7.3 -14.1 l 24.6 -11.4 l 13.2 -1.5 C 104.6 76.1 104.8 76.1 104.9 76.1 C 106.9 76.1 108.6 77.5 108.8 79.4 C 110 90.4 104.7 100 94.8 106.2 Z" />
    <path fill="#563560"
        d="M 62 10.5 a 3 3 0 1 0 -3 -3 A 3 3 0 0 0 62 10.5 z m 0 -4.5 a 1.5 1.5 0 1 1 -1.5 1.5 A 1.5 1.5 0 0 1 62 6 z M 160.3 48.1 a 2 2 0 1 0 2 2 A 2 2 0 0 0 160.3 48.1 z m 0 3 a 1 1 0 1 1 1 -1 A 1 1 0 0 1 160.3 51.1 z M 115.4 52.1 a 2 2 0 1 0 2 2 A 2 2 0 0 0 115.4 52.1 z m 0 3 a 1 1 0 1 1 1 -1 A 1 1 0 0 1 115.4 55.1 z M 158.3 9.1 a 2 2 0 1 0 2 2 A 2 2 0 0 0 158.3 9.1 z m 0 3 a 1 1 0 1 1 1 -1 A 1 1 0 0 1 158.3 12.1 z M 14.3 67.9 a 2 2 0 1 0 -2 2 A 2 2 0 0 0 14.3 67.9 z m -3 0 a 1 1 0 1 1 1 1 A 1 1 0 0 1 11.3 67.9 z" />
    <polygon fill="#a783b2"
        points="9.9,12.9 11.4,10.9 10.5,10.4 9.5,12.6 9.5,12.6 8.5,10.4 7.6,10.9 9,12.8 9,12.9 6.7,12.6 6.7,13.6 9,13.3 9,13.4 7.6,15.3 8.4,15.8 9.5,13.6 9.5,13.6 10.4,15.8 11.4,15.3 9.9,13.4 9.9,13.4 12.3,13.6 12.3,12.6 9.9,12.9 9.9,12.9" />
    <polygon fill="#a783b2"
        points="42.8,28.3 41.9,29.4 42.5,29.7 43,28.4 43.1,28.4 43.6,29.7 44.2,29.4 43.3,28.3 43.3,28.3 44.7,28.4 44.7,27.8 43.3,28 43.3,28 44.2,26.8 43.6,26.5 43.1,27.8 43.1,27.8 42.5,26.5 41.9,26.9 42.8,28 42.8,28 41.5,27.8 41.5,28.4 42.8,28.2 42.8,28.3" />
    <polygon fill="#a783b2"
        points="139,26.3 139,25.3 136.7,25.6 136.7,25.5 138.1,23.6 137.2,23.1 136.3,25.3 136.3,25.3 135.3,23.1 134.4,23.7 135.8,25.5 135.8,25.6 133.6,25.3 133.6,26.3 135.8,26 135.8,26.1 134.4,27.9 135.2,28.5 136.2,26.3 136.3,26.3 137.2,28.5 138.2,27.9 136.7,26.1 136.7,26 139,26.3" />
    <polygon fill="#a783b2"
        points="116.7,5 118,3.3 117.2,2.9 116.4,4.7 116.4,4.7 115.6,2.9 114.7,3.4 116,5 116,5 114,4.8 114,5.7 116,5.4 116,5.4 114.7,7 115.5,7.5 116.4,5.7 116.4,5.7 117.2,7.5 118,7 116.7,5.4 116.7,5.4 118.7,5.7 118.7,4.8 116.7,5 116.7,5" />
</svg>