<svg xmlns="http://www.w3.org/2000/svg" data-name="Layer 1" viewBox="0 0 168 168">
    <path fill="#563560"
        d="M93 125a6.006 6.006 0 0 0 6-6V97a6.006 6.006 0 0 0-6-6H43a6.006 6.006 0 0 0-6 6v22a6.006 6.006 0 0 0 6 6Zm-52-6V97a2.002 2.002 0 0 1 2-2h50a2.002 2.002 0 0 1 2 2v22a2.003 2.003 0 0 1-2 2H43a2.003 2.003 0 0 1-2-2Z" />
    <path fill="#a783b2"
        d="M78.684 113h-4.746a2 2 0 0 0 0 4h4.746a5.039 5.039 0 0 0 5.254-4.776v-1.393a5.038 5.038 0 0 0-5.254-4.775h-1.492c-.706 0-1.254-.417-1.254-.777v-1.503c0-.359.548-.776 1.254-.776h4.745a2 2 0 0 0 0-4h-4.745a5.038 5.038 0 0 0-5.254 4.776v1.503a5.038 5.038 0 0 0 5.254 4.777h1.492c.707 0 1.254.417 1.254.775v1.393c0 .359-.547.776-1.254.776zm-19.71 4a5.87 5.87 0 0 0 6.088-6.182v-7.817h1.999a2 2 0 0 0 0-4h-8a2 2 0 0 0 0 4h2.001v7.817c0 1.448-.703 2.182-2.095 2.182-1.574 0-2.905-.999-2.905-2.182a2 2 0 1 0-4 0c0 3.409 3.098 6.182 6.912 6.182z" />
    <path fill="#563560"
        d="M61.533 41.72a1.999 1.999 0 0 0-2.816-.256l-5.997 5a2 2 0 0 0 0 3.072l5.997 5a2.044 2.044 0 0 0 2.816-.255 2 2 0 0 0-.256-2.817L57.123 48l4.154-3.464a2 2 0 0 0 .256-2.817zm16.934 12.56a2.048 2.048 0 0 0 2.816.256l5.997-5a2 2 0 0 0 0-3.072l-5.997-5a2 2 0 1 0-2.56 3.072L82.877 48l-4.154 3.464a2 2 0 0 0-.256 2.817z" />
    <path fill="#a783b2"
        d="M66.996 58.998a2.026 2.026 0 0 0 1.898-1.366l5.997-18a2 2 0 0 0-3.795-1.264l-5.997 18a2.043 2.043 0 0 0 1.897 2.63zM113 132.002H59.003a1.999 1.999 0 1 0 0 3.998H113a1.999 1.999 0 1 0 0-3.998z" />
    <path fill="#563560"
        d="M113 140.002H59.003a1.999 1.999 0 1 0 0 3.998H113a1.999 1.999 0 1 0 0-3.998Z" />
    <path fill="#a783b2"
        d="M57.003 69.999a2 2 0 0 0 2 1.999H113A1.999 1.999 0 1 0 113 68H59.003a2 2 0 0 0-2 1.999Z" />
    <path fill="#563560"
        d="M113 76H59.003a1.999 1.999 0 1 0 0 3.998H113A1.999 1.999 0 1 0 113 76zm0 16h-11.35a9.914 9.914 0 0 1 1.3 3.998H113A1.999 1.999 0 1 0 113 92z" />
    <path fill="#a783b2"
        d="M113 84H59.003a2 2 0 0 0-2 2 1.978 1.978 0 0 0 .277.999h35.721a9.921 9.921 0 0 1 4.329 1H113A1.999 1.999 0 1 0 113 84zm0 16.002h-9.999v3.997H113a1.999 1.999 0 1 0 0-3.997z" />
    <path fill="#563560" d="M113 108.002h-9.999v3.997H113a1.999 1.999 0 1 0 0-3.997Z" />
    <path fill="#a783b2"
        d="M113 116.002h-9.999V119c0 .337-.017.67-.05.999H113a1.999 1.999 0 1 0 0-3.998Z" />
    <path fill="#563560"
        d="M113 124.002h-11.352A10.054 10.054 0 0 1 97.334 128H113a1.999 1.999 0 1 0 0-3.998Z" />
    <circle cx="2" cy="150" r="2" fill="#563560" />
    <path fill="#563560"
        d="M11 148H8a2 2 0 0 0 0 4h3a2 2 0 0 0 0-4zm149 0h-3a2 2 0 0 0 0 4h3a2 2 0 0 0 0-4z" />
    <circle cx="166" cy="150" r="2" fill="#563560" />
    <path fill="#a783b2"
        d="M118.154 156h-8.308a2.006 2.006 0 0 0 0 4h8.308a2.006 2.006 0 0 0 0-4zm-60 0h-8.308a2.006 2.006 0 0 0 0 4h8.308a2.006 2.006 0 0 0 0-4zM104 156H64a2 2 0 0 0 0 4h15.94v2H72a2 2 0 0 0 0 4h25a2 2 0 0 0 0-4h-8.94v-2H104a2 2 0 0 0 0-4z" />
    <path fill="#563560"
        d="M150.721 148H130.65a5.96 5.96 0 0 0 .35-2V58.674a1.998 1.998 0 0 0-.521-1.346l-29.761-32.675A2 2 0 0 0 99.239 24H47a6.007 6.007 0 0 0-6 6v57.2A10.004 10.004 0 0 1 42.999 87H45V30a2.002 2.002 0 0 1 2-2h50v27.077A5.985 5.985 0 0 0 103.032 61H127v85a2.003 2.003 0 0 1-2 2H47a2.003 2.003 0 0 1-2-2v-16.999h-2.001A10.004 10.004 0 0 1 41 128.8V146a5.96 5.96 0 0 0 .35 2H17.279a2.017 2.017 0 1 0 0 4H150.72a2.017 2.017 0 1 0 0-4zm-47.689-91A1.982 1.982 0 0 1 101 55.077V30.903L124.77 57zM83.825 11.98a3 3 0 1 0-3-3 3.003 3.003 0 0 0 3 3zm0-4.5a1.5 1.5 0 1 1-1.5 1.5 1.501 1.501 0 0 1 1.5-1.5zM30 3a2 2 0 1 0 2 2 2.002 2.002 0 0 0-2-2zm0 3a1 1 0 1 1 1-1 1.001 1.001 0 0 1-1 1zm107.104-4a2 2 0 1 0 2 2 2.002 2.002 0 0 0-2-2zm0 3a1 1 0 1 1 1-1 1.001 1.001 0 0 1-1 1zm-26 15.489a2 2 0 1 0 2 2 2.002 2.002 0 0 0-2-2zm0 3a1 1 0 1 1 1-1 1.001 1.001 0 0 1-1 1zm-103.279-3a2 2 0 1 0-2 2 2.002 2.002 0 0 0 2-2zm-3 0a1 1 0 1 1 1 1 1.001 1.001 0 0 1-1-1z" />
    <path fill="#a783b2"
        d="m55.193 14.364 1.486-1.956-.939-.531-.954 2.189h-.032l-.969-2.174-.956.548 1.472 1.909v.031L52 14.082v1.064l2.316-.297v.032l-1.487 1.908.892.564 1.018-2.207h.031l.938 2.191.987-.563-1.502-1.878v-.031l2.361.281v-1.064l-2.361.313v-.031zM22.967 42.618l-.856 1.099.513.325.586-1.271h.018l.541 1.262.567-.325-.864-1.081v-.018l1.36.162v-.612l-1.36.18v-.018l.856-1.126-.541-.307-.55 1.261h-.018l-.558-1.252-.55.316.847 1.099v.018l-1.325-.171v.612l1.334-.171v.018zM142.553 40.301v-1.044l-2.317.307v-.031l1.458-1.918-.921-.521-.936 2.148h-.031l-.951-2.133-.937.537 1.443 1.872v.031l-2.257-.292v1.044l2.272-.291v.03l-1.458 1.872.874.553.999-2.164h.03l.921 2.148.967-.552-1.473-1.842v-.03l2.317.276zM162.176 18.288l1.258-1.655-.794-.45-.807 1.853h-.027l-.821-1.84-.808.464 1.245 1.615v.026l-1.947-.251v.9l1.96-.251v.026l-1.258 1.615.754.477.862-1.867h.026l.794 1.853.834-.476-1.271-1.589v-.026l1.999.238v-.9l-1.999.264v-.026z" />
</svg>