<svg xmlns="http://www.w3.org/2000/svg" fill="none" viewBox="0 0 40 40">
    <path fill="#563560" fill-rule="evenodd"
        d="M5.23225 6.35925C5.42225 6.1316 5.70348 6 6 6H34C34.2965 6 34.5778 6.1316 34.7678 6.35925C34.9577 6.58691 35.0369 6.88715 34.9839 7.17889L30.9839 29.1789C30.9223 29.5175 30.6909 29.8007 30.3714 29.9285L20.3714 33.9285C20.133 34.0238 19.867 34.0238 19.6286 33.9285L9.62861 29.9285C9.30906 29.8007 9.07769 29.5175 9.01613 29.1789L5.01613 7.17889C4.96309 6.88714 5.04225 6.58691 5.23225 6.35925ZM7.19821 8L10.8849 28.2769L20 31.923L29.1151 28.2769L32.8018 8H7.19821ZM12.237 11.3536C12.427 11.1293 12.706 11 13 11H27C27.5523 11 28 11.4477 28 12C28 12.5523 27.5523 13 27 13H14.1805L14.8471 17H26C26.3138 17 26.6094 17.1473 26.7983 17.3978C26.9873 17.6483 27.0477 17.973 26.9615 18.2747L24.9615 25.2747C24.8845 25.5442 24.6979 25.7691 24.4472 25.8944L20.4472 27.8944C20.1657 28.0352 19.8343 28.0352 19.5528 27.8944L15.5528 25.8944C15.3156 25.7758 15.1352 25.5678 15.0513 25.3162L14.0513 22.3162C13.8767 21.7923 14.1598 21.226 14.6838 21.0513C15.2077 20.8767 15.774 21.1598 15.9487 21.6838L16.8177 24.2908L20 25.882L23.1593 24.3023L24.6743 19H14C13.5112 19 13.094 18.6466 13.0136 18.1644L12.0136 12.1644C11.9653 11.8744 12.047 11.5779 12.237 11.3536Z"
        clip-rule="evenodd" />
</svg>