<svg xmlns="http://www.w3.org/2000/svg" viewBox="0 0 168 168">
<path fill="#a783b2" d="M119.93506,48.75018a7.0678,7.0678,0,0,0-7.95654,1.19446,6.41044,6.41044,0,0,0-1.978,4.69873,6.4932,6.4932,0,0,0,2.09668,4.71918l6.40234,5.98688.00049.001a2.39013,2.39013,0,0,0,3.28906-.02832l6.23242-6.04059A6.41593,6.41593,0,0,0,130,54.5838a6.49778,6.49778,0,0,0-2.09717-4.72119A7.1043,7.1043,0,0,0,119.93506,48.75018Zm5.23584,4.03461A2.53413,2.53413,0,0,1,126,54.619a2.44507,2.44507,0,0,1-.7627,1.78918l-5.12744,4.97021-5.28125-4.938A2.53313,2.53313,0,0,1,114,54.60724a2.449,2.449,0,0,1,.7627-1.79022,2.91986,2.91986,0,0,1,2.03613-.80377,3.02155,3.02155,0,0,1,1.89648.66119,1.99817,1.99817,0,0,0,2.53662-.02148A3.01982,3.01982,0,0,1,125.1709,52.78479Z"/>
<path fill="#563560" d="M136.16162,50.99066h.02051a2.4563,2.4563,0,0,0,1.72656-.72076l7.79-7.76733a7.75771,7.75771,0,0,0,2.30078-5.606,7.86343,7.86343,0,0,0-2.44189-5.63531,8.22536,8.22536,0,0,0-9.63623-1.23938,8.18005,8.18005,0,0,0-9.62012,1.339,7.758,7.758,0,0,0-2.30078,5.607,7.8592,7.8592,0,0,0,2.44189,5.63336l8.00293,7.697A2.45793,2.45793,0,0,0,136.16162,50.99066ZM128,36.93073a3.79012,3.79012,0,0,1,1.12549-2.73755,4.062,4.062,0,0,1,2.876-1.17,4.16139,4.16139,0,0,1,2.65967.95319,2.00025,2.00025,0,0,0,2.57861-.02051,4.16333,4.16333,0,0,1,5.54541.18854A3.89557,3.89557,0,0,1,144,36.93268a3.79209,3.79209,0,0,1-1.12549,2.73755l-6.731,6.71161-6.92871-6.66376A3.89337,3.89337,0,0,1,128,36.93073Z"/>
<path fill="#a783b2" d="M48.06543,48.75018a7.1088,7.1088,0,0,0-7.96875,1.11243A6.49916,6.49916,0,0,0,38,54.5838a6.41593,6.41593,0,0,0,1.97852,4.69769l6.23,6.03766a2.38869,2.38869,0,0,0,3.292.03027l6.40234-5.98688a6.4932,6.4932,0,0,0,2.09668-4.71918,6.4067,6.4067,0,0,0-1.978-4.69775A7.06559,7.06559,0,0,0,48.06543,48.75018Zm5.106,7.69019-5.28125,4.938L42.7627,56.40814A2.44507,2.44507,0,0,1,42,54.619a2.53548,2.53548,0,0,1,.82861-1.83417,3.00989,3.00989,0,0,1,2.05713-.79889,2.93385,2.93385,0,0,1,1.88232.66705,1.99817,1.99817,0,0,0,2.53662.02148,3.01015,3.01015,0,0,1,3.93262.14355A2.4453,2.4453,0,0,1,54,54.60724,2.53313,2.53313,0,0,1,53.17139,56.44037Z"/>
<path fill="#563560" d="M32.07861 30.02185a8.22536 8.22536 0 00-9.63623 1.23938 7.86343 7.86343 0 00-2.44189 5.63531 7.75771 7.75771 0 002.30078 5.606l7.78809 7.76538a2.45793 2.45793 0 001.72852.72272h.02051a2.45526 2.45526 0 001.71631-.69244l8.00244-7.697a7.85773 7.85773 0 002.44238-5.63336 7.758 7.758 0 00-2.30078-5.607A8.18335 8.18335 0 0032.07861 30.02185zm6.70654 9.69623l-6.92871 6.66376-6.731-6.71161A3.79209 3.79209 0 0124 36.93268a3.89557 3.89557 0 011.21484-2.78833A4.173 4.173 0 0128.1084 32.988a4.06109 4.06109 0 012.65186.96783 2.00024 2.00024 0 002.57861.02051 4.15048 4.15048 0 015.53564.21686A3.79012 3.79012 0 0140 36.93073 3.89337 3.89337 0 0138.78516 39.71808zM100.66132 68.57776c.08051-.58856.14716-1.20667.20453-1.84442.69275-1.4 5.11938-10.70312 3.90613-17.653-.50244-2.88019-1.7002-4.97314-3.56006-6.22131a6.98656 6.98656 0 00-3.62109-1.16711c-1.99023-3.16919-5.04248-4.58246-11.23145-5.38623-12.5127-1.6261-20.79492 2.91339-22.72412 12.45135-2.09052 10.33478 1.89032 16.243 3.42535 18.06909.03766.56207.08551 1.14374.16144 1.75543 1.44287.1825 2.83.39795 4.15448.63751a23.42427 23.42427 0 01-.31018-2.43158c2.8645-3.01971 2.69116-7.25537 2.57379-9.848a.13117.13117 0 01.14941-.03613c9.26074 2.64673 15.94531 1.50995 19.92383.08789a.31221.31221 0 01.10352-.01758c.0498 0 .083.01367.0957.00391a14.74873 14.74873 0 002.95886 9.58966c-.091 1.00537-.21216 1.88544-.35474 2.65411C97.84094 68.97974 99.22113 68.76111 100.66132 68.57776zM96.30078 53.79169a4.22024 4.22024 0 00-3.93359-.56744c-3.4248 1.22375-9.2373 2.18872-17.47852-.167a4.16065 4.16065 0 00-3.7085.72467A4.0033 4.0033 0 0069.65039 57.083a12.91161 12.91161 0 01-.60645 5.6236c-1.27588-2.22968-2.82715-6.53674-1.48779-13.15649C69.08594 41.98492 75.2915 39.972 81.46191 39.972a34.24593 34.24593 0 014.38184.30078c6.62207.86047 7.78955 2.28833 8.81494 4.36859a1.99431 1.99431 0 002.22266 1.06848 3.164 3.164 0 012.10156.4707 5.19182 5.19182 0 011.84863 3.58728c.65576 3.75623-.87646 8.71472-2.14453 11.95819a10.91554 10.91554 0 01-.77734-4.59418A3.935 3.935 0 0096.30078 53.79169zM68.30471 11a3 3 0 10-3-3A3.00344 3.00344 0 0068.30471 11zm0-4.5a1.5 1.5 0 11-1.5 1.5A1.50148 1.50148 0 0168.30471 6.5zM163 54.68205a2 2 0 102 2A2.00229 2.00229 0 00163 54.68205zm0 3a1 1 0 111-1A1.001 1.001 0 01163 57.68205zM99.30471 18.79788a2 2 0 102 2A2.00229 2.00229 0 0099.30471 18.79788zm0 3a1 1 0 111-1A1.001 1.001 0 0199.30471 21.79788zM160.30471 11.5a2 2 0 102 2A2.00229 2.00229 0 00160.30471 11.5zm0 3a1 1 0 111-1A1.001 1.001 0 01160.30471 14.5zM8.5 11.5a2 2 0 10-2 2A2.00229 2.00229 0 008.5 11.5zm-3 0a1 1 0 111 1A1.001 1.001 0 015.5 11.5z"/>
<polygon fill="#a783b2" points="7.915 42.459 9.402 40.504 8.463 39.972 7.509 42.162 7.477 42.162 6.508 39.987 5.552 40.535 7.024 42.444 7.024 42.475 4.723 42.178 4.723 43.242 7.039 42.945 7.039 42.976 5.552 44.884 6.444 45.448 7.462 43.242 7.492 43.242 8.431 45.432 9.417 44.869 7.915 42.991 7.915 42.96 10.277 43.242 10.277 42.178 7.915 42.491 7.915 42.459"/>
<polygon fill="#a783b2" points="39.735 21.951 38.878 23.05 39.392 23.375 39.978 22.104 39.996 22.104 40.536 23.366 41.104 23.041 40.239 21.96 40.239 21.942 41.6 22.104 41.6 21.491 40.239 21.672 40.239 21.654 41.095 20.527 40.555 20.221 40.005 21.482 39.987 21.482 39.429 20.23 38.878 20.545 39.726 21.645 39.726 21.663 38.401 21.491 38.401 22.104 39.735 21.933 39.735 21.951"/>
<polygon fill="#a783b2" points="159.029 34.579 159.029 33.535 156.712 33.842 156.712 33.812 158.17 31.893 157.249 31.372 156.313 33.52 156.282 33.52 155.331 31.387 154.394 31.924 155.837 33.797 155.837 33.827 153.581 33.535 153.581 34.579 155.852 34.288 155.852 34.318 154.394 36.19 155.269 36.743 156.267 34.579 156.297 34.579 157.218 36.728 158.185 36.175 156.712 34.333 156.712 34.303 159.029 34.579"/>
<polygon fill="#a783b2" points="128.002 9.288 129.26 7.633 128.465 7.183 127.658 9.036 127.631 9.036 126.811 7.196 126.002 7.66 127.247 9.275 127.247 9.301 125.301 9.05 125.301 9.95 127.26 9.699 127.26 9.725 126.002 11.34 126.757 11.817 127.618 9.95 127.644 9.95 128.438 11.803 129.273 11.327 128.002 9.738 128.002 9.712 130 9.95 130 9.05 128.002 9.314 128.002 9.288"/>
<circle cx="2" cy="147" r="2" fill="#563560"/>
<path fill="#563560" d="M11 145H8a2 2 0 000 4h3a2 2 0 000-4zM160 145h-3a2 2 0 000 4h3a2 2 0 000-4z"/>
<circle cx="166" cy="147" r="2" fill="#563560"/>
<path fill="#a783b2" d="M118.15387 153h-8.30774a2.00641 2.00641 0 000 4h8.30774a2.00641 2.00641 0 000-4zM58.15387 153H49.84613a2.00641 2.00641 0 000 4h8.30774a2.00641 2.00641 0 000-4zM104 153H64a2 2 0 000 4H79.94v2H72a2 2 0 000 4H97a2 2 0 000-4H88.06v-2H104a2 2 0 000-4z"/>
<path fill="#563560" d="M150.72131,145,145,144.99963v-5.42535a2.00067,2.00067,0,0,0-1.55957-1.95136l-46.0498-10.40234a8.96038,8.96038,0,0,0-9.43994,3.70544c-.03613.05371-.06982.1084-.10059.16406L84,138.10345l-3.8501-7.01337c-.03076-.05566-.06445-.11035-.10059-.16406a8.96953,8.96953,0,0,0-9.43945-3.70544L24.55957,137.62292A2.00067,2.00067,0,0,0,23,139.57428v5.42535L17.27869,145a2.017,2.017,0,1,0,0,4H150.72131a2.017,2.017,0,1,0,0-4ZM91.30566,133.10785a5.055,5.055,0,0,1,5.20361-1.98456L141,141.1731v3.82654H91.5a3.01567,3.01567,0,0,1-1.67187-.504l-3.49829-2.32446ZM27,141.1731l44.49121-10.0498a5.04856,5.04856,0,0,1,5.20313,1.98456l4.97583,9.06342-3.4978,2.3244a3.01843,3.01843,0,0,1-1.67236.504H27Z"/>
<path fill="#a783b2" d="M117.127,109c-.37622,0-.75189-.03662-1.127-.06995v6.7738c-5.45312.042-20.424.578-30,4.94446V80.3623c3.8222-1.43665,16.28784-5.55627,30-4.03625V83.16a8.52543,8.52543,0,0,1,2.67969-.09558A12.85072,12.85072,0,0,1,120,83.29828V74.56519a1.99987,1.99987,0,0,0-1.71289-1.97968c-16.185-2.34644-30.7594,2.85706-34.2876,4.25574-3.53033-1.39813-18.105-6.59937-34.28662-4.25574A1.99987,1.99987,0,0,0,48,74.56519v8.73358a12.85588,12.85588,0,0,1,1.32227-.23431A8.45328,8.45328,0,0,1,52,83.15979V76.326c13.67383-1.51086,26.16357,2.60187,30,4.03754v40.27924c-9.57715-4.36371-24.54883-4.897-30-4.939v-6.77472c-.37573.03333-.75043.07086-1.12646.07086H50.873A12.671,12.671,0,0,1,48,108.65839v9.05249a1.998,1.998,0,0,0,.60059,1.42883,2.06415,2.06415,0,0,0,1.44141.57135c.22705-.00879,23.1001-.40729,32.86572,5.96149a2.022,2.022,0,0,0,2.18457,0c9.75586-6.36194,32.63477-5.97125,32.86621-5.96149a2.04506,2.04506,0,0,0,1.44092-.57135A2.00171,2.00171,0,0,0,120,117.71088v-9.05255A12.671,12.671,0,0,1,117.127,109Z"/>
<path fill="#563560" d="M117.13379 105a8.88254 8.88254 0 01-1.08838-.06641l-.01514-.002-.02979-.00391a4.609 4.609 0 01-3.96582-5.14844l1.06641-8.72656a4.59691 4.59691 0 011.7417-3.08887 4.52236 4.52236 0 013.34766-.92969 9.05851 9.05851 0 014.34424 16.09473A8.73992 8.73992 0 01117.13379 105zm.499-14a.53252.53252 0 00-.32812.11621.62227.62227 0 00-.23291.42188l-1.06641 8.72559a.60734.60734 0 00.49951.69531l.03076.00391a4.769 4.769 0 003.53662-.98633 5.05869 5.05869 0 00-2.37207-8.97168A.534.534 0 00117.63281 91zM50.86621 105a8.73992 8.73992 0 01-5.40088-1.87109 9.05852 9.05852 0 014.34521-16.09473 4.52721 4.52721 0 013.34668.92969 4.59693 4.59693 0 011.7417 3.08789l1.06641 8.72754a4.61221 4.61221 0 01-3.98193 5.15039l-.02881.00391A8.88254 8.88254 0 0150.86621 105zm-.499-14a.52546.52546 0 00-.06641.00488 5.05865 5.05865 0 00-2.373 8.97168 4.74645 4.74645 0 003.52979.9873l.02148-.00293a.60992.60992 0 00.51563-.69727l-1.06641-8.72656a.622.622 0 00-.23291-.4209A.53252.53252 0 0050.36719 91z"/>
</svg>