<svg xmlns="http://www.w3.org/2000/svg" data-name="Layer 1" viewBox="0 0 168 168" width="256" height="256">
<path fill="#563560" d="M84 57A12 12 0 1072 45 12.01344 12.01344 0 0084 57zm0-20a8 8 0 11-8 8A8.00917 8.00917 0 0184 37zM84 117a12 12 0 1012 12A12.01344 12.01344 0 0084 117zm0 20a8 8 0 118-8A8.00917 8.00917 0 0184 137zM54 87A12 12 0 1042 99 12.01344 12.01344 0 0054 87zM42 95a8 8 0 118-8A8.00917 8.00917 0 0142 95z" class="color2d4356 svgShape"></path>
<path fill="#a783b2" d="M54.30127 69.2959a11.99414 11.99414 0 10-8.48486-3.50879A11.96416 11.96416 0 0054.30127 69.2959zM48.64453 51.64453a8.0018 8.0018 0 11-2.34277 5.65723A7.97486 7.97486 0 0148.64453 51.64453zM105.21338 108.21289a11.99993 11.99993 0 1016.97021 0A12.013 12.013 0 00105.21338 108.21289zm14.14209 14.14258a8.0018 8.0018 0 112.34277-5.65723A8.00948 8.00948 0 01119.35547 122.35547zM45.81641 108.21289a11.99993 11.99993 0 1016.97021 0A12.013 12.013 0 0045.81641 108.21289zM59.9585 122.35547a7.9961 7.9961 0 110-11.31445A8.00948 8.00948 0 0159.9585 122.35547zM146.58105 36.335c-.47217-.14258-11.64746-3.46191-18.127.96973a10.39172 10.39172 0 00-4.4248 8.24707 10.22507 10.22507 0 00-.01666 1.12085C110.73438 53.78339 91.31445 73.10388 90.20947 74.21q-2.23764 2.23764-4.37488 4.47614a8.38749 8.38749 0 00.69324 5.082q3.03946-3.24976 6.50977-6.73A230.79625 230.79625 0 01113.69568 58.5238l7.78125 7.78125A230.93318 230.93318 0 01102.9624 86.96191c-1.68256 1.68243-3.32208 3.27765-4.92487 4.80469a19.67247 19.67247 0 003.29645.2793 18.49388 18.49388 0 002.21484-.13184c.03064-.00354.05676-.00751.08667-.011 1.18872-1.15076 1.96124-1.91907 2.155-2.113 9.54395-9.54395 17.85742-19.19922 23.40967-27.18945 1.50153-2.16077 2.68634-4.03949 3.63177-5.697a8.67212 8.67212 0 001.213.09546 8.49529 8.49529 0 001.77246-.18652c1.91455-.40918 5.24072-1.87988 6.01074-7.13965 1.17529-8.0332 4.57031-9.44141 4.7417-9.50684a2.0002 2.0002 0 00.01123-3.83105zM123.9234 63.09528l-7.01733-7.01733a90.46242 90.46242 0 018.05475-5.38263 11.20917 11.20917 0 002.83948 3.84766 10.60142 10.60142 0 001.25079.93335C127.77057 57.63336 126.07233 60.1853 123.9234 63.09528zm13.94672-14.00153c-.42725 2.91895-1.76758 3.56738-2.8877 3.80664a5.27614 5.27614 0 01-4.5498-1.36914 7.01654 7.01654 0 01-2.415-5.6748 6.5052 6.5052 0 012.68994-5.24707 12.07694 12.07694 0 016.70068-1.60156 28.48937 28.48937 0 014.10254.31934C140.04688 41.21289 138.57959 44.24512 137.87012 49.09375z" class="color0bceb2 svgShape"></path>
<path fill="#563560" d="M68.30471 9a3 3 0 10-3-3A3.00344 3.00344 0 0068.30471 9zm0-4.5a1.5 1.5 0 11-1.5 1.5A1.50148 1.50148 0 0168.30471 4.5zM162.94366 61.52681a2 2 0 102 2A2.00229 2.00229 0 00162.94366 61.52681zm0 3a1 1 0 111-1A1.001 1.001 0 01162.94366 64.52681zM104.64683 14.43681a2 2 0 102 2A2.00229 2.00229 0 00104.64683 14.43681zm0 3a1 1 0 111-1A1.001 1.001 0 01104.64683 17.43681zM163.94366 4a2 2 0 102 2A2.00229 2.00229 0 00163.94366 4zm0 3a1 1 0 111-1A1.001 1.001 0 01163.94366 7zM8.79313 17.43681a2 2 0 10-2 2A2.00229 2.00229 0 008.79313 17.43681zm-3 0a1 1 0 111 1A1.001 1.001 0 015.79313 17.43681z" class="color2d4356 svgShape"></path>
<polygon fill="#a783b2" points="10.888 70.011 12.375 68.056 11.436 67.524 10.481 69.714 10.45 69.714 9.48 67.539 8.525 68.087 9.996 69.996 9.996 70.027 7.695 69.73 7.695 70.794 10.011 70.497 10.011 70.528 8.525 72.436 9.416 73 10.434 70.794 10.465 70.794 11.404 72.984 12.39 72.421 10.888 70.543 10.888 70.512 13.25 70.794 13.25 69.73 10.888 70.042 10.888 70.011" class="color0bceb2 svgShape"></polygon>
<polygon fill="#a783b2" points="42.081 25.067 41.225 26.166 41.739 26.49 42.325 25.22 42.342 25.22 42.883 26.481 43.451 26.157 42.586 25.075 42.586 25.057 43.946 25.22 43.946 24.607 42.586 24.787 42.586 24.769 43.442 23.643 42.902 23.337 42.352 24.598 42.334 24.598 41.775 23.345 41.225 23.661 42.072 24.76 42.072 24.778 40.747 24.607 40.747 25.22 42.081 25.049 42.081 25.067" class="color0bceb2 svgShape"></polygon>
<polygon fill="#a783b2" points="160.029 33.521 160.029 32.478 157.712 32.785 157.712 32.754 159.17 30.836 158.249 30.314 157.313 32.462 157.282 32.462 156.331 30.329 155.394 30.867 156.837 32.739 156.837 32.77 154.581 32.478 154.581 33.521 156.852 33.23 156.852 33.261 155.394 35.133 156.269 35.686 157.267 33.521 157.297 33.521 158.218 35.67 159.185 35.118 157.712 33.276 157.712 33.245 160.029 33.521" class="color0bceb2 svgShape"></polygon>
<polygon fill="#a783b2" points="129.402 7.525 130.66 5.87 129.866 5.42 129.059 7.273 129.032 7.273 128.211 5.433 127.403 5.897 128.648 7.512 128.648 7.538 126.701 7.287 126.701 8.187 128.661 7.935 128.661 7.962 127.403 9.577 128.157 10.054 129.019 8.187 129.045 8.187 129.839 10.04 130.673 9.564 129.402 7.975 129.402 7.948 131.401 8.187 131.401 7.287 129.402 7.551 129.402 7.525" class="color0bceb2 svgShape"></polygon>
<circle cx="2" cy="149" r="2" fill="#563560" class="color2d4356 svgShape"></circle>
<path fill="#563560" d="M11 147H8a2 2 0 000 4h3a2 2 0 000-4zM160 147h-3a2 2 0 000 4h3a2 2 0 000-4z" class="color2d4356 svgShape"></path>
<circle cx="166" cy="149" r="2" fill="#563560" class="color2d4356 svgShape"></circle>
<path fill="#a783b2" d="M118.15387 155h-8.30774a2.00641 2.00641 0 000 4h8.30774a2.00641 2.00641 0 000-4zM58.15387 155H49.84613a2.00641 2.00641 0 000 4h8.30774a2.00641 2.00641 0 000-4zM104 155H64a2 2 0 000 4H79.94v2H72a2 2 0 000 4H97a2 2 0 000-4H88.06v-2H104a2 2 0 000-4z" class="color0bceb2 svgShape"></path>
<path fill="#563560" d="M150.72131,147H106.388a64.88265,64.88265,0,0,0,33.1413-27.18555c9.93262-15.5791,9.00586-29.458,4.82568-37.25391-2.60156-4.85156-6.69678-7.79492-10.95557-7.873-4.22656-.06836-8.13232,2.5752-10.99609,7.47266-2.55615,4.37207-8.188,11.94531-17.19971,13.55371-.3833.07129-.7666.125-1.17432.1709-7.99463.96484-16.19824-2.45605-19.94336-8.33008-4.34326-6.80957-2.67627-13.9502,5.10107-21.834,1.00293-1.02148,2.09912-2.0459,3.26025-3.04687,1.96631-1.69727,4.01758-3.34375,6.001-4.93555,6.26221-5.02441,12.73779-10.2207,17.10059-17.55566a7.68108,7.68108,0,0,0,.76025-6.11914,7.3589,7.3589,0,0,0-3.87549-4.5625,65.56527,65.56527,0,0,0-30.75293-6.46A64.57448,64.57448,0,0,0,37.87744,42.27246a63.38677,63.38677,0,0,0-.1792,89.40234A64.49229,64.49229,0,0,0,61.41022,147H17.27869a2.017,2.017,0,1,0,0,4H150.72131a2.017,2.017,0,1,0,0-4ZM80.71338,89.70508c4.47009,7.01257,12.5484,10.07507,19.75476,10.3111.00421.00085-.001.009.004.00922A20.99561,20.99561,0,1,1,83.13184,66.03455c.1601-.01123.29279-.02069.43158-.03058C76.86761,74.19269,75.89563,82.1524,80.71338,89.70508ZM40.54785,128.86719A59.25139,59.25139,0,0,1,23.3501,86.09961c.46777-31.99707,26.15039-57.93945,58.46875-59.06055q1.06641-.03662,2.13086-.03711A61.39679,61.39679,0,0,1,110.688,33.09961a3.40494,3.40494,0,0,1,1.79,2.1123,3.67608,3.67608,0,0,1-.3667,2.92578c-3.99316,6.71289-9.90625,11.458-16.1665,16.48145-2.01123,1.61328-4.09082,3.28223-6.11035,5.02637-.97876.84314-1.9,1.70618-2.78009,2.56989A24.2026,24.2026,0,0,0,84,62a25,25,0,1,0,21.51251,37.70837c.1347-.02173.27661-.03528.40887-.05994,7.84033-1.39941,14.92041-6.89258,19.93506-15.46875,2.10059-3.59375,4.75977-5.54883,7.46924-5.49316,2.791.05176,5.59619,2.20605,7.50391,5.76367,3.647,6.80078,4.33105,19.10352-4.68555,33.2334l-.02588.042A61.14521,61.14521,0,0,1,84.00977,147,60.53376,60.53376,0,0,1,40.54785,128.86719Z" class="color2d4356 svgShape"></path></svg>