<svg xmlns="http://www.w3.org/2000/svg" viewBox="0 0 168 168">
<path fill="#a783b2" d="M118,79v2a8,8,0,0,0,16,0V79a8,8,0,0,0-16,0Zm4,0a4,4,0,0,1,8,0v2a4,4,0,0,1-8,0Z"/>
<path fill="#563560" d="M74,23a54.00153,54.00153,0,0,0-7.2666,107.51172,1.99978,1.99978,0,0,0,.5332-3.96387,50.00219,50.00219,0,1,1,54.92578-62.90527,2,2,0,0,0,3.85547-1.06543A54.12709,54.12709,0,0,0,74,23Z"/>
<path fill="#a783b2" d="M76 35V33a2 2 0 00-4 0v2a2 2 0 004 0zM34 77a2.0001 2.0001 0 00-2-2H30a2 2 0 000 4h2A2.0001 2.0001 0 0034 77zM103.69873 44.47314l-1.41455 1.41455a1.99979 1.99979 0 102.82813 2.82813l1.41455-1.41455a1.99979 1.99979 0 00-2.82812-2.82812zM42.8877 105.28418l-1.41455 1.41455a1.99979 1.99979 0 102.82813 2.82813l1.41455-1.41455a1.99979 1.99979 0 00-2.82812-2.82812zM45.71582 45.8877l-1.41455-1.41455a1.99979 1.99979 0 00-2.82812 2.82813l1.41455 1.41455a1.99979 1.99979 0 002.82813-2.82812z"/>
<circle cx="90.801" cy="37.418" r="2" fill="#563560" transform="rotate(-67 90.801 37.418)"/>
<circle cx="57.199" cy="116.582" r="2" fill="#563560" transform="rotate(-67 57.199 116.582)"/>
<circle cx="34.418" cy="60.199" r="2" fill="#563560" transform="rotate(-67 34.418 60.199)"/>
<circle cx="113.869" cy="60.892" r="2" fill="#563560" transform="rotate(-22 113.869 60.892)"/>
<circle cx="34.131" cy="93.108" r="2" fill="#563560" transform="rotate(-22 34.131 93.108)"/>
<circle cx="57.892" cy="37.131" r="2" fill="#563560" transform="rotate(-22 57.892 37.131)"/>
<path fill="#a783b2" d="M60.22656,109.84424a1.99781,1.99781,0,0,0,2.61768-1.0708L73.25049,83.9585A6.9994,6.9994,0,1,0,74,70c-.1958,0-.38824.01349-.58.02936L66.8623,53.271a1.99991,1.99991,0,1,0-3.72461,1.458l6.5589,16.76166a6.983,6.983,0,0,0-.13361,10.9187l-10.40723,24.8172A1.9998,1.9998,0,0,0,60.22656,109.84424ZM74,74a3,3,0,1,1-3,3A3.00328,3.00328,0,0,1,74,74Z"/>
<path fill="#563560" d="M121 9a3 3 0 10-3-3A3.00344 3.00344 0 00121 9zm0-4.5A1.5 1.5 0 11119.5 6 1.50148 1.50148 0 01121 4.5zM32.41777 27a2 2 0 102 2A2.00229 2.00229 0 0032.41777 27zm0 3a1 1 0 111-1A1.001 1.001 0 0132.41777 30zM53.89139 5.5a2 2 0 102 2A2.00229 2.00229 0 0053.89139 5.5zm0 3a1 1 0 111-1A1.001 1.001 0 0153.89139 8.5zM159 41a2 2 0 102 2A2.00229 2.00229 0 00159 41zm0 3a1 1 0 111-1A1.001 1.001 0 01159 44zM11 14a2 2 0 10-2 2A2.00229 2.00229 0 0011 14zM8 14a1 1 0 111 1A1.001 1.001 0 018 14z"/>
<polygon fill="#a783b2" points="87.193 12.749 88.679 10.794 87.74 10.262 86.786 12.452 86.754 12.452 85.785 10.277 84.829 10.825 86.301 12.734 86.301 12.765 84 12.468 84 13.532 86.316 13.235 86.316 13.266 84.829 15.174 85.721 15.738 86.739 13.532 86.77 13.532 87.708 15.722 88.695 15.159 87.193 13.281 87.193 13.25 89.554 13.532 89.554 12.468 87.193 12.781 87.193 12.749"/>
<polygon fill="#a783b2" points="9.734 48.093 8.878 49.192 9.392 49.517 9.978 48.246 9.996 48.246 10.536 49.508 11.104 49.183 10.239 48.102 10.239 48.084 11.599 48.246 11.599 47.634 10.239 47.814 10.239 47.796 11.095 46.67 10.555 46.363 10.005 47.624 9.987 47.624 9.429 46.372 8.878 46.688 9.726 47.787 9.726 47.805 8.401 47.634 8.401 48.246 9.734 48.075 9.734 48.093"/>
<polygon fill="#a783b2" points="132 30.713 132 29.67 129.683 29.977 129.683 29.946 131.142 28.028 130.221 27.506 129.285 29.654 129.253 29.654 128.302 27.521 127.365 28.059 128.808 29.931 128.808 29.962 126.552 29.67 126.552 30.713 128.823 30.422 128.823 30.453 127.365 32.325 128.24 32.878 129.238 30.713 129.268 30.713 130.189 32.862 131.156 32.31 129.683 30.468 129.683 30.437 132 30.713"/>
<polygon fill="#a783b2" points="157.443 5.586 158.701 3.931 157.907 3.481 157.099 5.334 157.072 5.334 156.252 3.494 155.444 3.958 156.689 5.573 156.689 5.599 154.742 5.348 154.742 6.248 156.702 5.996 156.702 6.023 155.444 7.638 156.198 8.115 157.06 6.248 157.085 6.248 157.88 8.101 158.714 7.625 157.443 6.036 157.443 6.009 159.442 6.248 159.442 5.348 157.443 5.612 157.443 5.586"/>
<circle cx="2" cy="149" r="2" fill="#563560"/>
<path fill="#563560" d="M11 147H8a2 2 0 000 4h3a2 2 0 000-4zM160 147h-3a2 2 0 000 4h3a2 2 0 000-4z"/>
<circle cx="166" cy="149" r="2" fill="#563560"/>
<path fill="#a783b2" d="M118.15387 155h-8.30774a2.00641 2.00641 0 000 4h8.30774a2.00641 2.00641 0 000-4zM58.15387 155H49.84613a2.00641 2.00641 0 000 4h8.30774a2.00641 2.00641 0 000-4zM104 155H64a2 2 0 000 4H79.94v2H72a2 2 0 000 4H97a2 2 0 000-4H88.06v-2H104a2 2 0 000-4z"/>
<path fill="#563560" d="M150.72131,147h-7.15967l-3.42224-13.689A16.98774,16.98774,0,0,0,148,119V101a5.98974,5.98974,0,0,0-9.65851-4.74493A11.09011,11.09011,0,0,0,117.8208,102v1H108a5.98345,5.98345,0,0,0-5.65,8H95.5542L88.85693,94.25732a1.99994,1.99994,0,0,0-3.71387,1.48535L91.24615,111H77a2.0001,2.0001,0,0,0-2,2v34H17.27869a2.017,2.017,0,1,0,0,4H150.72131a2.017,2.017,0,1,0,0-4ZM140,117V101a2,2,0,0,1,4,0v18a13.01442,13.01442,0,0,1-13,13H120a2,2,0,0,1,0-4h9A11.01245,11.01245,0,0,0,140,117Zm-16,7v-2a2.002,2.002,0,0,1,2-2h9.315A7.00209,7.00209,0,0,1,129,124Zm-16-17h9.8208v3.66162L117.00055,111H108a2,2,0,0,1,0-4ZM79,147V115h30.33936a7.966,7.966,0,0,0-2.04395,4.35889l-3.25,25.35645A5.5428,5.5428,0,0,0,104.23315,147Zm29.3916-.54932a1.54231,1.54231,0,0,1-.37842-1.22705l3.25-25.35645a4.01741,4.01741,0,0,1,2.45947-3.188l6.86084-2.83057A1.99891,1.99891,0,0,0,121.8208,112V102A7.09017,7.09017,0,0,1,136,102v14h-4V103.5a2,2,0,0,0-4,0V116h-2a6.00656,6.00656,0,0,0-6,6v2a5.98873,5.98873,0,0,0-4.788,9.601l-4.05188,12.30286a1.63706,1.63706,0,0,1-2.76855.54688ZM115.01013,147l3.67249-11.15039A5.98623,5.98623,0,0,0,120,136h1.18835l-2.75,11Zm7.55151,0,2.75-11H131a16.897,16.897,0,0,0,5.45941-.91577L139.43835,147Z"/>
</svg>