<svg xmlns="http://www.w3.org/2000/svg" viewBox="0 0 168 168">
<path fill="#a783b2" d="M84 80.00024a8.00917 8.00917 0 00-8 8v6a8 8 0 0016 0v-6A8.00917 8.00917 0 0084 80.00024zm4 14a4 4 0 01-8 0v-6a4 4 0 018 0zM73 49.00024v10a7.00818 7.00818 0 007 7h8a7.00818 7.00818 0 007-7v-10a7.00818 7.00818 0 00-7-7H80A7.00818 7.00818 0 0073 49.00024zm9 13H80a3.00328 3.00328 0 01-3-3v-3h5zm4-16h2a3.00328 3.00328 0 013 3v3H86zm0 10h5v3a3.00328 3.00328 0 01-3 3H86zm-4-4H77v-3a3.00328 3.00328 0 013-3h2z"/>
<path fill="#563560" d="M91.5 19.08333a3 3 0 10-3-3A3.00344 3.00344 0 0091.5 19.08333zm0-4.5a1.5 1.5 0 11-1.5 1.5A1.50148 1.50148 0 0191.5 14.58333zM119.05778 5.06119a2 2 0 102 2A2.00229 2.00229 0 00119.05778 5.06119zm0 3a1 1 0 111-1A1.001 1.001 0 01119.05778 8.06119zM61.55342 3a2 2 0 102 2A2.00229 2.00229 0 0061.55342 3zm0 3a1 1 0 111-1A1.001 1.001 0 0161.55342 6zM127.75 32.37177a2 2 0 102 2A2.00229 2.00229 0 00127.75 32.37177zm0 3a1 1 0 111-1A1.001 1.001 0 01127.75 35.37177zM17.05778 57.94658a2 2 0 10-2 2A2.00229 2.00229 0 0017.05778 57.94658zm-3 0a1 1 0 111 1A1.001 1.001 0 0114.05778 57.94658z"/>
<polygon fill="#a783b2" points="45.641 27.958 47.128 26.002 46.189 25.47 45.235 27.66 45.203 27.66 44.233 25.486 43.278 26.034 44.749 27.943 44.749 27.974 42.448 27.676 42.448 28.74 44.764 28.443 44.764 28.474 43.278 30.383 44.169 30.947 45.187 28.74 45.218 28.74 46.157 30.931 47.143 30.368 45.641 28.49 45.641 28.459 48.003 28.74 48.003 27.676 45.641 27.989 45.641 27.958"/>
<polygon fill="#a783b2" points="8.834 16.013 7.978 17.112 8.492 17.437 9.078 16.166 9.095 16.166 9.636 17.428 10.204 17.103 9.339 16.022 9.339 16.004 10.699 16.166 10.699 15.554 9.339 15.734 9.339 15.716 10.195 14.59 9.655 14.283 9.105 15.544 9.087 15.544 8.528 14.292 7.978 14.607 8.826 15.707 8.826 15.725 7.501 15.554 7.501 16.166 8.834 15.995 8.834 16.013"/>
<polygon fill="#a783b2" points="159.058 43.517 159.058 42.473 156.741 42.78 156.741 42.749 158.199 40.831 157.278 40.31 156.342 42.458 156.311 42.458 155.36 40.325 154.423 40.862 155.866 42.734 155.866 42.765 153.609 42.473 153.609 43.517 155.881 43.226 155.881 43.256 154.423 45.128 155.298 45.681 156.296 43.517 156.326 43.517 157.247 45.665 158.214 45.113 156.741 43.271 156.741 43.241 159.058 43.517"/>
<polygon fill="#a783b2" points="158.501 6.532 159.759 4.878 158.965 4.428 158.157 6.281 158.13 6.281 157.31 4.441 156.501 4.904 157.746 6.519 157.746 6.546 155.8 6.294 155.8 7.194 157.759 6.943 157.759 6.969 156.501 8.584 157.256 9.061 158.117 7.194 158.143 7.194 158.938 9.048 159.772 8.571 158.501 6.982 158.501 6.956 160.499 7.194 160.499 6.294 158.501 6.559 158.501 6.532"/>
<circle cx="2" cy="149" r="2" fill="#563560"/>
<path fill="#563560" d="M11 147H8a2 2 0 000 4h3a2 2 0 000-4zM160 147h-3a2 2 0 000 4h3a2 2 0 000-4z"/>
<circle cx="166" cy="149" r="2" fill="#563560"/>
<path fill="#a783b2" d="M118.15387 155h-8.30774a2.00641 2.00641 0 000 4h8.30774a2.00641 2.00641 0 000-4zM58.15387 155H49.84613a2.00641 2.00641 0 000 4h8.30774a2.00641 2.00641 0 000-4zM104 155H64a2 2 0 000 4H79.94v2H72a2 2 0 000 4H97a2 2 0 000-4H88.06v-2H104a2 2 0 000-4z"/>
<path fill="#563560" d="M150.72131,147H98.02808l8.0686-16.42065a6.712,6.712,0,0,0-.83057-7.25684l-7.50928-9.26074,1.02734-9.84082L111.8335,93.79517c.043-.03418.085-.07031.125-.1084a6.34945,6.34945,0,0,0,1.21777-7.77051l-4.88611-10.916H126a2,2,0,0,0,0-4H111.31824l3.18555-21.50275,4.32532,3.12384a1.99974,1.99974,0,1,0,2.3418-3.24219l-36-26a1.99653,1.99653,0,0,0-2.3418,0l-36,26a1.99974,1.99974,0,1,0,2.3418,3.24219l4.32532-3.12384,3.18555,21.50275H42a2,2,0,0,0,0,4H59.70984l-4.88611,10.916a6.34945,6.34945,0,0,0,1.21777,7.77051c.04.03809.082.07422.125.1084l13.04932,10.42578,1.02734,9.84082-7.50928,9.26074a6.712,6.712,0,0,0-.83057,7.25684L69.97241,147H17.27869a2.017,2.017,0,1,0,0,4H150.72131a2.017,2.017,0,1,0,0-4ZM57.14917,46.85925,84,27.467l26.85083,19.39221-3.57642,24.141H60.72559Zm1.58765,43.86951a2.33417,2.33417,0,0,1-.40723-2.88477,2.15787,2.15787,0,0,0,.10352-.2002L63.6084,76.08228a2.16988,2.16988,0,0,1,1.857-1.082H65.514a2.16966,2.16966,0,0,1,2.01624,2.91406c-.01514.043-.0293.08594-.042.12891l-2.79834,9.67773a2.00078,2.00078,0,0,0,.74951,2.17676l6.59424,4.76746C72.02148,94.44373,72,94.22467,72,94.00024V89.705l-3.07666-2.2243L71.314,79.21313a6.17364,6.17364,0,0,0-.05115-4.21289H96.73724a6.17435,6.17435,0,0,0-.05072,4.21289l2.3877,8.25977L96,89.67157v4.32867c0,.20648-.02063.40771-.031.61163l6.58325-4.70831a2.00105,2.00105,0,0,0,.75781-2.18262l-2.79785-9.67773c-.0127-.043-.02686-.08691-.04248-.12891a2.16967,2.16967,0,0,1,2.01575-2.91406h.04913a2.16988,2.16988,0,0,1,1.857,1.082l5.17529,11.56152a2.15785,2.15785,0,0,0,.10352.2002,2.33417,2.33417,0,0,1-.40723,2.88477L95.6333,101.61841a1.99913,1.99913,0,0,0-.74072,1.35449L93.87946,112.678H74.12054l-1.01312-9.70508a1.99913,1.99913,0,0,0-.74072-1.35449Zm15.042,54.94824-8.28564-16.86133a2.75154,2.75154,0,0,1,.34814-2.97363l7.43054-9.16406h21.4563l7.43054,9.16406a2.75154,2.75154,0,0,1,.34814,2.97363L94.22168,145.676A2.45387,2.45387,0,0,1,92.01349,147h-.00391a2.439,2.439,0,0,1-2.0379-1.03589,2.101,2.101,0,0,1-.25586-1.97266l5.563-14.9541a2,2,0,0,0-.75635-2.35547l-9.4043-6.33984a1.9999,1.9999,0,0,0-2.23633,0l-9.4043,6.33984a2,2,0,0,0-.75635,2.35547l5.563,14.9541a2.101,2.101,0,0,1-.25586,1.97266A2.439,2.439,0,0,1,75.99042,147h-.00391A2.45351,2.45351,0,0,1,73.77881,145.677Zm8.25439-3.08008L77.019,129.11841,84,124.41235l6.981,4.70605L85.9668,142.59692A6.04505,6.04505,0,0,0,86.01691,147H81.98309A6.04505,6.04505,0,0,0,82.0332,142.59692Z"/>
</svg>