<svg xmlns="http://www.w3.org/2000/svg" fill="none" viewBox="0 0 40 40">
    <path fill="#563560" fill-rule="evenodd"
        d="M19.6154 6.07692C19.8615 5.97436 20.1385 5.97436 20.3846 6.07692L32.3846 11.0769C32.8023 11.2509 33.051 11.6837 32.9912 12.1322L30.9912 27.1322C30.951 27.4339 30.7755 27.7009 30.5145 27.8575L20.5145 33.8575C20.1978 34.0475 19.8022 34.0475 19.4855 33.8575L9.4855 27.8575C9.22448 27.7009 9.049 27.4339 9.00877 27.1322L7.00878 12.1322C6.94898 11.6837 7.19775 11.2509 7.61539 11.0769L19.6154 6.07692ZM9.0926 12.6281L10.9276 26.3903L12.2537 27.186L19.0753 10.6193C19.2296 10.2445 19.5948 10 20 10C20.4052 10 20.7704 10.2445 20.9247 10.6193L27.7463 27.186L29.0724 26.3903L30.9074 12.6281L20 8.08333L9.0926 12.6281ZM26.0119 28.2267L23.8597 23H16.1403L13.9881 28.2267L20 31.8338L26.0119 28.2267ZM16.9638 21H23.0362L20 13.6264L16.9638 21Z"
        clip-rule="evenodd" />
</svg>