<svg xmlns="http://www.w3.org/2000/svg" enable-background="new 0 0 520 520" viewBox="0 0 520 520">
	<path fill="#563560"
		d="M377.933,306.419c-0.938-0.938-2.209-1.464-3.535-1.464c-1.326,0-2.598,0.526-3.535,1.464l-7.875,7.875l-13.23-13.23
			c45.147-61.533,38.785-147.582-15.563-201.929c-29.39-29.39-68.466-45.576-110.03-45.576
			c-85.999,0-155.606,69.596-155.606,155.606c0,85.996,69.591,155.605,155.602,155.605c32.979,0,65.439-10.63,91.902-30.013
			l13.233,13.232l-7.875,7.875c-1.958,1.958-1.947,5.126,0,7.071l83.515,83.515c14.652,14.654,38.375,14.657,53.032,0l3.483-3.482
			c14.62-14.622,14.62-38.412-0.001-53.033L377.933,306.419z M320.055,324.609c-1.784-1.784-4.616-1.958-6.607-0.41
			c-25.33,19.714-57.041,30.57-89.289,30.57c-80.469,0-145.602-65.121-145.602-145.605c0-80.472,65.123-145.606,145.606-145.606
			c38.893,0,75.458,15.146,102.959,42.647c51.836,51.836,57.027,134.483,12.074,192.244c-1.549,1.99-1.373,4.823,0.411,6.606
			l16.308,16.309l-19.553,19.553L320.055,324.609z M454.377,435.896l-3.483,3.482c-10.747,10.747-28.142,10.749-38.892,0
			l-79.979-79.978l42.373-42.373l79.98,79.979C465.099,407.727,465.099,425.173,454.377,435.896z" />
	<path fill="#563560"
		d="M418.405 403.406c-3.484 3.484-5.404 8.116-5.404 13.044 0 10.193 8.25 18.446 18.447 18.446 4.928 0 9.561-1.918 13.044-5.402 7.209-7.207 7.21-18.878.001-26.087C437.286 396.198 425.615 396.193 418.405 403.406zM431.448 424.897c-4.667 0-8.447-3.776-8.447-8.446 0-4.666 3.779-8.447 8.447-8.447 4.667 0 8.447 3.777 8.447 8.447C439.895 418.707 436.118 424.897 431.448 424.897zM374.666 340.649l-19.018 19.018c-3.166 3.166-.871 8.536 3.535 8.536 1.279 0 2.56-.488 3.535-1.465l19.018-19.018c1.953-1.952 1.953-5.118 0-7.071C379.785 338.697 376.617 338.697 374.666 340.649zM200 415.002c2.761 0 5-2.239 5-5 0-2.762-2.239-5-5-5H90c-2.761 0-5 2.238-5 5 0 2.761 2.239 5 5 5H200zM120 430.002c0 2.761 2.239 5 5 5h185c2.762 0 5-2.239 5-5 0-2.762-2.238-5-5-5H125C122.239 425.002 120 427.24 120 430.002zM360 445.002H95c-2.761 0-5 2.238-5 5 0 2.761 2.239 5 5 5h265c2.762 0 5-2.239 5-5C365 447.24 362.762 445.002 360 445.002zM435 140.001c22.056 0 40-17.944 40-40 0-22.056-17.944-40-40-40-22.056 0-40 17.944-40 40C395 122.058 412.944 140.001 435 140.001zM435 70.002c16.542 0 30 13.458 30 30s-13.458 30-30 30-30-13.458-30-30S418.458 70.002 435 70.002z" />
	<circle cx="332.5" cy="62.5" r="7.5" fill="#563560"/>
	<circle cx="452.5" cy="187.5" r="7.5" fill="#a783b2"/>
	<circle cx="437.5" cy="277.5" r="7.5" fill="#563560"/>
	<circle cx="62.5" cy="447.5" r="7.5" fill="#a783b2"/>
	<circle cx="102.5" cy="52.5" r="7.5" fill="#563560"/>
	<circle cx="57.5" cy="162.5" r="7.5" fill="#a783b2"/>
	<circle cx="282.5" cy="392.5" r="7.5" fill="#563560"/>
	<path fill="#563560"
		d="M100 345.002c0-13.785-11.215-25-25-25s-25 11.215-25 25c0 13.785 11.215 25 25 25S100 358.787 100 345.002zM75 360.002c-8.271 0-15-6.73-15-15 0-8.272 6.729-15 15-15s15 6.728 15 15C90 353.272 83.271 360.002 75 360.002zM224.164 93.053c-64.024 0-116.112 52.087-116.112 116.112 0 64.025 52.087 116.112 116.112 116.112 64.024 0 116.112-52.088 116.112-116.112C340.275 145.141 288.188 93.053 224.164 93.053zM224.164 315.277c-58.51 0-106.112-47.602-106.112-106.112 0-58.51 47.601-106.112 106.112-106.112 58.51 0 106.112 47.602 106.112 106.112C330.275 267.676 282.674 315.277 224.164 315.277z" />
	<path fill="#a783b2"
		d="M160 190.001h-15c-2.761 0-5 2.239-5 5 0 2.761 2.239 5 5 5h15c2.761 0 5-2.239 5-5C165 192.24 162.761 190.001 160 190.001zM160 210.001h-15c-2.761 0-5 2.239-5 5 0 2.761 2.239 5 5 5h15c2.761 0 5-2.239 5-5C165 212.24 162.761 210.001 160 210.001zM160 230.001h-15c-2.761 0-5 2.239-5 5 0 2.761 2.239 5 5 5h15c2.761 0 5-2.239 5-5C165 232.24 162.761 230.001 160 230.001zM160 250.001h-15c-2.761 0-5 2.239-5 5 0 2.761 2.239 5.001 5 5.001h15c2.761 0 5-2.239 5-5.001C165 252.24 162.761 250.001 160 250.001zM180 200.001h25c2.761 0 5-2.239 5-5 0-2.761-2.239-5-5-5h-25c-2.761 0-5 2.239-5 5C175 197.763 177.239 200.001 180 200.001zM215 195.001c0 2.761 2.239 5 5 5h45c2.762 0 5-2.239 5-5 0-2.761-2.238-5-5-5h-45C217.239 190.001 215 192.24 215 195.001zM265 215.001c0-2.761-2.238-5-5-5h-80c-2.761 0-5 2.239-5 5 0 2.761 2.239 5 5 5h80C262.762 220.001 265 217.763 265 215.001zM180 230.001c-2.761 0-5 2.239-5 5 0 2.761 2.239 5 5 5h15c2.761 0 5-2.239 5-5 0-2.761-2.239-5-5-5H180zM245 240.001c2.761 0 5-2.239 5-5 0-2.761-2.239-5-5-5h-35c-2.761 0-5 2.239-5 5 0 2.761 2.239 5 5 5H245zM200 250.001h-20c-2.761 0-5 2.239-5 5 0 2.761 2.239 5.001 5 5.001h20c2.761 0 5-2.239 5-5.001C205 252.24 202.761 250.001 200 250.001zM260 250.001h-45c-2.761 0-5 2.239-5 5 0 2.761 2.239 5.001 5 5.001h45c2.762 0 5-2.239 5-5.001C265 252.24 262.762 250.001 260 250.001zM275 220.001h5c2.762 0 5-2.239 5-5 0-2.761-2.238-5-5-5h-5c-2.762 0-5 2.239-5 5C270 217.763 272.238 220.001 275 220.001zM310 230.001h-15c-2.762 0-5 2.239-5 5 0 2.761 2.238 5 5 5h15c2.762 0 5-2.239 5-5C315 232.24 312.762 230.001 310 230.001zM260 240.001h20c2.762 0 5-2.239 5-5 0-2.761-2.238-5-5-5h-20c-2.762 0-5 2.239-5 5C255 237.763 257.238 240.001 260 240.001zM285 250.001h-10c-2.762 0-5 2.239-5 5 0 2.761 2.238 5.001 5 5.001h10c2.762 0 5-2.239 5-5.001C290 252.24 287.762 250.001 285 250.001z" />
	<polygon fill="#563560"
		points="184.944 165 192.261 165 192.261 133.322 184.944 133.322 184.944 145.592 172.317 145.592 172.317 133.322 165 133.322 165 165 172.317 165 172.317 152.017 184.944 152.017" />
	<polygon fill="#563560"
		points="208.635 165 215.952 165 215.952 139.747 225.589 139.747 225.589 133.322 198.953 133.322 198.953 139.747 208.635 139.747" />
	<polygon fill="#563560"
		points="239.598 146.038 246.468 159.825 250.395 159.825 257.266 146.038 257.266 165 264.582 165 264.582 133.322 256.685 133.322 248.432 149.875 240.222 133.322 232.28 133.322 232.28 165 239.598 165" />
	<polygon fill="#563560"
		points="296.439 158.575 281.09 158.575 281.09 133.322 273.772 133.322 273.772 165 296.439 165" />
	<circle cx="452.5" cy="467.5" r="7.5" fill="#a783b2" />
</svg>