<svg xmlns="http://www.w3.org/2000/svg" data-name="Layer 1" viewBox="0 0 168 168">
    <path fill="#563560"
        d="M47.07568 40.8942a3 3 0 1 0-3-3A3.00344 3.00344 0 0 0 47.07568 40.8942zm0-4.5a1.5 1.5 0 1 1-1.5 1.5A1.50148 1.50148 0 0 1 47.07568 36.3942zM158.30471 67.8942a2 2 0 1 0 2 2A2.00229 2.00229 0 0 0 158.30471 67.8942zm0 3a1 1 0 1 1 1-1A1.001 1.001 0 0 1 158.30471 70.8942zM121.25 48.8942a2 2 0 1 0 2 2A2.00229 2.00229 0 0 0 121.25 48.8942zm0 3a1 1 0 1 1 1-1A1.001 1.001 0 0 1 121.25 51.8942zM98.53613 24.8942a2 2 0 1 0 2 2A2.00229 2.00229 0 0 0 98.53613 24.8942zm0 3a1 1 0 1 1 1-1A1.001 1.001 0 0 1 98.53613 27.8942zM16.30471 15.23624a2 2 0 1 0-2 2A2.00229 2.00229 0 0 0 16.30471 15.23624zm-3 0a1 1 0 1 1 1 1A1.001 1.001 0 0 1 13.30471 15.23624z" />
    <polygon fill="#a783b2"
        points="8.111 41.644 9.597 39.688 8.658 39.156 7.704 41.346 7.672 41.346 6.703 39.171 5.747 39.719 7.219 41.628 7.219 41.659 4.918 41.362 4.918 42.426 7.234 42.129 7.234 42.16 5.747 44.069 6.639 44.632 7.657 42.426 7.688 42.426 8.627 44.616 9.613 44.053 8.111 42.175 8.111 42.144 10.473 42.426 10.473 41.362 8.111 41.675 8.111 41.644" />
    <polygon fill="#a783b2"
        points="73.93 4.836 73.074 5.935 73.587 6.259 74.173 4.989 74.191 4.989 74.732 6.25 75.299 5.926 74.435 4.845 74.435 4.827 75.795 4.989 75.795 4.376 74.435 4.556 74.435 4.538 75.291 3.412 74.75 3.106 74.2 4.367 74.182 4.367 73.624 3.115 73.074 3.43 73.921 4.529 73.921 4.547 72.596 4.376 72.596 4.989 73.93 4.818 73.93 4.836" />
    <polygon fill="#a783b2"
        points="161.029 38.416 161.029 37.372 158.712 37.679 158.712 37.648 160.17 35.73 159.249 35.208 158.313 37.357 158.282 37.357 157.331 35.223 156.394 35.761 157.837 37.633 157.837 37.664 155.581 37.372 155.581 38.416 157.852 38.124 157.852 38.155 156.394 40.027 157.269 40.58 158.267 38.416 158.297 38.416 159.218 40.564 160.185 40.012 158.712 38.17 158.712 38.139 161.029 38.416" />
    <polygon fill="#a783b2"
        points="139.201 6.047 140.459 4.393 139.665 3.943 138.857 5.796 138.83 5.796 138.01 3.956 137.202 4.419 138.447 6.034 138.447 6.061 136.5 5.809 136.5 6.709 138.46 6.458 138.46 6.484 137.202 8.099 137.956 8.576 138.817 6.709 138.843 6.709 139.638 8.563 140.472 8.086 139.201 6.497 139.201 6.471 141.2 6.709 141.2 5.809 139.201 6.074 139.201 6.047" />
    <circle cx="2" cy="148.894" r="2" fill="#563560" />
    <path fill="#563560"
        d="M11 146.8942H8a2 2 0 0 0 0 4h3a2 2 0 0 0 0-4zM160 146.8942h-3a2 2 0 0 0 0 4h3a2 2 0 0 0 0-4z" />
    <circle cx="166" cy="148.894" r="2" fill="#563560" />
    <path fill="#a783b2"
        d="M118.15387 154.8942h-8.30774a2.00641 2.00641 0 0 0 0 4h8.30774a2.00641 2.00641 0 0 0 0-4zM58.15387 154.8942H49.84613a2.00641 2.00641 0 0 0 0 4h8.30774a2.00641 2.00641 0 0 0 0-4zM104 154.8942H64a2 2 0 0 0 0 4H79.94v2H72a2 2 0 0 0 0 4H97a2 2 0 0 0 0-4H88.06v-2H104a2 2 0 0 0 0-4z" />
    <path fill="#563560"
        d="M22 85.8942h2.23682L35.87158 97.321a2.00021 2.00021 0 0 0 1.40137.57324H43v-4H38.09082L26.45605 82.46745a2.00021 2.00021 0 0 0-1.40137-.57324H22a2 2 0 0 0 0 4zM22 65.8942h9.38184L42.85645 76.821c.04449.04236.09576.075.14355.11273V71.43424L33.561 62.446a1.99892 1.99892 0 0 0-1.37939-.55176H24v-4a2 2 0 0 0-4 0v6A2.0001 2.0001 0 0 0 22 65.8942z" />
    <path fill="#a783b2"
        d="M22 74.8942h4.31934L38.98389 86.37565a1.99754 1.99754 0 0 0 1.34326.51855H43v-4H41.09863L28.43408 71.41276a1.99754 1.99754 0 0 0-1.34326-.51855H22a2 2 0 0 0 0 4zM139.64355 128.36393A1.99973 1.99973 0 0 0 141 128.8942h5a2 2 0 0 0 0-4h-4.21826l-12.42529-11.46973A1.99973 1.99973 0 0 0 128 112.8942h-3v4h2.21826z" />
    <path fill="#563560"
        d="M136 137.8942h8v4a2 2 0 0 0 4 0v-6a2.0001 2.0001 0 0 0-2-2h-9.18945l-11.25732-10.91406A1.98741 1.98741 0 0 0 125 122.60783v5.407l9.60791 9.31494A1.998 1.998 0 0 0 136 137.8942zM141.58594 117.30827A2.00025 2.00025 0 0 0 143 117.8942h3a2 2 0 0 0 0-4h-2.17139l-11.41455-11.41406A2.00025 2.00025 0 0 0 131 101.8942h-6v4h5.17139zM132.41406 97.30827L143.82861 85.8942H146a2 2 0 0 0 0-4h-3a2.00025 2.00025 0 0 0-1.41406.58594L130.17139 93.8942H125v4h6A2.00025 2.00025 0 0 0 132.41406 97.30827z" />
    <path fill="#a783b2"
        d="M129.35645,86.36393,141.78174,74.8942H146a2,2,0,0,0,0-4h-5a1.99973,1.99973,0,0,0-1.35645.53027L127.21826,82.8942H125v4h3A1.99973,1.99973,0,0,0,129.35645,86.36393Z" />
    <path fill="#563560"
        d="M136.81055 65.8942H146a2.0001 2.0001 0 0 0 2-2v-6a2 2 0 1 0-4 0v4h-8a1.998 1.998 0 0 0-1.39209.56445L125 71.7736v5.40692a1.9872 1.9872 0 0 0 .55322-.37225zM22 143.8942a2.0001 2.0001 0 0 0 2-2v-4h8.18164a1.99892 1.99892 0 0 0 1.37939-.55176l2.44458-2.32788C36.005 134.974 36 134.93473 36 134.8942V129.4965l-4.61816 4.39771H22a2.0001 2.0001 0 0 0-2 2v6A2.0001 2.0001 0 0 0 22 143.8942z" />
    <path fill="#a783b2"
        d="M22,128.8942h5.09082a1.99754,1.99754,0,0,0,1.34326-.51855L36,121.51652v-5.39868l-9.68066,8.77637H22a2,2,0,0,0,0,4Z" />
    <path fill="#563560"
        d="M22 117.8942h3.05469a2.00021 2.00021 0 0 0 1.40137-.57324l9.61646-9.44458a7.99946 7.99946 0 0 1 4.07819-5.98218H37.27295a2.00021 2.00021 0 0 0-1.40137.57324L24.23682 113.8942H22a2 2 0 1 0 0 4zM73.05176 78.8942a2 2 0 0 0 0-4H66a2.0001 2.0001 0 0 0-2 2v14a2.0001 2.0001 0 0 0 2 2h7.05176a2 2 0 0 0 0-4H68v-10z" />
    <path fill="#a783b2"
        d="M87.15479,81.8942H82.22656v-3h4.8042a2,2,0,0,0,0-4h-6.8042a2.0001,2.0001,0,0,0-2,2v7a2.0001,2.0001,0,0,0,2,2h4.92822v2.89453H80.22656a2,2,0,0,0,0,4h6.92822a2.0001,2.0001,0,0,0,2-2V83.8942A2.0001,2.0001,0,0,0,87.15479,81.8942Z" />
    <path fill="#563560"
        d="M102,81.8942H97.07227v-3h4.8042a2,2,0,0,0,0-4h-6.8042a2.0001,2.0001,0,0,0-2,2v7a2.0001,2.0001,0,0,0,2,2H100v2.89453H95.07227a2,2,0,0,0,0,4H102a2.0001,2.0001,0,0,0,2-2V83.8942A2.0001,2.0001,0,0,0,102,81.8942Z" />
    <path fill="#a783b2"
        d="M73.51855 113.59245a2.00015 2.00015 0 1 0-3.03711 2.60352l4.88428 5.69824-4.88428 5.69824a2.00015 2.00015 0 0 0 3.03711 2.60352l6-7a2.00022 2.00022 0 0 0 0-2.60352zM59.30176 113.37565a2.0028 2.0028 0 0 0-2.82031.2168l-6 7a2.00022 2.00022 0 0 0 0 2.60352l6 7a2.00015 2.00015 0 1 0 3.03711-2.60352l-4.88428-5.69824 4.88428-5.69824A2.00056 2.00056 0 0 0 59.30176 113.37565z" />
    <path fill="#563560"
        d="M150.72131,146.8942H120.94824V69.31413c0-.0141-.00385-.02765-.00415-.04169a1.98327,1.98327,0,0,0-.53-1.7923l-18-18a5.43333,5.43333,0,0,0-2.125-.58594H51.07813a4.01746,4.01746,0,0,0-4.02637,4v52.1084H44.07568A3.94913,3.94913,0,0,0,43,105.16813v-.13184a4.02,4.02,0,0,0-1.61627.85791h.20551a3.97736,3.97736,0,0,0-1.51355,3.1084v25.7832a4.00427,4.00427,0,0,0,4,4h2.97607v8.1084H17.27869a2.017,2.017,0,1,0,0,4H150.72131a2.017,2.017,0,1,0,0-4ZM103,56.38078,113.64972,66.8942H103Zm-58.92432,78.405V109.0026H85.92432l.00244,25.7832Zm6.97607,12.1084.00226-8.1084h34.8703a4.00427,4.00427,0,0,0,4-4V109.0026a4.00427,4.00427,0,0,0-4-4H51.06348l.01465-52.1084H99V66.9401a3.95853,3.95853,0,0,0,3.95459,3.9541h13.99292l-.02563,76Z" />
</svg>