<svg xmlns="http://www.w3.org/2000/svg" viewBox="0 0 168 168">
<path fill="#563560" d="M127,66a43,43,0,1,0-43,43A43.0488,43.0488,0,0,0,127,66ZM84,105a39,39,0,1,1,39-39A39.0439,39.0439,0,0,1,84,105Z"/>
<path fill="#a783b2" d="M114.99707,68.0166a2.00443,2.00443,0,0,0-2.24023,1.72656,29,29,0,1,1,0-7.48633,2,2,0,0,0,3.9668-.51367,33,33,0,1,0,0,8.51367A2.00015,2.00015,0,0,0,114.99707,68.0166Z"/>
<path fill="#563560" d="M70.60352,82.27832a2.00058,2.00058,0,0,0,.53418,2.77734,23.02058,23.02058,0,1,0-6.19434-6.19385,2.00028,2.00028,0,0,0,3.3125-2.24316,19.02706,19.02706,0,1,1,5.126,5.12549A2.00018,2.00018,0,0,0,70.60352,82.27832Z"/>
<path fill="#a783b2" d="M80.72754,57.61328a2.00028,2.00028,0,0,0-1.45508-3.72656,13,13,0,1,0,9.45508,0,2.00028,2.00028,0,0,0-1.45508,3.72656,9,9,0,1,1-6.54492,0Z"/>
<circle cx="84" cy="66" r="2" fill="#563560"/>
<path fill="#563560" d="M146 108H133a1.98751 1.98751 0 00-1.55.75043l-.83417-.00372c-.49756-.968-1.14563-2.25793-1.40814-2.92279v-.53033c0-.13647.007-.27643.01282-.417a6.59336 6.59336 0 00-1.71747-5.29712 5.33606 5.33606 0 00-3.41559-1.5697c-.11432-.00684-.21484-.00977-.31494-.00977a5.3819 5.3819 0 00-2.60712.68555c-3.11249 1.68109-3.47125 5.69958-3.62445 7.41559a7.02574 7.02574 0 00.04108 1.27521l-2.19965.0022A5.256 5.256 0 00110 112.74176a5.73458 5.73458 0 00.59155 2.54266 5.79945 5.79945 0 00.62982 3.36493q-.02234.25525-.02252.5152a5.75394 5.75394 0 00.85895 3.03912c-.00189.06067-.00281.1217-.00281.18268a5.50816 5.50816 0 005.38538 5.61151h3.80133v-.00262c.06818.00269.137.00409.20721.00427l.55225.00049 2.17645-.00214h2.24872c.03754 0 .07513-.00049.11249-.00153.13934-.00128.49084-.00146.49274-.00146a4.0003 4.0003 0 001.24731-.20074 5.85453 5.85453 0 001.35791-.65955c.22485.00256.46625.00775.713.01282.34314.00708.68915.0116 1.02759.01416A1.99372 1.99372 0 00133 128h7a2 2 0 000-4h-5V112h11a2 2 0 000-4zm-15 15.159c-.5694-.00928-1.15112-.02606-1.63043-.02606a3.67133 3.67133 0 00-1.03552.08289c-.4613.2-.82446.6203-1.30652.77905 0 0-.60626.00061-.6012.003h-2.25525S122.86914 124 122.00116 124c-.434 0-.75946-.00055-.75946-.00214h-3.80133a1.51015 1.51015 0 01-1.38538-1.61151 1.69877 1.69877 0 01.73987-1.425.10477.10477 0 00.04175-.0946c-.00934-.07172-.06769-.08887-.12134-.08887h-.13361a1.51088 1.51088 0 01-1.38281-1.61328 1.646 1.646 0 01.776-1.44653c.1665-.09454-.03387-.16144-.03387-.16144a1.51239 1.51239 0 01-1.38745-1.61151 1.6785 1.6785 0 01.79065-1.45416c.1095-.06519.05817-.134-.02374-.14A1.53347 1.53347 0 01114 112.74176a1.29262 1.29262 0 011.38641-1.36322l6.25574-.00635s.81476-.005.6485-.65851a26.28476 26.28476 0 01-.76556-4.25684c.118-1.322.38214-3.62585 1.56122-4.26276A1.44353 1.44353 0 01123.77252 102q.03223 0 .06451.00189a1.39461 1.39461 0 01.86578.434c.73.71564.50488 1.8526.50488 2.85773v1.01886c0 .83521 2.01385 4.56323 2.72211 5.94287a.87975.87975 0 00.7572.48279h.00275L131 112.74847zM22 112H33v12H28a2 2 0 000 4h7a1.99372 1.99372 0 001.62262-.83844c.3385-.00256.68445-.00708 1.02759-.01416.24677-.00507.48816-.01025.713-.01282a5.854 5.854 0 001.35785.65955 4.0003 4.0003 0 001.24731.20074c.002 0 .35345.00018.4928.00146q.056.00156.11249.00153h2.25525L45.99884 128l.55231-.00049c.07-.00018.13922-.00159.20715-.00427v.00262h3.80133a5.50816 5.50816 0 005.38538-5.61151q0-.09146-.00287-.18262a5.7542 5.7542 0 00.859-3.03918q0-.25974-.02252-.51526a5.799 5.799 0 00.62982-3.36481A5.73485 5.73485 0 0058 112.74176a5.25689 5.25689 0 00-5.38641-5.36322l-2.19513-.00226a7.00127 7.00127 0 00.04108-1.27032c-.15375-1.721-.51276-5.7395-3.6449-7.43127A5.35563 5.35563 0 0044.22748 98q-.15024 0-.30078.00891a5.33515 5.33515 0 00-3.42126 1.56232 6.59842 6.59842 0 00-1.726 5.30536c.0058.14063.01282.28052.01282.417v.53033c-.26257.66492-.91052 1.95471-1.40814 2.92279l-.83417.00372A1.98751 1.98751 0 0035 108H22a2 2 0 000 4zm15 .74847l2.3103-.01038H39.313a.87956.87956 0 00.75714-.48279c.70825-1.37964 2.72211-5.10767 2.72211-5.94287v-1.01886c0-1.00513-.2251-2.14209.50488-2.85773a1.39461 1.39461 0 01.86578-.434Q44.19528 102 44.22748 102a1.44333 1.44333 0 01.68622.19409c1.17908.6369 1.44318 2.94073 1.56128 4.26276a26.286 26.286 0 01-.76562 4.25684c-.16626.6535.64856.65851.64856.65851l6.25568.00635A1.29262 1.29262 0 0154 112.74176a1.53342 1.53342 0 01-1.32043 1.60913c-.08185.006-.13324.07483-.02374.14a1.67836 1.67836 0 01.79065 1.45416 1.51239 1.51239 0 01-1.38745 1.61151s-.20032.06689-.03387.16144a1.646 1.646 0 01.776 1.44653 1.51084 1.51084 0 01-1.38281 1.61328h-.13361c-.05365 0-.112.01715-.12134.08887a.10477.10477 0 00.04175.0946 1.69877 1.69877 0 01.73987 1.425 1.51015 1.51015 0 01-1.38538 1.61151H46.7583c0 .00159-.32538.00214-.75946.00214-.868 0-2.16992-.00214-2.16992-.00214H41.57367c.00507-.00238-.6012-.003-.6012-.003-.48206-.15875-.84521-.5791-1.30652-.77905a3.67026 3.67026 0 00-1.03546-.08289c-.47937 0-1.0611.01678-1.63049.02606zM82.58782 10.19658a3 3 0 10-3-3A3.00344 3.00344 0 0082.58782 10.19658zm0-4.5a1.5 1.5 0 11-1.5 1.5A1.50148 1.50148 0 0182.58782 5.69658zM35.25448 3a2 2 0 102 2A2.00229 2.00229 0 0035.25448 3zm0 3a1 1 0 111-1A1.001 1.001 0 0135.25448 6zM135.7003 3.86325a2 2 0 102 2A2.00229 2.00229 0 00135.7003 3.86325zm0 3a1 1 0 111-1A1.001 1.001 0 01135.7003 6.86325zM113.53363 16.18517a2 2 0 102 2A2.00229 2.00229 0 00113.53363 16.18517zm0 3a1 1 0 111-1A1.001 1.001 0 01113.53363 19.18517zM23.42115 44.36325a2 2 0 10-2 2A2.00229 2.00229 0 0023.42115 44.36325zm-3 0a1 1 0 111 1A1.001 1.001 0 0120.42115 44.36325z"/>
<polygon fill="#a783b2" points="58.17 19.239 59.657 17.284 58.718 16.752 57.763 18.942 57.732 18.942 56.762 16.767 55.807 17.315 57.278 19.224 57.278 19.255 54.977 18.958 54.977 20.022 57.293 19.725 57.293 19.756 55.807 21.664 56.698 22.228 57.716 20.022 57.747 20.022 58.686 22.212 59.672 21.649 58.17 19.771 58.17 19.74 60.532 20.022 60.532 18.958 58.17 19.271 58.17 19.239"/>
<polygon fill="#a783b2" points="6.563 16.482 5.707 17.581 6.22 17.905 6.806 16.634 6.824 16.634 7.365 17.896 7.933 17.572 7.068 16.49 7.068 16.472 8.428 16.634 8.428 16.022 7.068 16.202 7.068 16.184 7.924 15.058 7.383 14.752 6.834 16.013 6.815 16.013 6.257 14.76 5.707 15.076 6.554 16.175 6.554 16.193 5.229 16.022 5.229 16.634 6.563 16.463 6.563 16.482"/>
<polygon fill="#a783b2" points="141.149 42.164 141.149 41.121 138.832 41.427 138.832 41.397 140.29 39.479 139.369 38.957 138.433 41.105 138.402 41.105 137.451 38.972 136.514 39.509 137.957 41.382 137.957 41.412 135.7 41.121 135.7 42.164 137.972 41.873 137.972 41.903 136.514 43.775 137.389 44.328 138.387 42.164 138.417 42.164 139.338 44.313 140.305 43.76 138.832 41.918 138.832 41.888 141.149 42.164"/>
<polygon fill="#a783b2" points="160.773 20.151 162.03 18.497 161.236 18.047 160.429 19.899 160.402 19.899 159.581 18.059 158.773 18.523 160.018 20.138 160.018 20.165 158.071 19.913 158.071 20.813 160.031 20.562 160.031 20.588 158.773 22.203 159.528 22.68 160.389 20.813 160.415 20.813 161.209 22.666 162.043 22.19 160.773 20.601 160.773 20.575 162.771 20.813 162.771 19.913 160.773 20.178 160.773 20.151"/>
<circle cx="2" cy="149" r="2" fill="#563560"/>
<path fill="#563560" d="M11 147H8a2 2 0 000 4h3a2 2 0 000-4zM160 147h-3a2 2 0 000 4h3a2 2 0 000-4z"/>
<circle cx="166" cy="149" r="2" fill="#563560"/>
<path fill="#a783b2" d="M118.15387 155h-8.30774a2.00641 2.00641 0 000 4h8.30774a2.00641 2.00641 0 000-4zM58.15387 155H49.84613a2.00641 2.00641 0 000 4h8.30774a2.00641 2.00641 0 000-4zM104 155H64a2 2 0 000 4H79.94v2H72a2 2 0 000 4H97a2 2 0 000-4H88.06v-2H104a2 2 0 000-4z"/>
<path fill="#563560" d="M150.72,147H91.97A9.94153,9.94153,0,0,0,93.9,142.36a5.91342,5.91342,0,0,0,3.28-5.04c.37-8.83.76-11.08.91-11.64a62.08279,62.08279,0,0,1,5.66-13.72,1.996,1.996,0,0,0-3.5-1.92A66.81442,66.81442,0,0,0,94.7,123H73.3a66.81442,66.81442,0,0,0-5.55-12.96,1.996,1.996,0,0,0-3.5,1.92,62.08279,62.08279,0,0,1,5.66,13.72c.15.56.54,2.81.91,11.64a5.91342,5.91342,0,0,0,3.28,5.04A9.94153,9.94153,0,0,0,76.03,147H17.28a2.0172,2.0172,0,1,0,0,4H150.72a2.0172,2.0172,0,1,0,0-4ZM84,147a6.00053,6.00053,0,0,1-5.65-4h11.3A6.00053,6.00053,0,0,1,84,147Zm-7.17-8a1.98387,1.98387,0,0,1-2.02-1.85c-.03-.77-.06-1.47-.09-2.15l-.22-4c-.12-1.81-.24-3.08-.34-4H93.84c-.1.92-.22,2.19-.34,4l-.22,4c-.03.67-.06006,1.38-.09,2.15A1.98387,1.98387,0,0,1,91.17,139Z"/>
<polygon fill="#a783b2" points="93.5 131 93.28 135 74.72 135 74.5 131 93.5 131"/>
</svg>
