<svg xmlns="http://www.w3.org/2000/svg" viewBox="0 0 64 64">
    <path fill="#563560"
        d="M 56.3 8.8 L 34.1 1.3 c -1.4 -0.5 -2.9 -0.5 -4.3 0 L 7.7 8.8 c -3.2 1.1 -5.1 4.3 -4.4 7.6 l 6.6 33.9 c 0.4 2.1 1.8 3.9 3.7 4.8 l 15.6 7.3 c 0.9 0.4 1.9 0.6 2.8 0.6 s 1.9 -0.2 2.8 -0.6 l 15.6 -7.3 c 1.9 -0.9 3.3 -2.7 3.7 -4.8 l 6.6 -33.9 c 0.6 -3.3 -1.3 -6.5 -4.4 -7.6 Z" />
    <path fill="#f3e7fa"
        d="M 58.7 16 l -6.6 33.9 c -0.3 1.4 -1.2 2.7 -2.6 3.3 l -15.6 7.3 c -1.2 0.6 -2.7 0.6 -3.9 0 l -15.6 -7.3 c -1.3 -0.6 -2.3 -1.9 -2.6 -3.3 L 5.3 16 c -0.4 -2.3 0.9 -4.5 3.1 -5.2 L 30.5 3.3 c 0.5 -0.2 1 -0.2 1.5 -0.2 s 1 0.1 1.5 0.2 l 22.2 7.5 c 2.2 0.7 3.5 3 3.1 5.2 Z" />
    <path fill="#563560"
        d="M 34.3 12.2 c -0.3 -0.7 -0.9 -1.2 -1.7 -1.2 c -0.8 0 -1.4 0.5 -1.7 1.2 l -11.7 32.9 c -0.3 0.9 -0.3 1.9 0.1 2.7 c 0.4 0.9 1.1 1.5 2 1.8 c 0.9 0.3 1.9 0.3 2.7 -0.1 c 0.9 -0.4 1.5 -1.1 1.8 -2 l 3.2 -9 h 7.7 l 3.5 9.1 c 0.3 0.9 1 1.6 1.9 2 c 0.5 0.2 1 0.3 1.4 0.3 c 0.4 0 0.9 -0.1 1.3 -0.2 h 0 c 0.9 -0.3 1.6 -1 2 -1.9 c 0.4 -0.9 0.4 -1.8 0.1 -2.7 L 34.3 12.2 Z" />
    <path fill="#ffffff"
        d="M 44.9 47 c -0.2 0.4 -0.5 0.6 -0.8 0.8 c -0.4 0.1 -0.8 0.1 -1.1 0 c -0.4 -0.2 -0.6 -0.5 -0.8 -0.8 l -3.7 -9.8 c -0.2 -0.4 -0.5 -0.7 -1 -0.7 h -9.1 c -0.4 0 -0.8 0.3 -1 0.7 l -3.4 9.7 c -0.1 0.4 -0.4 0.7 -0.8 0.8 c -0.4 0.2 -0.8 0.2 -1.1 0.1 c -0.4 -0.1 -0.7 -0.4 -0.8 -0.8 s -0.2 -0.8 -0.1 -1.1 L 32.6 13.5 l 12.3 32.3 c 0.1 0.4 0.1 0.8 0 1.1 Z" />
    <path fill="#563560"
        d="M 33.7 24.7 c -0.2 -0.4 -0.5 -0.7 -1 -0.7 h 0 c -0.4 0 -0.8 0.3 -1 0.7 l -2.6 7.4 c -0.1 0.3 -0.1 0.7 0.1 0.9 c 0.2 0.3 0.5 0.4 0.8 0.4 h 5.4 c 0.3 0 0.7 -0.2 0.8 -0.4 c 0.2 -0.3 0.2 -0.6 0.1 -1 l -2.8 -7.4 Z" />
    <polygon fill="#f3e7fa" points="31.6,31.4 32.8,28.1 34.1,31.4 31.6,31.4" />
</svg>