
<svg xmlns="http://www.w3.org/2000/svg" data-name="Layer 1" viewBox="0 0 168 168" width="256" height="256">
<path fill="#000" d="M61.586 33.336a2 2 0 0 0 0 2.828l11.217 11.217a14.093 14.093 0 0 1 2.829-2.828L64.415 33.336a2 2 0 0 0-2.829 0zm37 6-5.648 5.648a14.113 14.113 0 0 1 2.685 2.971l5.791-5.79a2 2 0 0 0-2.828-2.829zM28.001 66.125v67.25a5.401 5.401 0 0 0 5.415 5.375h84.17a5.4 5.4 0 0 0 5.414-5.375v-67.25a5.4 5.4 0 0 0-5.413-5.375h-84.17A5.401 5.401 0 0 0 28 66.125zm4 0a1.397 1.397 0 0 1 1.415-1.375h84.17A1.396 1.396 0 0 1 119 66.125v67.25a1.396 1.396 0 0 1-1.413 1.375h-84.17A1.397 1.397 0 0 1 32 133.375z" class="color2d4356 svgShape"></path>
<path fill="#000" d="M133 84.75a6 6 0 1 0-6-6 6.007 6.007 0 0 0 6 6zm0-8a2 2 0 1 1-2 2 2.002 2.002 0 0 1 2-2zm0 50a6 6 0 1 0-6-6 6.007 6.007 0 0 0 6 6zm0-8a2 2 0 1 1-2 2 2.002 2.002 0 0 1 2-2zM68.316 13.25a3 3 0 1 0-3-3 3.003 3.003 0 0 0 3 3zm0-4.5a1.5 1.5 0 1 1-1.5 1.5 1.501 1.501 0 0 1 1.5-1.5zm93.434 50a2 2 0 1 0 2 2 2.002 2.002 0 0 0-2-2zm0 3a1 1 0 1 1 1-1 1.001 1.001 0 0 1-1 1zm-65.445-36a2 2 0 1 0 2 2 2.002 2.002 0 0 0-2-2zm0 3a1 1 0 1 1 1-1 1.001 1.001 0 0 1-1 1zm62-19a2 2 0 1 0 2 2 2.002 2.002 0 0 0-2-2zm0 3a1 1 0 1 1 1-1 1.001 1.001 0 0 1-1 1zM13.25 17.587a2 2 0 1 0-2 2 2.002 2.002 0 0 0 2-2zm-3 0a1 1 0 1 1 1 1 1.001 1.001 0 0 1-1-1z" class="color2d4356 svgShape"></path>
<path fill="#000" d="m8.111 58.499 1.486-1.955-.939-.532-.954 2.19h-.032l-.969-2.175-.956.548 1.472 1.909v.031l-2.301-.297v1.064l2.316-.297v.031l-1.487 1.908.892.564 1.018-2.206h.031l.939 2.19.986-.563-1.502-1.878V59l2.362.282v-1.064l-2.362.313v-.032zM41.606 30.903l-.856 1.099.514.325.586-1.271h.017l.541 1.262.568-.325-.865-1.081v-.018l1.36.162v-.612l-1.36.18v-.018l.856-1.126-.541-.307-.549 1.261h-.018l-.559-1.252-.55.315.847 1.1v.018l-1.325-.171v.612l1.334-.171v.018zM151.215 36.771v-1.043l-2.316.307v-.031l1.458-1.918-.921-.522-.936 2.148h-.031l-.951-2.133-.937.538 1.443 1.872v.031l-2.257-.292v1.043l2.272-.291v.031l-1.458 1.872.874.553.999-2.165h.03l.921 2.149.967-.552-1.473-1.842v-.031l2.316.276zM121.448 16.855l1.258-1.655-.795-.45-.807 1.853h-.027l-.82-1.84-.809.463 1.245 1.616v.026l-1.947-.252v.901l1.96-.252v.027l-1.258 1.614.755.477.861-1.866h.026l.794 1.853.834-.477-1.27-1.588v-.027l1.998.239v-.901l-1.998.265v-.026z" class="color0bceb2 svgShape"></path>
<circle cx="2" cy="144.75" r="2" fill="#000" class="color2d4356 svgShape"></circle>
<path fill="#000" d="M11 142.75H8a2 2 0 0 0 0 4h3a2 2 0 0 0 0-4zm149 0h-3a2 2 0 0 0 0 4h3a2 2 0 0 0 0-4z" class="color2d4356 svgShape"></path>
<circle cx="166" cy="144.75" r="2" fill="#000" class="color2d4356 svgShape"></circle>
<path fill="#000" d="M118.154 150.75h-8.308a2.006 2.006 0 0 0 0 4h8.308a2.006 2.006 0 0 0 0-4zm-60 0h-8.308a2.006 2.006 0 0 0 0 4h8.308a2.006 2.006 0 0 0 0-4zm45.846 0H64a2 2 0 0 0 0 4h15.94v2H72a2 2 0 0 0 0 4h25a2 2 0 0 0 0-4h-8.94v-2H104a2 2 0 0 0 0-4z" class="color0bceb2 svgShape"></path>
<path fill="#000" d="M150.721 142.75h-5.013a10.956 10.956 0 0 0 2.29-6.497V63.295a10.151 10.151 0 0 0-2.926-7.38 10.553 10.553 0 0 0-7.504-3.165H93.533a9.99 9.99 0 0 0-19.065 0H30.43a10.552 10.552 0 0 0-7.504 3.165 10.122 10.122 0 0 0-2.924 7.334V136.3a10.203 10.203 0 0 0 2.65 6.45H17.28a2.017 2.017 0 1 0 0 4H150.72a2.017 2.017 0 1 0 0-4Zm-66.72-93a5.99 5.99 0 0 1 5.185 3H78.815a5.99 5.99 0 0 1 5.185-3Zm-52.727 93c-3.724 0-7.19-3.12-7.271-6.497v-73.05a6.179 6.179 0 0 1 1.785-4.493 6.53 6.53 0 0 1 4.643-1.96h107.137a6.53 6.53 0 0 1 4.643 1.96 6.21 6.21 0 0 1 1.787 4.54v72.955a6.532 6.532 0 0 1-6.43 6.545Z" class="color2d4356 svgShape"></path>
</svg>
