<svg xmlns="http://www.w3.org/2000/svg" fill="none" viewBox="0 0 40 40">
    <path fill="#563560" fill-rule="evenodd"
        d="M24 16C24 15.4477 24.4477 15 25 15H32C34.2091 15 36 16.7909 36 19V23C36 25.2091 34.2091 27 32 27H26V32C26 34.2091 24.2091 36 22 36H18C15.7909 36 14 34.2091 14 32V23C14 20.7909 15.7909 19 18 19H22C23.1046 19 24 18.1046 24 17V16ZM24 27H21C20.4477 27 20 26.5523 20 26C20 25.4477 20.4477 25 21 25H32C33.1046 25 34 24.1046 34 23V19C34 17.8954 33.1046 17 32 17H26C26 19.2091 24.2091 21 22 21H18C16.8954 21 16 21.8954 16 23V32C16 33.1046 16.8954 34 18 34H22C23.1046 34 24 33.1046 24 32V27Z"
        clip-rule="evenodd" />
    <path fill="#563560"
        d="M23 30C23 30.5523 22.5523 31 22 31C21.4477 31 21 30.5523 21 30C21 29.4477 21.4477 29 22 29C22.5523 29 23 29.4477 23 30Z" />
    <path fill="#a783b2" fill-rule="evenodd"
        d="M14 8C14 5.79086 15.7909 4 18 4H22C24.2091 4 26 5.79086 26 8V17C26 19.2091 24.2091 21 22 21H18C16.8954 21 16 21.8954 16 23V24C16 24.5523 15.5523 25 15 25H8C5.79086 25 4 23.2091 4 21V17C4 14.7909 5.79086 13 8 13H14V8ZM16 13H19C19.5523 13 20 13.4477 20 14C20 14.5523 19.5523 15 19 15H8C6.89543 15 6 15.8954 6 17V21C6 22.1046 6.89543 23 8 23H14C14 20.7909 15.7909 19 18 19H22C23.1046 19 24 18.1046 24 17V8C24 6.89543 23.1046 6 22 6H18C16.8954 6 16 6.89543 16 8V13Z"
        clip-rule="evenodd" />
    <path fill="#a783b2"
        d="M19 10C19 10.5523 18.5523 11 18 11C17.4477 11 17 10.5523 17 10C17 9.44772 17.4477 9 18 9C18.5523 9 19 9.44772 19 10Z" />
</svg>