<svg xmlns="http://www.w3.org/2000/svg" fill="none" viewBox="0 0 40 40">
    <path fill="#563560" fill-rule="evenodd"
        d="M5.23224 6.35925C5.42224 6.1316 5.70347 6 5.99999 6H34C34.2965 6 34.5777 6.1316 34.7677 6.35925C34.9577 6.58691 35.0369 6.88715 34.9839 7.17889L30.9839 29.1789C30.9223 29.5175 30.6909 29.8007 30.3714 29.9285L20.3714 33.9285C20.133 34.0238 19.867 34.0238 19.6286 33.9285L9.6286 29.9285C9.30905 29.8007 9.07768 29.5175 9.01612 29.1789L5.01612 7.17889C4.96308 6.88714 5.04224 6.58691 5.23224 6.35925ZM7.19821 8L10.8849 28.2769L20 31.923L29.1151 28.2769L32.8018 8H7.19821ZM15 12C15 11.4477 15.4477 11 16 11H18C18.5523 11 19 11.4477 19 12V27C19 27.3161 18.8505 27.6136 18.5969 27.8023C18.3433 27.991 18.0154 28.0487 17.7126 27.9578L12.7126 26.4578C12.3585 26.3516 12.0919 26.0586 12.0194 25.6961L11.5194 23.1961C11.4111 22.6546 11.7623 22.1277 12.3039 22.0194C12.8454 21.9111 13.3723 22.2623 13.4806 22.8039L13.8628 24.7148L17 25.656V13H16C15.4477 13 15 12.5523 15 12ZM21 12C21 11.4477 21.4477 11 22 11H27C27.5523 11 28 11.4477 28 12C28 12.5523 27.5523 13 27 13H23V17.895L26.9005 17.505C27.2063 17.4744 27.5092 17.5861 27.7219 17.808C27.9346 18.0298 28.0334 18.3372 27.9899 18.6414L26.9899 25.6414C26.9383 26.0032 26.6933 26.308 26.3511 26.4363L22.3511 27.9363C21.834 28.1302 21.2576 27.8682 21.0637 27.3511C20.8697 26.834 21.1317 26.2576 21.6489 26.0637L25.0939 24.7718L25.8295 19.622L22.0995 19.995C21.8184 20.0231 21.5385 19.931 21.329 19.7415C21.1195 19.5519 21 19.2825 21 19V12Z"
        clip-rule="evenodd" />
</svg>