<svg xmlns="http://www.w3.org/2000/svg" enable-background="new 0 0 68 68" viewBox="0 0 68 68">
	<path fill="#fff"
		d="M29.14384,17.57504L28.5897,19.7405c-0.1432,0.5596-0.71293,0.89716-1.27253,0.75396l-6.51983-1.6684
				L16.17273,36.8983c-0.7539,2.94613-4.33713,4.5995-8.01509,3.65833c-3.65768-0.93599-6.02656-4.11248-5.27266-7.05861
				c0.75897-2.96592,4.35738-4.5942,8.01505-3.65821c0.86989,0.2226,1.66525,0.57362,2.35567,1.0031l3.90371-15.25505
				c0.2864-1.11919,1.42586-1.79431,2.54505-1.50791l8.68541,2.22256C28.94948,16.44571,29.28703,17.01544,29.14384,17.57504z" />
	<path fill="#F3E7FA"
		d="M29.14789,17.57611l-0.56006,2.16003c-0.13989,0.56-0.70996,0.89996-1.27002,0.76001l-6.52002-1.67004
				l-4.62988,18.07001c-0.75,2.95001-4.33008,4.60004-8.01001,3.66003c-1.72998-0.44-3.16016-1.38-4.11011-2.56
				c0.57007,0.32001,1.19995,0.57001,1.87012,0.73999c3.67993,0.94,7.27002-0.71002,8.02002-3.66003l4.61987-18.07001
				l6.52002,1.67004c0.56006,0.14001,1.13013-0.20001,1.28003-0.76001l0.51001-2l1.52002,0.39001
				C28.94794,16.4461,29.28779,17.01611,29.14789,17.57611z" />
	<path fill="#fff"
		d="M60.1146,3.26317l1.13939,1.92304c0.29444,0.49695,0.13027,1.1385-0.36668,1.43294l-5.78996,3.43048
				l9.50891,16.04911c1.55014,2.61632,0.18553,6.31916-3.08069,8.25435c-3.24821,1.92453-7.16939,1.35346-8.71953-1.26286
				c-1.56055-2.63389-0.16745-6.32972,3.08076-8.25424c0.7725-0.4577,1.58312-0.7719,2.375-0.95642l-8.02661-13.54729
				c-0.58887-0.9939-0.26054-2.277,0.73337-2.86588l7.7131-4.56992C59.17862,2.60204,59.82016,2.76621,60.1146,3.26317z" />
	<path fill="#F3E7FA"
		d="M61.52802,34.35614c-1.78027,1.04999-3.75,1.34998-5.43018,0.98999
				c0.86011-0.17999,1.71997-0.5,2.54004-0.98999c3.26001-1.94,4.62988-5.64001,3.08008-8.26001l-9.51001-16.04999l5.78979-3.42999
				c0.5-0.29004,0.66016-0.92999,0.37012-1.42999l-0.92993-1.56l1.23999-0.73004c0.5-0.28998,1.13989-0.13,1.43994,0.37
				L61.258,5.18615c0.28979,0.5,0.12988,1.13995-0.37012,1.42999l-5.79004,3.42999l9.51001,16.04999
				C66.15791,28.71612,64.78779,32.41613,61.52802,34.35614z" />
	<g>
		<path fill="#a783b2"
			d="M45.14525,30.93629c1.13237-0.22884,2.23584,0.50362,2.46468,1.63599l3.93576,19.47562
				c0.60238,2.9808-1.92928,6.01199-5.63049,6.75995c-3.72075,0.75191-7.21077-1.06237-7.81315-4.04317
				c-0.60643-3.00082,1.90521-6.02796,5.62596-6.77988c0.50014-0.10107,1.00837-0.16209,1.50513-0.17924l-2.21952-10.98301
				l-15.90477,3.21414l3.69517,18.28506c0.60238,2.9808-1.90925,6.00794-5.63,6.75985
				c-3.70122,0.74797-7.21126-1.06227-7.81364-4.04307c-0.60643-3.00083,1.92523-6.03201,5.62645-6.77998
				c0.50014-0.10107,1.00837-0.16209,1.50464-0.17914l-3.26868-16.17466c-0.22884-1.13237,0.50362-2.23584,1.63599-2.46468
				L45.14525,30.93629z" />
		<path fill="#a783b2"
			d="M39.57782 37.51611l-12.46997 2.52002 3.69995 18.28998c.6001 2.98004-1.90991 6-5.62988 6.76001-1.2002.23999-2.38013.21002-3.4502-.02997 3.65015-.80005 6.09009-3.79004 5.5-6.73005l-3.68994-18.28998 15.90014-3.21002L39.57782 37.51611zM45.91791 58.80615c-1.19995.23999-2.38989.21997-3.44995-.03003 3.62988-.78998 6.09985-3.78998 5.5-6.72998l-3.93018-19.47003c-.10986-.52997-.3999-.95996-.79004-1.25995l1.90015-.38c1.13013-.23004 2.22998.5 2.45996 1.63995l3.93994 19.47003C52.14789 55.02612 49.61786 58.05615 45.91791 58.80615z" />
	</g>
	<g>
		<path fill="#563560"
			d="M21.33767 19.73881l5.79395 1.48242c.95435.24561 1.9375-.32825 2.18457-1.29492l.5542-2.16504c0 0 0 0 0-.00049.24512-.9585-.33545-1.93896-1.29443-2.18506l-8.68555-2.22217c-1.52783-.38965-3.06958.53107-3.45752 2.04834l-3.66455 14.3208c-.53711-.25635-1.09961-.46045-1.68213-.60938-3.81104-.97394-8.01147.61676-8.92773 4.19873-.8584 3.35547 1.74902 6.93115 5.81299 7.97119 3.854.98584 8.02563-.67328 8.92773-4.19873L21.33767 19.73881zM15.44607 36.71244c-.65381 2.55371-3.83936 3.95068-7.10254 3.11768-3.2627-.83496-5.38525-3.59229-4.73193-6.146.55811-2.18237 2.87842-3.35986 5.2085-3.35986.62354 0 1.26074.08008 1.89404.24219.76318.19531 1.48486.50244 2.14551.91309.20313.12646.45361.14795.67578.05908.22168-.08887.3877-.27832.44678-.50977l3.90381-15.25537c.18066-.7052.90161-1.15436 1.63232-.9668l8.68506 2.22217c.1582.04053.25439.20215.21387.36035l-.5542 2.16553c-.04053.15936-.20361.25372-.35986.21338l-6.52002-1.66846c-.40356-.1037-.81055.14221-.9126.54053L15.44607 36.71244zM65.25124 25.71635l-9.12646-15.40381L61.2698 7.2642c.85205-.50488 1.13428-1.6084.62939-2.46045L60.75955 2.8809c-.50122-.84717-1.59937-1.13892-2.46045-.62939l-7.71289 4.56982c-1.35132.80054-1.79663 2.54315-.99609 3.89307l7.53516 12.71729c-.56055.19873-1.10254.45215-1.62061.75879-3.36377 1.99316-5.23804 6.08539-3.34375 9.28222 1.83057 3.08887 6.27051 3.58539 9.74707 1.52539C65.28249 32.99888 67.13796 28.90025 65.25124 25.71635zM61.14334 33.70756c-2.89746 1.71631-6.34814 1.26807-7.69189-.99951-1.19824-2.02154-.37378-5.3363 2.81787-7.22656.67822-.40186 1.40625-.69531 2.16309-.87158.23242-.0542.42578-.21631.51953-.43604s.07715-.47119-.04492-.67676L50.88015 9.94975c-.37646-.63538-.1687-1.45837.4707-1.83838l7.71289-4.56934c.13965-.08307.32178-.03784.40527.10352.00049 0 .00049 0 .00049 0l1.13916 1.92285c.0835.14014.03662.32227-.10352.40576l-5.79004 3.43066c-.35645.21094-.47412.6709-.2627 1.02734L63.96121 26.481C65.15163 28.49186 64.34451 31.81138 61.14334 33.70756zM48.34549 32.42387c-.31055-1.53613-1.81055-2.53271-3.34863-2.22314l-22.28662 4.5039c-1.53979.31219-2.53369 1.80981-2.22266 3.34863l3.10156 15.34717c-.25.03125-.50049.07227-.75098.12256-4.11133.83105-6.89892 4.26904-6.21338 7.66406.58252 2.87988 3.49463 4.81299 6.88379 4.81299.59326 0 1.20166-.05957 1.81396-.18311 3.82275-.77313 6.95313-3.99976 6.2168-7.64355l-3.54688-17.55029 14.43457-2.91699 1.90381 9.42041c-.25.03174-.50098.07275-.75146.12305-4.11182.83105-6.89893 4.26904-6.21289 7.66357.68408 3.38428 4.5874 5.4585 8.69727 4.62988 3.81885-.77142 6.95093-4.01117 6.21729-7.64355L48.34549 32.42387zM45.76687 58.0723c-3.30225.66992-6.41016-.8833-6.92969-3.45605-.52246-2.58398 1.73828-5.229 5.03906-5.896.46436-.09375.92969-.14941 1.38281-.16504.22021-.00732.42627-.11182.5625-.28467.13672-.17285.19043-.39746.14697-.61328l-2.21973-10.9834c-.08081-.39917-.46777-.6676-.88379-.58691l-15.90479 3.21436c-.40625.08203-.66895.47803-.58691.88379l3.69531 18.28516c.45947 2.27014-1.37158 5.13422-5.04297 5.87598-3.30078.6665-6.41064-.88281-6.93018-3.45605-.52197-2.58447 1.73877-5.22949 5.03955-5.89648.46484-.09424.92969-.14941 1.38135-.16455.2207-.00732.42676-.11133.56348-.28418.13672-.17334.19043-.39746.14697-.61377l-3.26855-16.1748c-.14795-.73035.32544-1.43518 1.04883-1.58105l22.28662-4.5039c.73047-.14502 1.43457.32471 1.58105 1.04931l3.93555 19.47559C51.27127 54.47459 49.40896 57.3375 45.76687 58.0723zM60.34109 44.10892h-1.43262v-1.43311c0-.41406-.33594-.75-.75-.75s-.75.33594-.75.75v1.43311h-1.43311c-.41406 0-.75.33594-.75.75s.33594.75.75.75h1.43311v1.43311c0 .41406.33594.75.75.75s.75-.33594.75-.75v-1.43311h1.43262c.41406 0 .75-.33594.75-.75S60.75515 44.10892 60.34109 44.10892zM5.92556 10.2725h1.43311v1.43311c0 .41406.33594.75.75.75s.75-.33594.75-.75V10.2725h1.43311c.41406 0 .75-.33594.75-.75s-.33594-.75-.75-.75H8.85867V7.3394c0-.41406-.33594-.75-.75-.75s-.75.33594-.75.75V8.7725H5.92556c-.41406 0-.75.33594-.75.75S5.5115 10.2725 5.92556 10.2725zM39.88162 22.65678c1.51855 0 2.75391-1.23193 2.75391-2.74609 0-1.51855-1.23535-2.75391-2.75391-2.75391-1.51416 0-2.74609 1.23535-2.74609 2.75391C37.13552 21.42484 38.36746 22.65678 39.88162 22.65678zM39.88162 18.65678c.69141 0 1.25391.5625 1.25391 1.25391 0 .68701-.5625 1.24609-1.25391 1.24609-.68701 0-1.24609-.55908-1.24609-1.24609C38.63552 19.21928 39.19461 18.65678 39.88162 18.65678zM10.10379 48.44096c-1.78955 0-3.24512 1.46045-3.24512 3.25537 0 1.78906 1.45557 3.24463 3.24512 3.24463 1.79492 0 3.25488-1.45557 3.25488-3.24463C13.35867 49.90141 11.89871 48.44096 10.10379 48.44096zM10.10379 53.44096c-.9624 0-1.74512-.78271-1.74512-1.74463 0-.96777.78271-1.75537 1.74512-1.75537.96777 0 1.75488.7876 1.75488 1.75537C11.85867 52.65824 11.07156 53.44096 10.10379 53.44096z" />
	</g>
</svg>