<svg xmlns="http://www.w3.org/2000/svg" viewBox="0 0 168 168">
<path fill="#a783b2" d="M126,128a14.02,14.02,0,0,0,10.42578-4.665,2,2,0,1,0-2.97852-2.66992A10.01726,10.01726,0,0,1,126,124a2,2,0,0,0,0,4Z"/>
<path fill="#563560" d="M146,112H110.21735l13.45789-16.46912a5.99506,5.99506,0,0,0,4.6496,0L138.514,108h5.166L131.2865,92.83337A5.98823,5.98823,0,0,0,128,84.35v-8.3916c.36273.03235.722.05084,1.07617.05084,5.24121-.00049,9.49414-3.40918,11.5127-6.04834a2.00009,2.00009,0,1,0-3.17773-2.42969c-.25977.33887-6.44824,8.24609-14.457,2.14355a16.25457,16.25457,0,0,0-11.18591-3.63556A9.76182,9.76182,0,0,1,112,68.09521v1.93042a12.4252,12.4252,0,0,1,8.53027,2.83081A16.68285,16.68285,0,0,0,124,74.91638V84.35a5.98823,5.98823,0,0,0-3.28656,8.48322l-16.26227,19.90112A2.05739,2.05739,0,0,0,104,114a22,22,0,0,0,44,0A2.0001,2.0001,0,0,0,146,112ZM126,88a2,2,0,1,1-2,2A2.00229,2.00229,0,0,1,126,88Zm0,44a18.02667,18.02667,0,0,1-17.88965-16h35.7793A18.02667,18.02667,0,0,1,126,132Z"/>
<path fill="#a783b2" d="M108,71.90472V68.09521a5.91557,5.91557,0,0,0-4.2749-5.676q-.19437-.50427-.41473-.999a5.924,5.924,0,0,0-.99286-7.04388L99.62372,51.6825a5.91305,5.91305,0,0,0-7.03992-.99109q-.49631-.22128-1.00305-.41656A5.91546,5.91546,0,0,0,85.90479,46H82.09521a5.91546,5.91546,0,0,0-5.676,4.27484q-.50656.19528-1.00336.41669a5.91227,5.91227,0,0,0-7.03967.991l-2.69366,2.69373a5.913,5.913,0,0,0-.99109,7.03986q-.22128.49631-.41656,1.00305A5.91557,5.91557,0,0,0,60,68.09521v3.80951a5.91552,5.91552,0,0,0,4.2749,5.676q.19519.50656.41663,1.0033a5.91235,5.91235,0,0,0,.991,7.03949l2.69379,2.69385a5.91287,5.91287,0,0,0,7.03986.99115q.49631.22128,1.00311.41656A5.91544,5.91544,0,0,0,82.09521,94h3.80957a5.91551,5.91551,0,0,0,5.676-4.2749q.50665-.19528,1.00342-.41669a5.91209,5.91209,0,0,0,7.03955-.991l2.69373-2.69373a5.91313,5.91313,0,0,0,.99115-7.03986q.2211-.49612.4165-1.00305A5.91552,5.91552,0,0,0,108,71.90472Zm-5.90479,1.90479a1.8131,1.8131,0,0,0-1.73358,1.27222,17.00387,17.00387,0,0,1-1.199,2.887,1.81409,1.81409,0,0,0,.32379,2.13025l.0025.00256a1.90473,1.90473,0,0,1,.00006,2.69373L96.79529,85.489a1.90467,1.90467,0,0,1-2.69373,0l-.00256-.0025a1.81324,1.81324,0,0,0-2.13019-.32379,16.99992,16.99992,0,0,1-2.88708,1.19891,1.81323,1.81323,0,0,0-1.27222,1.73364A1.90475,1.90475,0,0,1,85.90479,90H82.09521a1.90475,1.90475,0,0,1-1.90472-1.90479,1.81323,1.81323,0,0,0-1.27222-1.73364,16.99992,16.99992,0,0,1-2.88708-1.19891,1.81324,1.81324,0,0,0-2.13019.32379l-.00256.0025a1.90467,1.90467,0,0,1-2.69373,0L68.511,82.79523A1.90473,1.90473,0,0,1,68.511,80.1015l.0025-.00256a1.81409,1.81409,0,0,0,.32379-2.13025,17.00387,17.00387,0,0,1-1.199-2.887,1.8131,1.8131,0,0,0-1.73358-1.27222A1.90476,1.90476,0,0,1,64,71.90472V68.09521a1.90475,1.90475,0,0,1,1.90479-1.90472,1.8131,1.8131,0,0,0,1.73358-1.27222,17.01009,17.01009,0,0,1,1.199-2.88708,1.81391,1.81391,0,0,0-.32379-2.13019l-.0025-.00256a1.90473,1.90473,0,0,1-.00006-2.69373l2.69373-2.69379a1.90482,1.90482,0,0,1,2.69373,0l.00256.00262a1.81334,1.81334,0,0,0,2.13025.32379,16.99953,16.99953,0,0,1,2.887-1.199,1.81323,1.81323,0,0,0,1.27222-1.73364A1.90474,1.90474,0,0,1,82.09521,50h3.80957a1.90474,1.90474,0,0,1,1.90472,1.90472,1.81323,1.81323,0,0,0,1.27222,1.73364,16.99953,16.99953,0,0,1,2.887,1.199,1.81334,1.81334,0,0,0,2.13025-.32379l.00256-.00262a1.90482,1.90482,0,0,1,2.69373,0L99.489,57.20471a1.90473,1.90473,0,0,1-.00006,2.69373l-.0025.00256a1.81391,1.81391,0,0,0-.32379,2.13019,17.01009,17.01009,0,0,1,1.199,2.88708,1.8131,1.8131,0,0,0,1.73358,1.27222A1.90475,1.90475,0,0,1,104,68.09521v3.80951A1.90476,1.90476,0,0,1,102.09521,73.80951Z"/>
<path fill="#563560" d="M84,59.66663a10,10,0,1,0,10,10A10.01134,10.01134,0,0,0,84,59.66663Zm0,16a6,6,0,1,1,6-6A6,6,0,0,1,84,75.66663Z"/>
<path fill="#a783b2" d="M42,128a2,2,0,0,0,0-4,10.01726,10.01726,0,0,1-7.44727-3.335,2,2,0,1,0-2.97852,2.66992A14.02,14.02,0,0,0,42,128Z"/>
<path fill="#563560" d="M42 136a22.02489 22.02489 0 0022-22 2.05739 2.05739 0 00-.45117-1.26562L47.28656 92.83325A5.98823 5.98823 0 0044 84.35V74.91779a16.6845 16.6845 0 003.46973-2.06134A12.42979 12.42979 0 0156 70.02631V68.09521a9.76131 9.76131 0 01.23193-2.05634 16.25483 16.25483 0 00-11.186 3.63593c-7.81348 5.95508-13.80078-1.29834-14.46094-2.14844a2 2 0 00-3.17383 2.43457C29.56592 72.778 34.26892 76.46716 40 75.95624V84.35a5.98823 5.98823 0 00-3.2865 8.48334L24.31995 108h5.166L39.67517 95.53088a5.99506 5.99506 0 004.6496 0L57.78265 112H22a2.0001 2.0001 0 00-2 2A22.02489 22.02489 0 0042 136zm0-44a2 2 0 112-2A2.00229 2.00229 0 0142 92zm17.88965 24a18.00124 18.00124 0 01-35.7793 0zM38.11042 35.94658a3 3 0 10-3-3A3.00344 3.00344 0 0038.11042 35.94658zm0-4.5a1.5 1.5 0 11-1.5 1.5A1.50148 1.50148 0 0138.11042 31.44658zM159.11042 51.61021a2 2 0 102 2A2.00229 2.00229 0 00159.11042 51.61021zm0 3a1 1 0 111-1A1.001 1.001 0 01159.11042 54.61021zM8.88958 18.61021a2 2 0 102 2A2.00229 2.00229 0 008.88958 18.61021zm0 3a1 1 0 111-1A1.001 1.001 0 018.88958 21.61021zM116.55342 10a2 2 0 102 2A2.00229 2.00229 0 00116.55342 10zm0 3a1 1 0 111-1A1.001 1.001 0 01116.55342 13zM87.88958 32.61021a2 2 0 10-2 2A2.00229 2.00229 0 0087.88958 32.61021zm-3 0a1 1 0 111 1A1.001 1.001 0 0184.88958 32.61021z"/>
<polygon fill="#a783b2" points="16.303 54.621 17.79 52.666 16.851 52.134 15.897 54.324 15.865 54.324 14.895 52.149 13.94 52.697 15.411 54.606 15.411 54.637 13.11 54.34 13.11 55.404 15.426 55.107 15.426 55.138 13.94 57.046 14.831 57.61 15.849 55.404 15.88 55.404 16.819 57.594 17.805 57.031 16.303 55.153 16.303 55.122 18.665 55.404 18.665 54.34 16.303 54.653 16.303 54.621"/>
<polygon fill="#a783b2" points="62.781 15.677 61.925 16.776 62.439 17.1 63.025 15.83 63.043 15.83 63.583 17.091 64.151 16.767 63.286 15.686 63.286 15.668 64.646 15.83 64.646 15.217 63.286 15.397 63.286 15.379 64.142 14.253 63.602 13.947 63.052 15.208 63.034 15.208 62.476 13.956 61.925 14.271 62.773 15.37 62.773 15.388 61.448 15.217 61.448 15.83 62.781 15.659 62.781 15.677"/>
<polygon fill="#a783b2" points="122.614 38.638 122.614 37.594 120.297 37.901 120.297 37.871 121.755 35.952 120.834 35.431 119.898 37.579 119.867 37.579 118.916 35.446 117.979 35.983 119.422 37.856 119.422 37.886 117.165 37.594 117.165 38.638 119.437 38.347 119.437 38.377 117.979 40.249 118.854 40.802 119.852 38.638 119.882 38.638 120.803 40.787 121.77 40.234 120.297 38.392 120.297 38.362 122.614 38.638"/>
<polygon fill="#a783b2" points="151.333 19.196 152.591 17.541 151.796 17.091 150.989 18.944 150.962 18.944 150.142 17.104 149.333 17.568 150.578 19.183 150.578 19.21 148.632 18.958 148.632 19.858 150.591 19.607 150.591 19.633 149.333 21.248 150.088 21.725 150.949 19.858 150.975 19.858 151.769 21.711 152.604 21.235 151.333 19.646 151.333 19.62 153.331 19.858 153.331 18.958 151.333 19.222 151.333 19.196"/>
<circle cx="2" cy="142" r="2" fill="#563560"/>
<path fill="#563560" d="M11 140H8a2 2 0 000 4h3a2 2 0 000-4zM160 140h-3a2 2 0 000 4h3a2 2 0 000-4z"/>
<circle cx="166" cy="142" r="2" fill="#563560"/>
<path fill="#a783b2" d="M118.15387 148h-8.30774a2.00641 2.00641 0 000 4h8.30774a2.00641 2.00641 0 000-4zM58.15387 148H49.84613a2.00641 2.00641 0 000 4h8.30774a2.00641 2.00641 0 000-4zM104 148H64a2 2 0 000 4H79.94v2H72a2 2 0 000 4H97a2 2 0 000-4H88.06v-2H104a2 2 0 000-4z"/>
<path fill="#563560" d="M150.72131,140H86V100a2,2,0,0,0-4,0v40H17.27869a2.017,2.017,0,1,0,0,4H150.72131a2.017,2.017,0,1,0,0-4Z"/>
</svg>