<svg xmlns="http://www.w3.org/2000/svg" enable-background="new 0 0 200 200" viewBox="0 0 200 200">
	<path fill="#563560" d="M71,67c-6.617,0-12,5.383-12,12s5.383,12,12,12s12-5.383,12-12S77.617,67,71,67z M71,87
		c-4.411,0-8-3.589-8-8s3.589-8,8-8s8,3.589,8,8S75.411,87,71,87z"/>
	<path fill="#563560" d="M37.172,126c1.29,1.29,3.004,2,4.828,2s3.539-0.71,4.828-2L57,115.828V149c0,1.104,0.896,2,2,2
		s2-0.896,2-2v-38c0-0.809-0.487-1.538-1.234-1.848c-0.748-0.31-1.608-0.139-2.18,0.434L44,123.171
		c-1.068,1.069-2.931,1.07-4.001-0.001L39.828,123c-0.534-0.534-0.828-1.244-0.828-2s0.294-1.466,0.828-2l18.826-18.826
		C59.411,99.417,60.418,99,61.489,99H77.51c2.14,0,4.152-0.833,5.665-2.347l14.566-14.565c0.618-0.618,1.488-0.967,2.382-0.956
		c0.795,0.01,1.511,0.307,2.014,0.835c0.524,0.55,0.813,1.272,0.813,2.033c0,0.788-0.307,1.528-0.864,2.086l-22.5,22.5
		C79.211,108.961,79,109.47,79,110v39c0,1.104,0.896,2,2,2s2-0.896,2-2v-38.172l21.914-21.914c1.313-1.312,2.036-3.058,2.036-4.914
		c0-1.793-0.681-3.495-1.917-4.792c-1.253-1.315-2.979-2.053-4.861-2.076c-1.964-0.017-3.884,0.751-5.26,2.126L80.346,93.825
		C79.589,94.583,78.581,95,77.51,95H61.489c-2.14,0-4.151,0.833-5.664,2.346L37,116.171c-1.29,1.29-2,3.004-2,4.829
		s0.71,3.539,2.001,4.83L37.172,126z"/>
	<path fill="#563560" d="M72 149v-15c0-1.104-.896-2-2-2s-2 .896-2 2v15c0 1.104.896 2 2 2S72 150.104 72 149zM133 80.805c-1.396 0-2.667.708-3.401 1.895l-40.3 65.25c-.581.939-.289 2.172.651 2.752.327.202.69.298 1.049.298.67 0 1.325-.337 1.704-.949l20.664-33.46 12.08-5.177 10.943 12.627c.784.904 1.895 1.382 3.022 1.382.705 0 1.417-.187 2.059-.572l11.868-7.121 5.961 9.651c.581.939 1.812 1.231 2.752.651.94-.581 1.231-1.813.651-2.752L136.4 82.697C135.667 81.513 134.396 80.805 133 80.805zM139.411 121.421l-10.943-12.627c-1.144-1.32-2.992-1.746-4.598-1.057l-6.849 2.935 15.978-25.871 18.237 29.526L139.411 121.421zM150.793 57.593c-.495-1.523-1.787-2.613-3.372-2.843l-7.376-1.071-3.01-6.098C136.262 46.013 134.678 45 133 45s-3.262 1.013-4.035 2.581l-3.01 6.098-7.376 1.071c-1.585.23-2.877 1.32-3.372 2.843-.495 1.523-.09 3.164 1.057 4.282l5.338 5.203-1.13 6.59c-.295 1.722.399 3.429 1.812 4.456 1.414 1.027 3.252 1.16 4.798.347L133 75.359l5.918 3.111c.673.354 1.4.528 2.125.528.941 0 1.875-.295 2.674-.875 1.413-1.027 2.108-2.734 1.812-4.456l-1.13-6.59 5.338-5.203C150.883 60.757 151.288 59.117 150.793 57.593zM146.944 59.011l-6.091 5.938c-.472.459-.687 1.121-.575 1.77l1.308 7.626c.048.282-.094.451-.221.544-.128.092-.333.175-.586.042l-6.849-3.601c-.291-.153-.611-.23-.931-.23s-.64.077-.931.23l-6.849 3.601c-.253.133-.458.05-.586-.042-.127-.093-.27-.262-.221-.544l1.308-7.626c.111-.649-.104-1.311-.575-1.77l-6.091-5.938c-.029-.028-.079-.077-.044-.182.034-.104.102-.114.143-.12l8.417-1.223c.651-.095 1.214-.504 1.506-1.094l3.475-7.041c.238-.482.658-.482.896 0 0 0 0 0 0 0l3.475 7.04c.292.59.854 1 1.506 1.094l8.417 1.223c.041.006.109.016.143.12C147.023 58.934 146.973 58.982 146.944 59.011z"/>
		
</svg>