<svg xmlns="http://www.w3.org/2000/svg" viewBox="0 0 64 64">
    <g fill="#563560" data-name="Ai">
        <path d="M34.5 41.5a1.5 1.5 0 0 1-1.5-1.26l-2-12.65a2.49 2.49 0 0 0-4.92 0L24 40.24a1.5 1.5 0 1 1-3-.48l2.06-12.65a5.49 5.49 0 0 1 10.84 0L36 39.76a1.5 1.5 0 0 1-1.24 1.72Z"/>
        <path d="M28.52 34.46h-4.87a1.5 1.5 0 0 1 0-3h4.87a1.5 1.5 0 1 1 0 3zM41.5 41.5A1.5 1.5 0 0 1 40 40V29a1.5 1.5 0 0 1 3 0v11a1.5 1.5 0 0 1-1.5 1.5zm0-15.19a1.5 1.5 0 0 1-1.06-.44 1.52 1.52 0 0 1-.44-1.06 1.5 1.5 0 0 1 1.79-1.47l.28.08.26.14a2.11 2.11 0 0 1 .23.19 1.5 1.5 0 0 1-1.06 2.56z"/>
        <path d="M42.68 54.18H21.32a1.5 1.5 0 0 1 0-3h21.36a8.51 8.51 0 0 0 8.5-8.5V21.32a8.51 8.51 0 0 0-8.5-8.5H21.32a8.51 8.51 0 0 0-8.5 8.5v21.36a8.46 8.46 0 0 0 2.29 5.81 1.5 1.5 0 0 1-2.19 2 11.47 11.47 0 0 1-3.1-7.86V21.32a11.51 11.51 0 0 1 11.5-11.5h21.36a11.51 11.51 0 0 1 11.5 11.5v21.36a11.51 11.51 0 0 1-11.5 11.5Z"/>
    </g>
</svg>