<svg xmlns="http://www.w3.org/2000/svg" viewBox="0 0 520 520" width="256" height="256">
    <path
        d="M457.5 429.565H125.244c78.374-27.849 73.612-26.027 74.508-26.693 1.114-.831-7.948 10.331 220.994-282.593 13.137-16.818 10.152-41.06-6.675-54.187L372.43 33.605c-16.617-12.963-40.872-10.327-54.15 6.67-229.894 294.3-220.209 281.793-220.593 282.57-.528 1.066-.509 1.937-.526 2.036-6.328 116.839-5.938 109.318-5.932 109.786a4.968 4.968 0 0 0 3.774 4.731c.783.194 1.114.157 1.216.166H457.5c5.514 0 10 4.485 10 10 0 5.514-4.486 10-10 10H310c-9.649 0-17.5 7.85-17.5 17.5 0 9.649 7.851 17.5 17.5 17.5h112.5a5 5 0 1 0 0-10H310c-4.136 0-7.5-3.364-7.5-7.5s3.364-7.5 7.5-7.5h147.5c11.028 0 20-8.973 20-20 0-11.028-8.972-19.999-20-19.999zm-351.532-82.43c6.352 7.709 15.344 10.854 25.126 9.866 1.261 17.621 12.235 27.882 31.159 24.966.746 8.44 5.368 15.317 13.725 18.972l-74.36 26.403 4.35-80.207zm174.415-242.104 26.198 20.127-173.395 221.383c-2.691.633-9.188 1.613-14.904-1.772-5.276-3.126-8.899-9.321-10.789-18.423l172.89-221.315zm24.625-31.522 87.232 67.015-18.47 23.642-87.232-67.015 18.47-23.642zM194.262 393.953c-9.232.203-15.858-1.759-19.242-5.72-3.128-3.662-3.003-8.457-2.782-10.467L292.974 223a5 5 0 0 0-7.884-6.151L164.596 371.305c-8.24 2.036-14.347 1.425-18.166-1.82-5.335-4.533-5.552-13.376-5.428-16.704l173.51-221.53 53.103 40.796-173.353 221.906zM326.16 46.432c9.843-12.601 27.815-14.539 40.119-4.942l41.642 32.486c12.466 9.724 14.679 27.686 4.944 40.146l-14.469 18.522-87.232-67.015 14.996-19.197zM117.5 209.564c0-11.028-8.972-20-20-20s-20 8.972-20 20 8.972 20 20 20 20-8.973 20-20zm-30 0c0-5.514 4.486-10 10-10s10 4.486 10 10-4.486 10-10 10-10-4.486-10-10z"></path>
    <path
        d="M417.5 289.565c0 16.542 13.458 30 30 30s30-13.458 30-30-13.458-30-30-30-30 13.457-30 30zm50 0c0 11.027-8.972 20-20 20s-20-8.973-20-20c0-11.028 8.972-20 20-20s20 8.971 20 20z"></path>
    <circle cx="80" cy="67.062" r="7.5"></circle>
    <circle cx="185" cy="112.062" r="7.5"></circle>
    <circle cx="440" cy="197.062" r="7.5"></circle>
    <circle cx="55" cy="352.063" r="7.5"></circle>
    <circle cx="315" cy="327.063" r="7.5"></circle>
    <circle cx="450" cy="382.063" r="7.5"></circle>
    <circle cx="165" cy="472.063" r="7.5"></circle>
</svg>