<svg xmlns="http://www.w3.org/2000/svg" viewBox="0 0 168 168">
    <path fill="#563560" d="M62.02295,71.13049C62,79.6842,62,81.00012,62,81.00012a1.99987,1.99987,0,0,0,3.04834,1.70313l12.51758-7.70312H90.43408l12.51758,7.70313A1.99977,1.99977,0,0,0,106,81.00012s0-1.31592-.02295-9.86963a14.26083,14.26083,0,0,0-6.3147-11.60767c3.17694-18.926-14.05884-35.75616-14.27905-35.967a1.999,1.999,0,0,0-2.7666,0c-.22021.21088-17.456,17.041-14.27905,35.967A14.26083,14.26083,0,0,0,62.02295,71.13049Zm39.9541.01074c.00732,2.79785.0127,4.82031.01611,6.27539l-8.02771-4.93994a30.98936,30.98936,0,0,0,4.61462-8.65442A9.89162,9.89162,0,0,1,101.97705,71.14124ZM84,27.87561a55.73911,55.73911,0,0,1,5.73364,7.4389A20.28572,20.28572,0,0,1,84,36.00012a20.28572,20.28572,0,0,1-5.73364-.68561A55.73911,55.73911,0,0,1,84,27.87561ZM76.21552,38.81c2.16443.98816,5.46259,1.19012,7.78448,1.19012s5.62006-.202,7.78448-1.19012c4.61743,8.67084,7.49176,20.70734-1.72687,32.19012H77.94238C68.72375,59.51733,71.59808,47.48083,76.21552,38.81ZM69.41412,63.80444a30.981,30.981,0,0,0,4.62042,8.67224l-8.02771,4.93994c.00342-1.45508.00879-3.478.01611-6.27539A9.88759,9.88759,0,0,1,69.41412,63.80444Z"/>
    <path fill="#a783b2" d="M84 62.00012a7 7 0 10-7-7A7.00786 7.00786 0 0084 62.00012zm0-10a3 3 0 11-3 3A3.00328 3.00328 0 0184 52.00012zM87.21094 80.10559L84 86.528l-3.21094-6.42236a2.00023 2.00023 0 00-3.57812 1.78906l5 10a2.00042 2.00042 0 003.57813 0l5-10a2.00023 2.00023 0 00-3.57812-1.78906z"/>
    <path fill="#563560" d="M47.5401 88.61456a38.13173 38.13173 0 002.47107 5.9491 7.82015 7.82015 0 00.18237 10.85529l5.38739 5.38751a7.80968 7.80968 0 0010.85565.18268c.83777.43427 1.69519.832 2.56342 1.20319v-4.39917c-.3139-.1535-.62909-.305-.93762-.46771a3.62658 3.62658 0 00-4.26044.64758l-.005.00507a3.80956 3.80956 0 01-5.38757-.00006L53.022 102.59058a3.80964 3.80964 0 010-5.38751l.00507-.005a3.62811 3.62811 0 00.64758-4.2605 34.04816 34.04816 0 01-2.145-5.0224 7.10777 7.10777 0 013.48834-.915c3.66309 0 6.665 2.71631 6.69141 6.05518a2 2 0 002.84326 1.79785 4.56345 4.56345 0 011.9375-.42822 4.30478 4.30478 0 013.772 2.07813 1.99644 1.99644 0 002.45215.87451A7.21449 7.21449 0 0175.30566 96.9C78.99707 96.9 82 99.63635 82 103.00012a2 2 0 004 0C86 99.63635 89.00293 96.9 92.69434 96.9a7.21449 7.21449 0 012.59131.47754 1.99993 1.99993 0 002.45215-.87451 4.30478 4.30478 0 013.772-2.07812 4.55428 4.55428 0 011.93652.42822 1.9998 1.9998 0 002.84424-1.79736c.02637-3.33887 3.02832-6.05566 6.69141-6.05566a7.10777 7.10777 0 013.48834.915 34.05468 34.05468 0 01-2.145 5.0224 3.62811 3.62811 0 00.64758 4.2605l.00507.005a3.80964 3.80964 0 010 5.38751l-5.38733 5.38751a3.80956 3.80956 0 01-5.38751 0l-.00507-.00507a3.62658 3.62658 0 00-4.26044-.64758c-.30853.16272-.62372.31421-.93762.46771v4.39923c.86829-.37122 1.72577-.769 2.5636-1.20337a7.8093 7.8093 0 0010.85547-.18256l5.38739-5.38751a7.8188 7.8188 0 00.18256-10.85553A38.1452 38.1452 0 00120.46 88.61456 7.81893 7.81893 0 00128 80.80963v-7.619a7.81889 7.81889 0 00-7.54-7.80493 38.13512 38.13512 0 00-2.47113-5.94916 7.82017 7.82017 0 00-.18237-10.85535l-5.38739-5.38757a7.80244 7.80244 0 00-10.377-.5907c.44214 1.34979.81793 2.73022 1.12665 4.13214a3.61969 3.61969 0 001.02917-.70789l.00519-.00513a3.80956 3.80956 0 015.38751 0l5.38733 5.38751a3.80956 3.80956 0 010 5.38745l-.00507.00507a3.62793 3.62793 0 00-.64758 4.26045 34.0169 34.0169 0 012.39795 5.77416 3.6262 3.6262 0 003.46716 2.54437h.00006A3.80955 3.80955 0 01124 73.19061v7.619a3.8095 3.8095 0 01-3.80951 3.80951h-.00006a3.63948 3.63948 0 00-1.11914.1778 11.07009 11.07009 0 00-6.08936-1.79681 10.64528 10.64528 0 00-10.33057 7.5 8.6045 8.6045 0 00-1.1416-.0752 8.421 8.421 0 00-6.28516 2.76172A11.24431 11.24431 0 0092.69434 92.9 10.891 10.891 0 0084 97.12512 10.891 10.891 0 0075.30566 92.9a11.24431 11.24431 0 00-2.53027.28662 8.421 8.421 0 00-6.28516-2.76172 8.60449 8.60449 0 00-1.1416.0752 10.64484 10.64484 0 00-10.33057-7.5 11.07009 11.07009 0 00-6.08936 1.79681 3.63948 3.63948 0 00-1.11914-.1778h-.00006A3.8095 3.8095 0 0144 80.80963v-7.619A3.80955 3.80955 0 0147.80951 69.381h.00006a3.62634 3.62634 0 003.46722-2.54437 34.007 34.007 0 012.39795-5.77416 3.628 3.628 0 00-.64764-4.26045L53.022 56.797a3.80956 3.80956 0 010-5.38745L58.40942 46.022a3.80949 3.80949 0 015.38745 0l.00519.00513a3.61912 3.61912 0 001.02917.70795c.30865-1.40179.68445-2.782 1.12646-4.13165a7.80122 7.80122 0 00-10.37677.59021l-5.38739 5.38751a7.8188 7.8188 0 00-.1825 10.85553 38.13473 38.13473 0 00-2.47095 5.949A7.8189 7.8189 0 0040 73.19061v7.619A7.819 7.819 0 0047.5401 88.61456zM89.73364 15.94658a3 3 0 10-3-3A3.00344 3.00344 0 0089.73364 15.94658zm0-4.5a1.5 1.5 0 11-1.5 1.5A1.50148 1.50148 0 0189.73364 11.44658zM125.05778 6.94658a2 2 0 102 2A2.00229 2.00229 0 00125.05778 6.94658zm0 3a1 1 0 111-1A1.001 1.001 0 01125.05778 9.94658zM61.55342 3a2 2 0 102 2A2.00229 2.00229 0 0061.55342 3zm0 3a1 1 0 111-1A1.001 1.001 0 0161.55342 6zM128 36.00012a2 2 0 102 2A2.00229 2.00229 0 00128 36.00012zm0 3a1 1 0 111-1A1.001 1.001 0 01128 39.00012zM17.05778 57.94658a2 2 0 10-2 2A2.00229 2.00229 0 0017.05778 57.94658zm-3 0a1 1 0 111 1A1.001 1.001 0 0114.05778 57.94658z"/>
    <polygon fill="#a783b2" points="45.641 27.958 47.128 26.002 46.189 25.47 45.235 27.66 45.203 27.66 44.233 25.486 43.278 26.034 44.749 27.943 44.749 27.974 42.448 27.676 42.448 28.74 44.764 28.443 44.764 28.474 43.278 30.383 44.169 30.947 45.187 28.74 45.218 28.74 46.157 30.931 47.143 30.368 45.641 28.49 45.641 28.459 48.003 28.74 48.003 27.676 45.641 27.989 45.641 27.958"/>
    <polygon fill="#a783b2" points="8.834 16.013 7.978 17.112 8.492 17.437 9.078 16.166 9.095 16.166 9.636 17.428 10.204 17.103 9.339 16.022 9.339 16.004 10.699 16.166 10.699 15.554 9.339 15.734 9.339 15.716 10.195 14.59 9.655 14.283 9.105 15.544 9.087 15.544 8.528 14.292 7.978 14.607 8.826 15.707 8.826 15.725 7.501 15.554 7.501 16.166 8.834 15.995 8.834 16.013"/>
    <polygon fill="#a783b2" points="164.224 40.522 164.224 39.478 161.907 39.785 161.907 39.754 163.366 37.836 162.445 37.314 161.509 39.462 161.477 39.462 160.527 37.329 159.589 37.867 161.033 39.739 161.033 39.77 158.776 39.478 158.776 40.522 161.048 40.23 161.048 40.261 159.589 42.133 160.464 42.686 161.463 40.522 161.492 40.522 162.413 42.67 163.381 42.118 161.907 40.276 161.907 40.245 164.224 40.522"/>
    <polygon fill="#a783b2" points="158.501 6.532 159.759 4.878 158.965 4.428 158.157 6.281 158.13 6.281 157.31 4.441 156.501 4.904 157.746 6.519 157.746 6.546 155.8 6.294 155.8 7.194 157.759 6.943 157.759 6.969 156.501 8.584 157.256 9.061 158.117 7.194 158.143 7.194 158.938 9.048 159.772 8.571 158.501 6.982 158.501 6.956 160.499 7.194 160.499 6.294 158.501 6.559 158.501 6.532"/>
    <circle cx="2" cy="149" r="2" fill="#563560"/>
    <path fill="#563560" d="M11 147H8a2 2 0 000 4h3a2 2 0 000-4zM160 147h-3a2 2 0 000 4h3a2 2 0 000-4z"/>
    <circle cx="166" cy="149" r="2" fill="#563560"/>
    <path fill="#a783b2" d="M118.15387 155h-8.30774a2.00641 2.00641 0 000 4h8.30774a2.00641 2.00641 0 000-4zM58.15387 155H49.84613a2.00641 2.00641 0 000 4h8.30774a2.00641 2.00641 0 000-4zM104 155H64a2 2 0 000 4H79.94v2H72a2 2 0 000 4H97a2 2 0 000-4H88.06v-2H104a2 2 0 000-4z"/>
    <path fill="#563560" d="M150.72,147H87.82l6.82-9.86A1.95313,1.95313,0,0,0,95,136V107a2,2,0,0,0-4,0v27H77V107a2,2,0,0,0-4,0v29a1.95313,1.95313,0,0,0,.36,1.14L80.18,147H17.28a2.0172,2.0172,0,1,0,0,4H150.72a2.0172,2.0172,0,1,0,0-4Zm-71.9-9H89.18L84,145.49Z"/>
    <path fill="#a783b2" d="M86,111v23H82V111a2,2,0,0,1,4,0Z"/>
</svg>