<svg xmlns="http://www.w3.org/2000/svg" fill="none" viewBox="0 0 24 24">
    <path stroke="#563560" stroke-linecap="round"
        d="M11.9949 11.99V12M12 8.00196C16.9706 8.00196 21 9.79282 21 12.002C21 14.2111 16.9706 16.002 12 16.002C7.02944 16.002 3 14.2111 3 12.002C3 9.79282 7.02944 8.00196 12 8.00196ZM15.464 10.002C17.9493 14.3066 18.4131 18.6916 16.4999 19.7962C14.5867 20.9008 11.0211 18.3066 8.53581 14.002C6.05053 9.69732 5.58675 5.3123 7.49992 4.20773C9.41309 3.10316 12.9787 5.69732 15.464 10.002ZM15.4641 14.0019C12.9788 18.3066 9.41314 20.9007 7.49997 19.7962C5.5868 18.6916 6.05058 14.3066 8.53586 10.0019C11.0211 5.69729 14.5868 3.10313 16.5 4.2077C18.4131 5.31227 17.9493 9.69729 15.4641 14.0019Z" />
</svg>