<svg xmlns="http://www.w3.org/2000/svg" viewBox="0 0 64 64">

    <g fill="none" stroke="#563560" stroke-linejoin="round" stroke-width="2"
        data-name="25-procreate">
        <path
            d="M1 19v-2M63 49v2a12 12 0 0 1-12 12H13A12 12 0 0 1 1 51V21m0-6v-2A12 12 0 0 1 13 1h38a12 12 0 0 1 12 12v34" />
        <path
            d="M12 50s2-9 10-11 22-5 27-14a22.167 22.167 0 0 0 3-10v-3a10.937 10.937 0 0 0-1-4s1 13-16 17c-15.846 3.728-23 12-23 25Z" />
        <path d="M12 50s1-11 7-16 15-7 15-7 8-1 13-5 4-14 4-14" />
        <path d="M12 50a18.586 18.586 0 0 1 13-15c12-4 16-2 24-10" />
    </g>
</svg>