<?xml version="1.0" encoding="utf-8"?>
<!-- Generator: Adobe Illustrator 26.0.3, SVG Export Plug-In . SVG Version: 6.00 Build 0)  -->
<svg version="1.0" id="katman_1" xmlns="http://www.w3.org/2000/svg" xmlns:xlink="http://www.w3.org/1999/xlink" x="0px" y="0px"
	 viewBox="0 0 600 450" style="enable-background:new 0 0 600 450;" xml:space="preserve">
<g>
	<path fill="#563560" stroke="#563560" d="M298.4,221.7v-13h-8.8v53.4h8.8v-23c0-14.7,6.7-21.3,20.2-21.2v-9.5C309.3,209.3,302.1,213.2,298.4,221.7z"/>
	<path fill="#563560" stroke="#563560" d="M256.8,255.8c-11,0-17.4-8.7-17.4-20.4c0-11.8,6.4-20.4,17.4-20.4c9,0,13.8,5.2,15.3,12.2h9c-1.8-11.3-10.5-19.7-24.3-19.7
		c-16,0-26,11.9-26,27.9c0,16,9.9,27.9,26,27.9c14.4,0,23.2-8.9,24.6-20.9h-8.8C271.3,250,266.3,255.8,256.8,255.8z"/>
	<path fill="#563560" stroke="#563560" d="M100.3,187.3H67.6v74.8h16.8v-27.9h15.9c15.8,0,26.1-10.2,26.1-23.6C126.3,197.1,116.1,187.3,100.3,187.3z M97.7,221.6
		H84.4v-21.7h13.3c7.7,0,12.2,4.9,12.2,10.7C109.9,216.6,105.4,221.6,97.7,221.6z"/>
	<path fill="#563560" stroke="#563560" d="M146.7,221.5v-13.7h-15.1v54.3h15.1v-20.4c0-13.2,5-19.4,19.2-19.1v-15.1C156.3,208.4,149.8,212.5,146.7,221.5z"/>
	<path fill="#563560" stroke="#563560" d="M196.3,206.4c-17.2,0-28.2,11.6-28.2,28.4c0,17,11,28.6,28.2,28.6c17.3,0,28.3-11.6,28.3-28.6
		C224.6,218.1,213.6,206.4,196.3,206.4z M196.3,251.4c-8.5,0-13.5-6.9-13.5-16.6c0-9.4,4.9-16.3,13.5-16.3c8.7,0,13.6,6.9,13.6,16.3
		C209.9,244.4,205,251.4,196.3,251.4z"/>
	<path fill="#563560" stroke="#563560" d="M493.5,207.5c-15.5,0-26,11.8-26,28.2c0,15.8,9.7,27.6,25.8,27.6c12.1,0,21-6.8,24-18.3l0,0h-9.7
		c-2.6,7.7-8.5,10.8-14.5,10.8c-9.3,0-15.7-7.4-16.3-18.2v-0.4h41v-1.8C517.7,219.3,509,207.5,493.5,207.5z M476.9,230.6
		c1.6-9.6,7.3-15.6,16.5-15.6c9.7,0,15.3,6.6,15.5,15.6H476.9z"/>
	<path fill="#563560" stroke="#563560" d="M527.1,198c0-1.7-1.5-3-3.5-3H518v10.8h1.9v-4.7h2.8l2.4,4.7h2.3l-2.9-4.9C526.1,200.7,527.1,199.5,527.1,198z M520,199.5
		v-2.8h3.6c1,0,1.7,0.6,1.7,1.3c0,0.9-0.8,1.5-1.8,1.5H520z"/>
	<path fill="#563560" stroke="#563560" d="M345.9,207.5c-15.5,0-26,11.8-26,28.2c0,15.8,9.7,27.6,25.8,27.6c12.1,0,21-6.8,24-18.3c0,0-9.7,0-9.7,0
		c-2.6,7.7-8.5,10.8-14.5,10.8c-9.3,0-15.7-7.4-16.3-18.2v-0.4h41v-1.8C370.2,219.3,361.4,207.5,345.9,207.5z M329.4,230.6
		c1.6-9.6,7.3-15.6,16.5-15.6c9.7,0,15.3,6.6,15.5,15.6H329.4z"/>
	<path fill="#563560" stroke="#563560" d="M522.3,190.4c-5.7,0-10.4,4.3-10.4,10.4s4.7,10.4,10.3,10.4c5.7,0,10.4-4.4,10.4-10.4C532.6,194.7,527.9,190.4,522.3,190.4
		z M522.2,209.2c-4.6,0-8.4-3.6-8.4-8.5c0-5,3.9-8.6,8.5-8.6c4.6,0,8.4,3.6,8.4,8.5C530.7,205.7,526.8,209.2,522.2,209.2z"/>
	<path fill="#563560" stroke="#563560" d="M446,191.6h-8.8v7.3c0,7.5-2.7,9.8-11.1,9.8H426v7.5h11.2v28.3c0,11.3,7.6,18.4,19.6,18.4c2.6,0,5-0.4,7.1-1.1V254
		c-2.6,0.9-5,1.2-7.1,1.2c-7.1,0-10.8-3.7-10.8-10.7v-28.3h19.6v-7.5H446V191.6z"/>
	<path fill="#563560" stroke="#563560" d="M400.7,207.5c-12.9,0-21.2,6.9-21.5,18.1h8.8c0.4-6.5,5.3-10.6,12.7-10.6c7.8,0,12.6,4.7,12.6,12.3v2.4h-7.4
		c-21.5,0-29.1,7.6-29.1,17.7c0,9.4,6.9,15.3,17.4,15.3c9.7,0,16.2-4.9,18.8-9h0.2v8.4h8.5v-34.8
		C421.8,215.1,413.7,207.5,400.7,207.5z M413.3,241.5c0,7.4-7.7,14.1-17.1,14.1c-6.6,0-10.8-3.1-10.8-8.4c0-6,4.7-10.7,20.5-10.7
		h7.4V241.5z"/>
</g>
</svg>
