
<svg version="1.0" xmlns="http://www.w3.org/2000/svg"
 width="512.000000pt" height="512.000000pt" viewBox="0 0 512.000000 512.000000"
 preserveAspectRatio="xMidYMid meet">

<g transform="translate(0.000000,512.000000) scale(0.100000,-0.100000)"
fill="#563560" stroke="none">
<path d="M2880 5113 c-33 -12 -64 -51 -95 -119 -36 -78 -32 -76 -140 -90 -98
-13 -145 -53 -145 -124 0 -44 14 -66 81 -135 l59 -60 -15 -85 c-17 -97 -10
-137 32 -170 50 -39 86 -37 179 11 l84 44 84 -43 c46 -23 94 -42 107 -42 36 0
87 36 105 74 15 30 15 41 1 122 l-15 89 69 71 c66 69 69 74 69 121 0 85 -28
108 -158 129 -46 7 -86 15 -87 16 -1 2 -21 39 -44 83 -26 52 -51 87 -70 98
-28 17 -71 21 -101 10z m74 -249 c36 -68 56 -82 141 -96 l66 -11 -50 -51 c-58
-58 -67 -88 -53 -166 6 -30 9 -56 8 -57 -1 -1 -28 11 -60 27 -73 37 -92 37
-166 0 -33 -16 -61 -30 -64 -30 -2 0 0 17 5 38 12 52 11 109 -2 135 -6 12 -29
41 -51 63 l-40 42 62 11 c82 14 105 30 137 96 15 30 30 55 33 55 3 0 18 -25
34 -56z"/>
<path d="M1342 4706 l-37 -34 -3 -116 -4 -116 -45 -20 -46 -20 -77 74 c-80 79
-108 92 -168 83 -29 -5 -58 -28 -154 -124 -170 -169 -174 -198 -51 -325 l75
-77 -17 -45 -18 -46 -86 0 c-107 0 -149 -11 -187 -51 l-29 -30 -3 -169 c-4
-200 4 -226 72 -260 34 -16 62 -20 138 -20 l95 0 18 -46 17 -45 -75 -77 c-124
-128 -119 -156 57 -330 118 -117 124 -122 165 -122 56 0 84 16 160 94 l64 65
46 -19 46 -18 5 -113 c6 -124 13 -145 64 -175 27 -16 52 -19 191 -19 242 0
257 11 265 194 l5 113 46 18 46 19 64 -65 c76 -78 104 -94 160 -94 41 0 47 5
165 122 176 174 181 202 57 330 l-75 77 17 45 18 46 96 0 c119 0 169 19 195
74 15 31 17 62 14 206 l-3 169 -29 30 c-38 40 -80 51 -187 51 l-86 0 -18 46
-17 45 75 77 c123 127 119 156 -51 325 -96 96 -125 119 -154 124 -60 9 -88 -4
-168 -83 l-77 -74 -46 20 -45 20 -4 116 -3 116 -37 34 -38 34 -180 0 -180 0
-38 -34z m328 -211 c0 -99 10 -134 46 -166 34 -30 166 -79 212 -79 42 0 49 5
123 77 l80 77 79 -79 80 -80 -69 -70 c-75 -77 -91 -101 -91 -140 0 -44 60
-178 96 -212 l34 -33 110 0 110 0 0 -115 0 -115 -110 0 c-106 0 -111 -1 -140
-27 -32 -30 -100 -179 -100 -220 0 -37 16 -62 91 -138 l69 -70 -80 -80 -79
-79 -81 78 -80 78 -52 -5 c-55 -4 -169 -47 -202 -76 -34 -29 -46 -76 -46 -176
l0 -95 -110 0 -110 0 0 95 c0 100 -12 147 -46 176 -33 29 -147 72 -202 76
l-52 5 -80 -78 -81 -78 -79 79 -80 80 69 70 c75 76 91 101 91 138 0 41 -68
190 -100 220 -29 26 -34 27 -140 27 l-110 0 0 115 0 115 110 0 c106 0 111 1
140 28 50 44 109 196 96 247 -4 16 -41 63 -81 105 l-75 76 80 79 79 79 80 -77
c74 -72 81 -77 123 -77 46 0 178 49 212 79 36 32 46 67 46 166 l0 95 110 0
110 0 0 -95z"/>
<path d="M1431 4164 c-165 -44 -310 -185 -356 -346 -94 -326 150 -648 490
-648 129 0 256 53 351 145 58 57 114 148 114 186 0 37 -34 69 -75 69 -38 0
-57 -16 -84 -69 -27 -53 -98 -118 -161 -149 -48 -24 -67 -27 -150 -27 -114 0
-162 18 -241 92 -153 143 -154 372 0 516 77 72 127 91 241 91 76 0 104 -4 142
-21 61 -28 123 -85 166 -153 42 -65 47 -70 89 -70 46 0 76 34 69 79 -7 43 -64
130 -122 186 -119 114 -312 162 -473 119z"/>
<path d="M1520 3890 c-169 -31 -239 -240 -122 -363 111 -117 305 -82 366 65
66 156 -76 329 -244 298z m94 -172 c35 -49 4 -111 -54 -111 -58 0 -89 62 -54
111 11 16 25 22 54 22 29 0 43 -6 54 -22z"/>
<path d="M3528 4050 c-30 -16 -46 -39 -93 -132 -32 -62 -58 -114 -59 -115 0 0
-53 -9 -116 -18 -140 -21 -166 -33 -191 -91 -33 -74 -21 -104 84 -209 l89 -90
-12 -85 c-23 -157 -23 -175 -6 -209 10 -17 31 -41 49 -51 55 -34 98 -26 214
36 l105 56 108 -56 c119 -62 163 -69 216 -37 17 10 39 36 49 57 18 38 18 42
-4 164 l-21 125 77 74 c100 95 113 115 113 175 0 43 -4 53 -37 86 -35 35 -45
38 -128 50 -168 23 -150 11 -213 135 -32 60 -69 117 -83 128 -39 28 -97 31
-141 7z m121 -262 c55 -111 73 -124 203 -143 51 -8 97 -15 102 -15 5 0 -27
-37 -72 -83 -44 -46 -84 -96 -88 -111 -4 -16 1 -72 10 -127 9 -54 16 -102 16
-107 0 -5 -42 13 -92 39 -121 63 -144 63 -261 3 -49 -25 -91 -43 -94 -40 -4 3
1 50 10 103 9 54 13 112 10 128 -4 20 -33 57 -85 109 -43 43 -77 80 -75 82 2
2 47 10 100 18 132 20 147 31 208 149 28 54 53 96 56 93 4 -3 27 -47 52 -98z"/>
<path d="M2630 2826 c-88 -20 -130 -35 -219 -82 -219 -115 -362 -294 -433
-541 -32 -112 -32 -324 0 -436 27 -96 68 -185 116 -256 20 -29 36 -55 36 -57
0 -2 -144 -4 -320 -4 l-320 0 0 63 c0 87 -15 130 -56 166 l-35 31 -415 0
c-458 0 -456 0 -494 -63 -19 -31 -20 -56 -20 -787 0 -731 1 -756 20 -787 42
-69 32 -68 461 -71 253 -2 402 1 428 8 53 14 98 66 106 125 4 25 9 45 10 45 2
0 65 -24 142 -54 158 -62 308 -101 438 -116 52 -6 385 -10 785 -10 766 0 765
0 884 62 45 24 104 75 224 193 143 141 162 164 162 193 0 42 -30 72 -73 72
-28 0 -49 -17 -172 -140 -77 -78 -160 -154 -185 -170 -96 -61 -86 -60 -845
-60 -416 0 -724 4 -775 10 -123 15 -251 52 -431 123 l-159 62 0 478 0 477 695
0 c763 0 726 3 779 -60 21 -25 26 -42 26 -85 0 -43 -5 -60 -26 -85 -49 -58
-61 -60 -316 -60 -249 -1 -302 -7 -360 -45 -61 -40 -91 -103 -96 -203 -6 -113
10 -178 55 -232 71 -83 45 -80 673 -80 l555 0 55 26 c45 21 116 86 405 374
301 300 355 349 387 355 121 22 211 -86 168 -201 -6 -15 -67 -85 -135 -154
-132 -135 -143 -156 -107 -199 9 -11 32 -24 50 -27 31 -6 38 -1 161 121 148
146 181 197 189 291 6 79 -11 143 -53 198 -19 25 -38 68 -48 109 -20 82 -61
145 -122 185 -86 57 -208 67 -292 23 -40 -20 -41 -20 -92 -1 -32 13 -76 20
-119 20 -117 0 -129 -9 -487 -370 -176 -177 -338 -335 -359 -351 l-39 -29
-339 0 c-191 0 -338 4 -338 9 0 21 49 26 305 31 256 5 272 6 312 28 96 51 163
153 163 249 l0 53 53 26 c177 89 334 258 409 438 41 100 46 148 19 175 -26 26
-82 28 -104 3 -9 -10 -26 -44 -36 -75 -50 -144 -153 -277 -280 -361 -99 -66
-114 -70 -138 -38 -11 15 -44 41 -74 57 l-54 30 -297 3 -297 3 -62 67 c-108
119 -179 302 -179 467 0 104 26 210 77 315 39 81 59 108 137 185 74 73 107 99
176 132 123 60 202 76 346 71 100 -3 133 -9 205 -34 223 -79 400 -271 455
-494 20 -81 36 -100 84 -100 65 0 85 41 64 130 -44 191 -180 389 -343 499
-157 107 -305 152 -495 150 -66 -1 -146 -7 -176 -13z m-1292 -1968 l-3 -703
-357 -3 -358 -2 0 705 0 705 360 0 360 0 -2 -702z m2980 558 c15 -8 35 -23 45
-34 17 -19 16 -19 -38 -26 -102 -12 -129 -34 -470 -376 -176 -177 -338 -335
-359 -351 l-39 -29 -535 0 c-484 0 -537 2 -554 17 -10 9 -18 24 -18 35 0 17
21 18 508 18 444 0 515 2 558 16 43 15 88 56 399 365 193 191 364 355 380 363
37 20 88 20 123 2z m-628 -282 c-157 -157 -297 -292 -312 -300 -15 -8 -46 -14
-70 -14 l-43 0 280 281 c154 155 294 290 310 300 18 11 48 19 75 19 l45 0
-285 -286z"/>
<path d="M3170 2253 c-8 -3 -104 -93 -212 -201 l-198 -196 -148 147 c-160 158
-175 166 -226 126 -18 -14 -26 -30 -26 -52 0 -28 22 -54 183 -215 166 -166
185 -182 217 -182 32 0 53 19 267 233 204 204 233 236 233 264 0 50 -48 91
-90 76z"/>
</g>
</svg>
