<svg xmlns="http://www.w3.org/2000/svg" data-name="Layer 1" viewBox="0 0 168 168">
    <path fill="#2d4356"
        d="M38.11042 29.73854a3 3 0 10-3-3A3.00344 3.00344 0 0038.11042 29.73854zm0-4.5a1.5 1.5 0 11-1.5 1.5A1.50148 1.50148 0 0138.11042 25.23854zM159.11042 45.40218a2 2 0 102 2A2.00229 2.00229 0 00159.11042 45.40218zm0 3a1 1 0 111-1A1.001 1.001 0 01159.11042 48.40218zM8.88958 12.40218a2 2 0 102 2A2.00229 2.00229 0 008.88958 12.40218zm0 3a1 1 0 111-1A1.001 1.001 0 018.88958 15.40218zM116.88958 3.76146a2 2 0 102 2A2.00229 2.00229 0 00116.88958 3.76146zm0 3a1 1 0 111-1A1.001 1.001 0 01116.88958 6.76146zM95.996 16.40218a2 2 0 10-2 2A2.00229 2.00229 0 0095.996 16.40218zm-3 0a1 1 0 111 1A1.001 1.001 0 0192.996 16.40218z" />
    <polygon fill="#0bceb2"
        points="16.303 48.413 17.79 46.458 16.851 45.926 15.897 48.116 15.865 48.116 14.895 45.941 13.94 46.489 15.411 48.398 15.411 48.429 13.11 48.132 13.11 49.196 15.426 48.899 15.426 48.93 13.94 50.838 14.831 51.402 15.849 49.196 15.88 49.196 16.819 51.386 17.805 50.823 16.303 48.945 16.303 48.914 18.665 49.196 18.665 48.132 16.303 48.445 16.303 48.413" />
    <polygon fill="#0bceb2"
        points="62.781 9.469 61.925 10.568 62.439 10.892 63.025 9.622 63.043 9.622 63.583 10.883 64.151 10.559 63.286 9.478 63.286 9.46 64.646 9.622 64.646 9.009 63.286 9.189 63.286 9.171 64.142 8.045 63.602 7.739 63.052 9 63.034 9 62.476 7.748 61.925 8.063 62.773 9.162 62.773 9.18 61.448 9.009 61.448 9.622 62.781 9.451 62.781 9.469" />
    <polygon fill="#0bceb2"
        points="126.025 32.43 126.025 31.386 123.709 31.693 123.709 31.663 125.167 29.744 124.246 29.223 123.31 31.371 123.279 31.371 122.328 29.238 121.391 29.775 122.834 31.648 122.834 31.678 120.577 31.386 120.577 32.43 122.849 32.139 122.849 32.169 121.391 34.041 122.265 34.594 123.264 32.43 123.294 32.43 124.215 34.579 125.182 34.026 123.709 32.184 123.709 32.154 126.025 32.43" />
    <polygon fill="#0bceb2"
        points="151.333 12.988 152.591 11.333 151.796 10.883 150.989 12.736 150.962 12.736 150.142 10.896 149.333 11.36 150.578 12.975 150.578 13.001 148.632 12.75 148.632 13.65 150.591 13.399 150.591 13.425 149.333 15.04 150.088 15.517 150.949 13.65 150.975 13.65 151.769 15.503 152.604 15.027 151.333 13.438 151.333 13.412 153.331 13.65 153.331 12.75 151.333 13.014 151.333 12.988" />
</svg>